%TF.GenerationSoftware,KiCad,Pcbnew,(5.1.6-0-10_14)*%
%TF.CreationDate,2020-06-11T07:37:50+09:00*%
%TF.ProjectId,QSPIRadiationBoard,51535049-5261-4646-9961-74696f6e426f,rev?*%
%TF.SameCoordinates,Original*%
%TF.FileFunction,Copper,L2,Bot*%
%TF.FilePolarity,Positive*%
%FSLAX46Y46*%
G04 Gerber Fmt 4.6, Leading zero omitted, Abs format (unit mm)*
G04 Created by KiCad (PCBNEW (5.1.6-0-10_14)) date 2020-06-11 07:37:50*
%MOMM*%
%LPD*%
G01*
G04 APERTURE LIST*
%TA.AperFunction,ComponentPad*%
%ADD10C,1.600000*%
%TD*%
%TA.AperFunction,ComponentPad*%
%ADD11O,1.905000X2.000000*%
%TD*%
%TA.AperFunction,ComponentPad*%
%ADD12R,1.905000X2.000000*%
%TD*%
%TA.AperFunction,ComponentPad*%
%ADD13R,1.600000X1.600000*%
%TD*%
%TA.AperFunction,ComponentPad*%
%ADD14C,2.600000*%
%TD*%
%TA.AperFunction,ComponentPad*%
%ADD15O,1.600000X1.600000*%
%TD*%
%TA.AperFunction,ViaPad*%
%ADD16C,0.800000*%
%TD*%
%TA.AperFunction,Conductor*%
%ADD17C,0.250000*%
%TD*%
%TA.AperFunction,Conductor*%
%ADD18C,0.254000*%
%TD*%
G04 APERTURE END LIST*
D10*
%TO.P,U1,5*%
%TO.N,Net-(C1-Pad1)*%
X150610000Y-26710000D03*
%TO.P,U1,8*%
%TO.N,Net-(C1-Pad2)*%
X153150000Y-29250000D03*
%TO.P,U1,6*%
%TO.N,Net-(C1-Pad1)*%
X150610000Y-29250000D03*
%TO.P,U1,7*%
%TO.N,Net-(C1-Pad2)*%
X153150000Y-26710000D03*
%TO.P,U1,4*%
X108090000Y-29250000D03*
%TO.P,U1,2*%
%TO.N,Net-(C1-Pad1)*%
X105550000Y-29250000D03*
%TO.P,U1,3*%
%TO.N,Net-(C1-Pad2)*%
X108090000Y-26710000D03*
%TO.P,U1,1*%
%TO.N,Net-(C1-Pad1)*%
X105550000Y-26710000D03*
%TD*%
D11*
%TO.P,U4,3*%
%TO.N,Net-(C2-Pad1)*%
X117880000Y-25090000D03*
%TO.P,U4,2*%
%TO.N,Net-(C1-Pad1)*%
X115340000Y-25090000D03*
D12*
%TO.P,U4,1*%
%TO.N,Net-(C1-Pad2)*%
X112800000Y-25090000D03*
%TD*%
D10*
%TO.P,C2,2*%
%TO.N,Net-(C1-Pad2)*%
X124810000Y-27580000D03*
D13*
%TO.P,C2,1*%
%TO.N,Net-(C2-Pad1)*%
X124810000Y-25080000D03*
%TD*%
D10*
%TO.P,C1,2*%
%TO.N,Net-(C1-Pad2)*%
X112840000Y-31520000D03*
D13*
%TO.P,C1,1*%
%TO.N,Net-(C1-Pad1)*%
X115340000Y-31520000D03*
%TD*%
D14*
%TO.P,J1,6*%
%TO.N,Net-(J1-Pad6)*%
X147320000Y-30580000D03*
%TO.P,J1,5*%
%TO.N,Net-(C1-Pad2)*%
X143120000Y-30580000D03*
%TO.P,J1,4*%
%TO.N,Net-(J1-Pad4)*%
X138920000Y-30580000D03*
%TO.P,J1,3*%
%TO.N,Net-(J1-Pad3)*%
X147320000Y-25080000D03*
%TO.P,J1,2*%
%TO.N,Net-(C1-Pad2)*%
X143120000Y-25080000D03*
%TO.P,J1,1*%
%TO.N,Net-(C2-Pad1)*%
X138920000Y-25080000D03*
%TD*%
D10*
%TO.P,U2,24*%
%TO.N,Net-(C1-Pad2)*%
X140160000Y-93970000D03*
%TO.P,U2,23*%
%TO.N,Net-(J1-Pad6)*%
X140160000Y-91430000D03*
%TO.P,U2,22*%
%TO.N,Net-(C1-Pad2)*%
X140160000Y-88890000D03*
%TO.P,U2,21*%
%TO.N,Net-(U2-Pad21)*%
X140160000Y-86350000D03*
%TO.P,U2,20*%
%TO.N,Net-(U2-Pad20)*%
X140160000Y-83810000D03*
%TO.P,U2,19*%
%TO.N,Net-(U2-Pad19)*%
X140160000Y-81270000D03*
%TO.P,U2,18*%
%TO.N,Net-(C1-Pad2)*%
X140160000Y-78730000D03*
%TO.P,U2,17*%
%TO.N,Net-(U2-Pad17)*%
X140160000Y-76190000D03*
%TO.P,U2,16*%
%TO.N,Net-(U2-Pad16)*%
X140160000Y-73650000D03*
%TO.P,U2,15*%
%TO.N,Net-(C1-Pad2)*%
X140160000Y-71110000D03*
%TO.P,U2,14*%
%TO.N,Net-(U2-Pad14)*%
X140160000Y-68570000D03*
%TO.P,U2,13*%
%TO.N,Net-(C1-Pad1)*%
X140160000Y-66030000D03*
%TO.P,U2,12*%
%TO.N,Net-(C1-Pad2)*%
X119840000Y-93970000D03*
%TO.P,U2,11*%
%TO.N,Net-(R1-Pad2)*%
X119840000Y-91430000D03*
%TO.P,U2,10*%
%TO.N,Net-(U2-Pad10)*%
X119840000Y-88890000D03*
%TO.P,U2,9*%
%TO.N,Net-(U2-Pad9)*%
X119840000Y-86350000D03*
%TO.P,U2,8*%
%TO.N,Net-(C1-Pad2)*%
X119840000Y-83810000D03*
%TO.P,U2,7*%
%TO.N,Net-(U2-Pad7)*%
X119840000Y-81270000D03*
%TO.P,U2,6*%
%TO.N,Net-(U2-Pad6)*%
X119840000Y-78730000D03*
%TO.P,U2,5*%
%TO.N,Net-(U2-Pad5)*%
X119840000Y-76190000D03*
%TO.P,U2,4*%
%TO.N,Net-(U2-Pad4)*%
X119840000Y-73650000D03*
%TO.P,U2,3*%
%TO.N,Net-(C1-Pad2)*%
X119840000Y-71110000D03*
%TO.P,U2,2*%
%TO.N,Net-(U2-Pad2)*%
X119840000Y-68570000D03*
%TO.P,U2,1*%
%TO.N,Net-(U2-Pad1)*%
X119840000Y-66030000D03*
%TD*%
D15*
%TO.P,R1,2*%
%TO.N,Net-(R1-Pad2)*%
X110490000Y-91440000D03*
D10*
%TO.P,R1,1*%
%TO.N,Net-(C1-Pad1)*%
X110490000Y-99060000D03*
%TD*%
D16*
%TO.N,Net-(U2-Pad4)*%
X115580006Y-73650000D03*
X115570000Y-169555018D03*
%TO.N,Net-(J1-Pad6)*%
X147320000Y-35560000D03*
X134620000Y-91440000D03*
%TO.N,Net-(C1-Pad2)*%
X131710000Y-183820000D03*
%TD*%
D17*
%TO.N,Net-(U2-Pad4)*%
X115580006Y-169545012D02*
X115570000Y-169555018D01*
X115580006Y-73650000D02*
X115580006Y-169545012D01*
%TO.N,Net-(J1-Pad6)*%
X147320000Y-35560000D02*
X139065000Y-35560000D01*
X134620000Y-40005000D02*
X134620000Y-91440000D01*
X139065000Y-35560000D02*
X134620000Y-40005000D01*
%TD*%
D18*
%TO.N,Net-(C1-Pad2)*%
G36*
X160630000Y-188570000D02*
G01*
X95910000Y-188570000D01*
X95910000Y-169453079D01*
X114535000Y-169453079D01*
X114535000Y-169656957D01*
X114574774Y-169856916D01*
X114652795Y-170045274D01*
X114766063Y-170214792D01*
X114910226Y-170358955D01*
X115079744Y-170472223D01*
X115268102Y-170550244D01*
X115468061Y-170590018D01*
X115671939Y-170590018D01*
X115871898Y-170550244D01*
X116060256Y-170472223D01*
X116229774Y-170358955D01*
X116373937Y-170214792D01*
X116487205Y-170045274D01*
X116565226Y-169856916D01*
X116605000Y-169656957D01*
X116605000Y-169453079D01*
X116565226Y-169253120D01*
X116487205Y-169064762D01*
X116373937Y-168895244D01*
X116340006Y-168861313D01*
X116340006Y-94962702D01*
X119026903Y-94962702D01*
X119098486Y-95206671D01*
X119353996Y-95327571D01*
X119628184Y-95396300D01*
X119910512Y-95410217D01*
X120190130Y-95368787D01*
X120456292Y-95273603D01*
X120581514Y-95206671D01*
X120653097Y-94962702D01*
X139346903Y-94962702D01*
X139418486Y-95206671D01*
X139673996Y-95327571D01*
X139948184Y-95396300D01*
X140230512Y-95410217D01*
X140510130Y-95368787D01*
X140776292Y-95273603D01*
X140901514Y-95206671D01*
X140973097Y-94962702D01*
X140160000Y-94149605D01*
X139346903Y-94962702D01*
X120653097Y-94962702D01*
X119840000Y-94149605D01*
X119026903Y-94962702D01*
X116340006Y-94962702D01*
X116340006Y-94040512D01*
X118399783Y-94040512D01*
X118441213Y-94320130D01*
X118536397Y-94586292D01*
X118603329Y-94711514D01*
X118847298Y-94783097D01*
X119660395Y-93970000D01*
X120019605Y-93970000D01*
X120832702Y-94783097D01*
X121076671Y-94711514D01*
X121197571Y-94456004D01*
X121266300Y-94181816D01*
X121273265Y-94040512D01*
X138719783Y-94040512D01*
X138761213Y-94320130D01*
X138856397Y-94586292D01*
X138923329Y-94711514D01*
X139167298Y-94783097D01*
X139980395Y-93970000D01*
X140339605Y-93970000D01*
X141152702Y-94783097D01*
X141396671Y-94711514D01*
X141517571Y-94456004D01*
X141586300Y-94181816D01*
X141600217Y-93899488D01*
X141558787Y-93619870D01*
X141463603Y-93353708D01*
X141396671Y-93228486D01*
X141152702Y-93156903D01*
X140339605Y-93970000D01*
X139980395Y-93970000D01*
X139167298Y-93156903D01*
X138923329Y-93228486D01*
X138802429Y-93483996D01*
X138733700Y-93758184D01*
X138719783Y-94040512D01*
X121273265Y-94040512D01*
X121280217Y-93899488D01*
X121238787Y-93619870D01*
X121143603Y-93353708D01*
X121076671Y-93228486D01*
X120832702Y-93156903D01*
X120019605Y-93970000D01*
X119660395Y-93970000D01*
X118847298Y-93156903D01*
X118603329Y-93228486D01*
X118482429Y-93483996D01*
X118413700Y-93758184D01*
X118399783Y-94040512D01*
X116340006Y-94040512D01*
X116340006Y-86208665D01*
X118405000Y-86208665D01*
X118405000Y-86491335D01*
X118460147Y-86768574D01*
X118568320Y-87029727D01*
X118725363Y-87264759D01*
X118925241Y-87464637D01*
X119157759Y-87620000D01*
X118925241Y-87775363D01*
X118725363Y-87975241D01*
X118568320Y-88210273D01*
X118460147Y-88471426D01*
X118405000Y-88748665D01*
X118405000Y-89031335D01*
X118460147Y-89308574D01*
X118568320Y-89569727D01*
X118725363Y-89804759D01*
X118925241Y-90004637D01*
X119157759Y-90160000D01*
X118925241Y-90315363D01*
X118725363Y-90515241D01*
X118568320Y-90750273D01*
X118460147Y-91011426D01*
X118405000Y-91288665D01*
X118405000Y-91571335D01*
X118460147Y-91848574D01*
X118568320Y-92109727D01*
X118725363Y-92344759D01*
X118925241Y-92544637D01*
X119159128Y-92700915D01*
X119098486Y-92733329D01*
X119026903Y-92977298D01*
X119840000Y-93790395D01*
X120653097Y-92977298D01*
X120581514Y-92733329D01*
X120517008Y-92702806D01*
X120519727Y-92701680D01*
X120754759Y-92544637D01*
X120954637Y-92344759D01*
X121111680Y-92109727D01*
X121219853Y-91848574D01*
X121275000Y-91571335D01*
X121275000Y-91338061D01*
X133585000Y-91338061D01*
X133585000Y-91541939D01*
X133624774Y-91741898D01*
X133702795Y-91930256D01*
X133816063Y-92099774D01*
X133960226Y-92243937D01*
X134129744Y-92357205D01*
X134318102Y-92435226D01*
X134518061Y-92475000D01*
X134721939Y-92475000D01*
X134921898Y-92435226D01*
X135110256Y-92357205D01*
X135279774Y-92243937D01*
X135423937Y-92099774D01*
X135537205Y-91930256D01*
X135615226Y-91741898D01*
X135655000Y-91541939D01*
X135655000Y-91338061D01*
X135645175Y-91288665D01*
X138725000Y-91288665D01*
X138725000Y-91571335D01*
X138780147Y-91848574D01*
X138888320Y-92109727D01*
X139045363Y-92344759D01*
X139245241Y-92544637D01*
X139479128Y-92700915D01*
X139418486Y-92733329D01*
X139346903Y-92977298D01*
X140160000Y-93790395D01*
X140973097Y-92977298D01*
X140901514Y-92733329D01*
X140837008Y-92702806D01*
X140839727Y-92701680D01*
X141074759Y-92544637D01*
X141274637Y-92344759D01*
X141431680Y-92109727D01*
X141539853Y-91848574D01*
X141595000Y-91571335D01*
X141595000Y-91288665D01*
X141539853Y-91011426D01*
X141431680Y-90750273D01*
X141274637Y-90515241D01*
X141074759Y-90315363D01*
X140840872Y-90159085D01*
X140901514Y-90126671D01*
X140973097Y-89882702D01*
X140160000Y-89069605D01*
X139346903Y-89882702D01*
X139418486Y-90126671D01*
X139482992Y-90157194D01*
X139480273Y-90158320D01*
X139245241Y-90315363D01*
X139045363Y-90515241D01*
X138888320Y-90750273D01*
X138780147Y-91011426D01*
X138725000Y-91288665D01*
X135645175Y-91288665D01*
X135615226Y-91138102D01*
X135537205Y-90949744D01*
X135423937Y-90780226D01*
X135380000Y-90736289D01*
X135380000Y-88960512D01*
X138719783Y-88960512D01*
X138761213Y-89240130D01*
X138856397Y-89506292D01*
X138923329Y-89631514D01*
X139167298Y-89703097D01*
X139980395Y-88890000D01*
X140339605Y-88890000D01*
X141152702Y-89703097D01*
X141396671Y-89631514D01*
X141517571Y-89376004D01*
X141586300Y-89101816D01*
X141600217Y-88819488D01*
X141558787Y-88539870D01*
X141463603Y-88273708D01*
X141396671Y-88148486D01*
X141152702Y-88076903D01*
X140339605Y-88890000D01*
X139980395Y-88890000D01*
X139167298Y-88076903D01*
X138923329Y-88148486D01*
X138802429Y-88403996D01*
X138733700Y-88678184D01*
X138719783Y-88960512D01*
X135380000Y-88960512D01*
X135380000Y-81128665D01*
X138725000Y-81128665D01*
X138725000Y-81411335D01*
X138780147Y-81688574D01*
X138888320Y-81949727D01*
X139045363Y-82184759D01*
X139245241Y-82384637D01*
X139477759Y-82540000D01*
X139245241Y-82695363D01*
X139045363Y-82895241D01*
X138888320Y-83130273D01*
X138780147Y-83391426D01*
X138725000Y-83668665D01*
X138725000Y-83951335D01*
X138780147Y-84228574D01*
X138888320Y-84489727D01*
X139045363Y-84724759D01*
X139245241Y-84924637D01*
X139477759Y-85080000D01*
X139245241Y-85235363D01*
X139045363Y-85435241D01*
X138888320Y-85670273D01*
X138780147Y-85931426D01*
X138725000Y-86208665D01*
X138725000Y-86491335D01*
X138780147Y-86768574D01*
X138888320Y-87029727D01*
X139045363Y-87264759D01*
X139245241Y-87464637D01*
X139479128Y-87620915D01*
X139418486Y-87653329D01*
X139346903Y-87897298D01*
X140160000Y-88710395D01*
X140973097Y-87897298D01*
X140901514Y-87653329D01*
X140837008Y-87622806D01*
X140839727Y-87621680D01*
X141074759Y-87464637D01*
X141274637Y-87264759D01*
X141431680Y-87029727D01*
X141539853Y-86768574D01*
X141595000Y-86491335D01*
X141595000Y-86208665D01*
X141539853Y-85931426D01*
X141431680Y-85670273D01*
X141274637Y-85435241D01*
X141074759Y-85235363D01*
X140842241Y-85080000D01*
X141074759Y-84924637D01*
X141274637Y-84724759D01*
X141431680Y-84489727D01*
X141539853Y-84228574D01*
X141595000Y-83951335D01*
X141595000Y-83668665D01*
X141539853Y-83391426D01*
X141431680Y-83130273D01*
X141274637Y-82895241D01*
X141074759Y-82695363D01*
X140842241Y-82540000D01*
X141074759Y-82384637D01*
X141274637Y-82184759D01*
X141431680Y-81949727D01*
X141539853Y-81688574D01*
X141595000Y-81411335D01*
X141595000Y-81128665D01*
X141539853Y-80851426D01*
X141431680Y-80590273D01*
X141274637Y-80355241D01*
X141074759Y-80155363D01*
X140840872Y-79999085D01*
X140901514Y-79966671D01*
X140973097Y-79722702D01*
X140160000Y-78909605D01*
X139346903Y-79722702D01*
X139418486Y-79966671D01*
X139482992Y-79997194D01*
X139480273Y-79998320D01*
X139245241Y-80155363D01*
X139045363Y-80355241D01*
X138888320Y-80590273D01*
X138780147Y-80851426D01*
X138725000Y-81128665D01*
X135380000Y-81128665D01*
X135380000Y-78800512D01*
X138719783Y-78800512D01*
X138761213Y-79080130D01*
X138856397Y-79346292D01*
X138923329Y-79471514D01*
X139167298Y-79543097D01*
X139980395Y-78730000D01*
X140339605Y-78730000D01*
X141152702Y-79543097D01*
X141396671Y-79471514D01*
X141517571Y-79216004D01*
X141586300Y-78941816D01*
X141600217Y-78659488D01*
X141594705Y-78622285D01*
X149665000Y-78622285D01*
X149665000Y-79377715D01*
X149812377Y-80118628D01*
X150101467Y-80816554D01*
X150521161Y-81444670D01*
X151055330Y-81978839D01*
X151683446Y-82398533D01*
X152381372Y-82687623D01*
X153122285Y-82835000D01*
X153877715Y-82835000D01*
X154618628Y-82687623D01*
X155316554Y-82398533D01*
X155944670Y-81978839D01*
X156478839Y-81444670D01*
X156898533Y-80816554D01*
X157187623Y-80118628D01*
X157335000Y-79377715D01*
X157335000Y-78622285D01*
X157187623Y-77881372D01*
X156898533Y-77183446D01*
X156478839Y-76555330D01*
X155944670Y-76021161D01*
X155316554Y-75601467D01*
X154618628Y-75312377D01*
X153877715Y-75165000D01*
X153122285Y-75165000D01*
X152381372Y-75312377D01*
X151683446Y-75601467D01*
X151055330Y-76021161D01*
X150521161Y-76555330D01*
X150101467Y-77183446D01*
X149812377Y-77881372D01*
X149665000Y-78622285D01*
X141594705Y-78622285D01*
X141558787Y-78379870D01*
X141463603Y-78113708D01*
X141396671Y-77988486D01*
X141152702Y-77916903D01*
X140339605Y-78730000D01*
X139980395Y-78730000D01*
X139167298Y-77916903D01*
X138923329Y-77988486D01*
X138802429Y-78243996D01*
X138733700Y-78518184D01*
X138719783Y-78800512D01*
X135380000Y-78800512D01*
X135380000Y-73508665D01*
X138725000Y-73508665D01*
X138725000Y-73791335D01*
X138780147Y-74068574D01*
X138888320Y-74329727D01*
X139045363Y-74564759D01*
X139245241Y-74764637D01*
X139477759Y-74920000D01*
X139245241Y-75075363D01*
X139045363Y-75275241D01*
X138888320Y-75510273D01*
X138780147Y-75771426D01*
X138725000Y-76048665D01*
X138725000Y-76331335D01*
X138780147Y-76608574D01*
X138888320Y-76869727D01*
X139045363Y-77104759D01*
X139245241Y-77304637D01*
X139479128Y-77460915D01*
X139418486Y-77493329D01*
X139346903Y-77737298D01*
X140160000Y-78550395D01*
X140973097Y-77737298D01*
X140901514Y-77493329D01*
X140837008Y-77462806D01*
X140839727Y-77461680D01*
X141074759Y-77304637D01*
X141274637Y-77104759D01*
X141431680Y-76869727D01*
X141539853Y-76608574D01*
X141595000Y-76331335D01*
X141595000Y-76048665D01*
X141539853Y-75771426D01*
X141431680Y-75510273D01*
X141274637Y-75275241D01*
X141074759Y-75075363D01*
X140842241Y-74920000D01*
X141074759Y-74764637D01*
X141274637Y-74564759D01*
X141431680Y-74329727D01*
X141539853Y-74068574D01*
X141595000Y-73791335D01*
X141595000Y-73508665D01*
X141539853Y-73231426D01*
X141431680Y-72970273D01*
X141274637Y-72735241D01*
X141074759Y-72535363D01*
X140840872Y-72379085D01*
X140901514Y-72346671D01*
X140973097Y-72102702D01*
X140160000Y-71289605D01*
X139346903Y-72102702D01*
X139418486Y-72346671D01*
X139482992Y-72377194D01*
X139480273Y-72378320D01*
X139245241Y-72535363D01*
X139045363Y-72735241D01*
X138888320Y-72970273D01*
X138780147Y-73231426D01*
X138725000Y-73508665D01*
X135380000Y-73508665D01*
X135380000Y-71180512D01*
X138719783Y-71180512D01*
X138761213Y-71460130D01*
X138856397Y-71726292D01*
X138923329Y-71851514D01*
X139167298Y-71923097D01*
X139980395Y-71110000D01*
X140339605Y-71110000D01*
X141152702Y-71923097D01*
X141396671Y-71851514D01*
X141517571Y-71596004D01*
X141586300Y-71321816D01*
X141600217Y-71039488D01*
X141558787Y-70759870D01*
X141463603Y-70493708D01*
X141396671Y-70368486D01*
X141152702Y-70296903D01*
X140339605Y-71110000D01*
X139980395Y-71110000D01*
X139167298Y-70296903D01*
X138923329Y-70368486D01*
X138802429Y-70623996D01*
X138733700Y-70898184D01*
X138719783Y-71180512D01*
X135380000Y-71180512D01*
X135380000Y-65888665D01*
X138725000Y-65888665D01*
X138725000Y-66171335D01*
X138780147Y-66448574D01*
X138888320Y-66709727D01*
X139045363Y-66944759D01*
X139245241Y-67144637D01*
X139477759Y-67300000D01*
X139245241Y-67455363D01*
X139045363Y-67655241D01*
X138888320Y-67890273D01*
X138780147Y-68151426D01*
X138725000Y-68428665D01*
X138725000Y-68711335D01*
X138780147Y-68988574D01*
X138888320Y-69249727D01*
X139045363Y-69484759D01*
X139245241Y-69684637D01*
X139479128Y-69840915D01*
X139418486Y-69873329D01*
X139346903Y-70117298D01*
X140160000Y-70930395D01*
X140973097Y-70117298D01*
X140901514Y-69873329D01*
X140837008Y-69842806D01*
X140839727Y-69841680D01*
X141074759Y-69684637D01*
X141274637Y-69484759D01*
X141431680Y-69249727D01*
X141539853Y-68988574D01*
X141595000Y-68711335D01*
X141595000Y-68428665D01*
X141539853Y-68151426D01*
X141431680Y-67890273D01*
X141274637Y-67655241D01*
X141074759Y-67455363D01*
X140842241Y-67300000D01*
X141074759Y-67144637D01*
X141274637Y-66944759D01*
X141431680Y-66709727D01*
X141539853Y-66448574D01*
X141595000Y-66171335D01*
X141595000Y-65888665D01*
X141539853Y-65611426D01*
X141431680Y-65350273D01*
X141274637Y-65115241D01*
X141074759Y-64915363D01*
X140839727Y-64758320D01*
X140578574Y-64650147D01*
X140301335Y-64595000D01*
X140018665Y-64595000D01*
X139741426Y-64650147D01*
X139480273Y-64758320D01*
X139245241Y-64915363D01*
X139045363Y-65115241D01*
X138888320Y-65350273D01*
X138780147Y-65611426D01*
X138725000Y-65888665D01*
X135380000Y-65888665D01*
X135380000Y-48622285D01*
X149665000Y-48622285D01*
X149665000Y-49377715D01*
X149812377Y-50118628D01*
X150101467Y-50816554D01*
X150521161Y-51444670D01*
X151055330Y-51978839D01*
X151683446Y-52398533D01*
X152381372Y-52687623D01*
X153122285Y-52835000D01*
X153877715Y-52835000D01*
X154618628Y-52687623D01*
X155316554Y-52398533D01*
X155944670Y-51978839D01*
X156478839Y-51444670D01*
X156898533Y-50816554D01*
X157187623Y-50118628D01*
X157335000Y-49377715D01*
X157335000Y-48622285D01*
X157187623Y-47881372D01*
X156898533Y-47183446D01*
X156478839Y-46555330D01*
X155944670Y-46021161D01*
X155316554Y-45601467D01*
X154618628Y-45312377D01*
X153877715Y-45165000D01*
X153122285Y-45165000D01*
X152381372Y-45312377D01*
X151683446Y-45601467D01*
X151055330Y-46021161D01*
X150521161Y-46555330D01*
X150101467Y-47183446D01*
X149812377Y-47881372D01*
X149665000Y-48622285D01*
X135380000Y-48622285D01*
X135380000Y-40319801D01*
X139379802Y-36320000D01*
X146616289Y-36320000D01*
X146660226Y-36363937D01*
X146829744Y-36477205D01*
X147018102Y-36555226D01*
X147218061Y-36595000D01*
X147421939Y-36595000D01*
X147621898Y-36555226D01*
X147810256Y-36477205D01*
X147979774Y-36363937D01*
X148123937Y-36219774D01*
X148237205Y-36050256D01*
X148315226Y-35861898D01*
X148355000Y-35661939D01*
X148355000Y-35458061D01*
X148315226Y-35258102D01*
X148237205Y-35069744D01*
X148123937Y-34900226D01*
X147979774Y-34756063D01*
X147810256Y-34642795D01*
X147621898Y-34564774D01*
X147421939Y-34525000D01*
X147218061Y-34525000D01*
X147018102Y-34564774D01*
X146829744Y-34642795D01*
X146660226Y-34756063D01*
X146616289Y-34800000D01*
X139102322Y-34800000D01*
X139064999Y-34796324D01*
X139027676Y-34800000D01*
X139027667Y-34800000D01*
X138916014Y-34810997D01*
X138772753Y-34854454D01*
X138640724Y-34925026D01*
X138524999Y-35019999D01*
X138501201Y-35048997D01*
X134109003Y-39441196D01*
X134079999Y-39464999D01*
X134024871Y-39532174D01*
X133985026Y-39580724D01*
X133914455Y-39712753D01*
X133914454Y-39712754D01*
X133870997Y-39856015D01*
X133860000Y-39967668D01*
X133860000Y-39967678D01*
X133856324Y-40005000D01*
X133860000Y-40042322D01*
X133860001Y-90736288D01*
X133816063Y-90780226D01*
X133702795Y-90949744D01*
X133624774Y-91138102D01*
X133585000Y-91338061D01*
X121275000Y-91338061D01*
X121275000Y-91288665D01*
X121219853Y-91011426D01*
X121111680Y-90750273D01*
X120954637Y-90515241D01*
X120754759Y-90315363D01*
X120522241Y-90160000D01*
X120754759Y-90004637D01*
X120954637Y-89804759D01*
X121111680Y-89569727D01*
X121219853Y-89308574D01*
X121275000Y-89031335D01*
X121275000Y-88748665D01*
X121219853Y-88471426D01*
X121111680Y-88210273D01*
X120954637Y-87975241D01*
X120754759Y-87775363D01*
X120522241Y-87620000D01*
X120754759Y-87464637D01*
X120954637Y-87264759D01*
X121111680Y-87029727D01*
X121219853Y-86768574D01*
X121275000Y-86491335D01*
X121275000Y-86208665D01*
X121219853Y-85931426D01*
X121111680Y-85670273D01*
X120954637Y-85435241D01*
X120754759Y-85235363D01*
X120520872Y-85079085D01*
X120581514Y-85046671D01*
X120653097Y-84802702D01*
X119840000Y-83989605D01*
X119026903Y-84802702D01*
X119098486Y-85046671D01*
X119162992Y-85077194D01*
X119160273Y-85078320D01*
X118925241Y-85235363D01*
X118725363Y-85435241D01*
X118568320Y-85670273D01*
X118460147Y-85931426D01*
X118405000Y-86208665D01*
X116340006Y-86208665D01*
X116340006Y-83880512D01*
X118399783Y-83880512D01*
X118441213Y-84160130D01*
X118536397Y-84426292D01*
X118603329Y-84551514D01*
X118847298Y-84623097D01*
X119660395Y-83810000D01*
X120019605Y-83810000D01*
X120832702Y-84623097D01*
X121076671Y-84551514D01*
X121197571Y-84296004D01*
X121266300Y-84021816D01*
X121280217Y-83739488D01*
X121238787Y-83459870D01*
X121143603Y-83193708D01*
X121076671Y-83068486D01*
X120832702Y-82996903D01*
X120019605Y-83810000D01*
X119660395Y-83810000D01*
X118847298Y-82996903D01*
X118603329Y-83068486D01*
X118482429Y-83323996D01*
X118413700Y-83598184D01*
X118399783Y-83880512D01*
X116340006Y-83880512D01*
X116340006Y-74353711D01*
X116383943Y-74309774D01*
X116497211Y-74140256D01*
X116575232Y-73951898D01*
X116615006Y-73751939D01*
X116615006Y-73548061D01*
X116607170Y-73508665D01*
X118405000Y-73508665D01*
X118405000Y-73791335D01*
X118460147Y-74068574D01*
X118568320Y-74329727D01*
X118725363Y-74564759D01*
X118925241Y-74764637D01*
X119157759Y-74920000D01*
X118925241Y-75075363D01*
X118725363Y-75275241D01*
X118568320Y-75510273D01*
X118460147Y-75771426D01*
X118405000Y-76048665D01*
X118405000Y-76331335D01*
X118460147Y-76608574D01*
X118568320Y-76869727D01*
X118725363Y-77104759D01*
X118925241Y-77304637D01*
X119157759Y-77460000D01*
X118925241Y-77615363D01*
X118725363Y-77815241D01*
X118568320Y-78050273D01*
X118460147Y-78311426D01*
X118405000Y-78588665D01*
X118405000Y-78871335D01*
X118460147Y-79148574D01*
X118568320Y-79409727D01*
X118725363Y-79644759D01*
X118925241Y-79844637D01*
X119157759Y-80000000D01*
X118925241Y-80155363D01*
X118725363Y-80355241D01*
X118568320Y-80590273D01*
X118460147Y-80851426D01*
X118405000Y-81128665D01*
X118405000Y-81411335D01*
X118460147Y-81688574D01*
X118568320Y-81949727D01*
X118725363Y-82184759D01*
X118925241Y-82384637D01*
X119159128Y-82540915D01*
X119098486Y-82573329D01*
X119026903Y-82817298D01*
X119840000Y-83630395D01*
X120653097Y-82817298D01*
X120581514Y-82573329D01*
X120517008Y-82542806D01*
X120519727Y-82541680D01*
X120754759Y-82384637D01*
X120954637Y-82184759D01*
X121111680Y-81949727D01*
X121219853Y-81688574D01*
X121275000Y-81411335D01*
X121275000Y-81128665D01*
X121219853Y-80851426D01*
X121111680Y-80590273D01*
X120954637Y-80355241D01*
X120754759Y-80155363D01*
X120522241Y-80000000D01*
X120754759Y-79844637D01*
X120954637Y-79644759D01*
X121111680Y-79409727D01*
X121219853Y-79148574D01*
X121275000Y-78871335D01*
X121275000Y-78588665D01*
X121219853Y-78311426D01*
X121111680Y-78050273D01*
X120954637Y-77815241D01*
X120754759Y-77615363D01*
X120522241Y-77460000D01*
X120754759Y-77304637D01*
X120954637Y-77104759D01*
X121111680Y-76869727D01*
X121219853Y-76608574D01*
X121275000Y-76331335D01*
X121275000Y-76048665D01*
X121219853Y-75771426D01*
X121111680Y-75510273D01*
X120954637Y-75275241D01*
X120754759Y-75075363D01*
X120522241Y-74920000D01*
X120754759Y-74764637D01*
X120954637Y-74564759D01*
X121111680Y-74329727D01*
X121219853Y-74068574D01*
X121275000Y-73791335D01*
X121275000Y-73508665D01*
X121219853Y-73231426D01*
X121111680Y-72970273D01*
X120954637Y-72735241D01*
X120754759Y-72535363D01*
X120520872Y-72379085D01*
X120581514Y-72346671D01*
X120653097Y-72102702D01*
X119840000Y-71289605D01*
X119026903Y-72102702D01*
X119098486Y-72346671D01*
X119162992Y-72377194D01*
X119160273Y-72378320D01*
X118925241Y-72535363D01*
X118725363Y-72735241D01*
X118568320Y-72970273D01*
X118460147Y-73231426D01*
X118405000Y-73508665D01*
X116607170Y-73508665D01*
X116575232Y-73348102D01*
X116497211Y-73159744D01*
X116383943Y-72990226D01*
X116239780Y-72846063D01*
X116070262Y-72732795D01*
X115881904Y-72654774D01*
X115681945Y-72615000D01*
X115478067Y-72615000D01*
X115278108Y-72654774D01*
X115089750Y-72732795D01*
X114920232Y-72846063D01*
X114776069Y-72990226D01*
X114662801Y-73159744D01*
X114584780Y-73348102D01*
X114545006Y-73548061D01*
X114545006Y-73751939D01*
X114584780Y-73951898D01*
X114662801Y-74140256D01*
X114776069Y-74309774D01*
X114820006Y-74353711D01*
X114820007Y-168841300D01*
X114766063Y-168895244D01*
X114652795Y-169064762D01*
X114574774Y-169253120D01*
X114535000Y-169453079D01*
X95910000Y-169453079D01*
X95910000Y-98918665D01*
X109055000Y-98918665D01*
X109055000Y-99201335D01*
X109110147Y-99478574D01*
X109218320Y-99739727D01*
X109375363Y-99974759D01*
X109575241Y-100174637D01*
X109810273Y-100331680D01*
X110071426Y-100439853D01*
X110348665Y-100495000D01*
X110631335Y-100495000D01*
X110908574Y-100439853D01*
X111169727Y-100331680D01*
X111404759Y-100174637D01*
X111604637Y-99974759D01*
X111761680Y-99739727D01*
X111869853Y-99478574D01*
X111925000Y-99201335D01*
X111925000Y-98918665D01*
X111869853Y-98641426D01*
X111761680Y-98380273D01*
X111604637Y-98145241D01*
X111404759Y-97945363D01*
X111169727Y-97788320D01*
X110908574Y-97680147D01*
X110631335Y-97625000D01*
X110348665Y-97625000D01*
X110071426Y-97680147D01*
X109810273Y-97788320D01*
X109575241Y-97945363D01*
X109375363Y-98145241D01*
X109218320Y-98380273D01*
X109110147Y-98641426D01*
X109055000Y-98918665D01*
X95910000Y-98918665D01*
X95910000Y-91298665D01*
X109055000Y-91298665D01*
X109055000Y-91581335D01*
X109110147Y-91858574D01*
X109218320Y-92119727D01*
X109375363Y-92354759D01*
X109575241Y-92554637D01*
X109810273Y-92711680D01*
X110071426Y-92819853D01*
X110348665Y-92875000D01*
X110631335Y-92875000D01*
X110908574Y-92819853D01*
X111169727Y-92711680D01*
X111404759Y-92554637D01*
X111604637Y-92354759D01*
X111761680Y-92119727D01*
X111869853Y-91858574D01*
X111925000Y-91581335D01*
X111925000Y-91298665D01*
X111869853Y-91021426D01*
X111761680Y-90760273D01*
X111604637Y-90525241D01*
X111404759Y-90325363D01*
X111169727Y-90168320D01*
X110908574Y-90060147D01*
X110631335Y-90005000D01*
X110348665Y-90005000D01*
X110071426Y-90060147D01*
X109810273Y-90168320D01*
X109575241Y-90325363D01*
X109375363Y-90525241D01*
X109218320Y-90760273D01*
X109110147Y-91021426D01*
X109055000Y-91298665D01*
X95910000Y-91298665D01*
X95910000Y-78622285D01*
X99665000Y-78622285D01*
X99665000Y-79377715D01*
X99812377Y-80118628D01*
X100101467Y-80816554D01*
X100521161Y-81444670D01*
X101055330Y-81978839D01*
X101683446Y-82398533D01*
X102381372Y-82687623D01*
X103122285Y-82835000D01*
X103877715Y-82835000D01*
X104618628Y-82687623D01*
X105316554Y-82398533D01*
X105944670Y-81978839D01*
X106478839Y-81444670D01*
X106898533Y-80816554D01*
X107187623Y-80118628D01*
X107335000Y-79377715D01*
X107335000Y-78622285D01*
X107187623Y-77881372D01*
X106898533Y-77183446D01*
X106478839Y-76555330D01*
X105944670Y-76021161D01*
X105316554Y-75601467D01*
X104618628Y-75312377D01*
X103877715Y-75165000D01*
X103122285Y-75165000D01*
X102381372Y-75312377D01*
X101683446Y-75601467D01*
X101055330Y-76021161D01*
X100521161Y-76555330D01*
X100101467Y-77183446D01*
X99812377Y-77881372D01*
X99665000Y-78622285D01*
X95910000Y-78622285D01*
X95910000Y-71180512D01*
X118399783Y-71180512D01*
X118441213Y-71460130D01*
X118536397Y-71726292D01*
X118603329Y-71851514D01*
X118847298Y-71923097D01*
X119660395Y-71110000D01*
X120019605Y-71110000D01*
X120832702Y-71923097D01*
X121076671Y-71851514D01*
X121197571Y-71596004D01*
X121266300Y-71321816D01*
X121280217Y-71039488D01*
X121238787Y-70759870D01*
X121143603Y-70493708D01*
X121076671Y-70368486D01*
X120832702Y-70296903D01*
X120019605Y-71110000D01*
X119660395Y-71110000D01*
X118847298Y-70296903D01*
X118603329Y-70368486D01*
X118482429Y-70623996D01*
X118413700Y-70898184D01*
X118399783Y-71180512D01*
X95910000Y-71180512D01*
X95910000Y-65888665D01*
X118405000Y-65888665D01*
X118405000Y-66171335D01*
X118460147Y-66448574D01*
X118568320Y-66709727D01*
X118725363Y-66944759D01*
X118925241Y-67144637D01*
X119157759Y-67300000D01*
X118925241Y-67455363D01*
X118725363Y-67655241D01*
X118568320Y-67890273D01*
X118460147Y-68151426D01*
X118405000Y-68428665D01*
X118405000Y-68711335D01*
X118460147Y-68988574D01*
X118568320Y-69249727D01*
X118725363Y-69484759D01*
X118925241Y-69684637D01*
X119159128Y-69840915D01*
X119098486Y-69873329D01*
X119026903Y-70117298D01*
X119840000Y-70930395D01*
X120653097Y-70117298D01*
X120581514Y-69873329D01*
X120517008Y-69842806D01*
X120519727Y-69841680D01*
X120754759Y-69684637D01*
X120954637Y-69484759D01*
X121111680Y-69249727D01*
X121219853Y-68988574D01*
X121275000Y-68711335D01*
X121275000Y-68428665D01*
X121219853Y-68151426D01*
X121111680Y-67890273D01*
X120954637Y-67655241D01*
X120754759Y-67455363D01*
X120522241Y-67300000D01*
X120754759Y-67144637D01*
X120954637Y-66944759D01*
X121111680Y-66709727D01*
X121219853Y-66448574D01*
X121275000Y-66171335D01*
X121275000Y-65888665D01*
X121219853Y-65611426D01*
X121111680Y-65350273D01*
X120954637Y-65115241D01*
X120754759Y-64915363D01*
X120519727Y-64758320D01*
X120258574Y-64650147D01*
X119981335Y-64595000D01*
X119698665Y-64595000D01*
X119421426Y-64650147D01*
X119160273Y-64758320D01*
X118925241Y-64915363D01*
X118725363Y-65115241D01*
X118568320Y-65350273D01*
X118460147Y-65611426D01*
X118405000Y-65888665D01*
X95910000Y-65888665D01*
X95910000Y-48457285D01*
X99665000Y-48457285D01*
X99665000Y-49212715D01*
X99812377Y-49953628D01*
X100101467Y-50651554D01*
X100521161Y-51279670D01*
X101055330Y-51813839D01*
X101683446Y-52233533D01*
X102381372Y-52522623D01*
X103122285Y-52670000D01*
X103877715Y-52670000D01*
X104618628Y-52522623D01*
X105316554Y-52233533D01*
X105944670Y-51813839D01*
X106478839Y-51279670D01*
X106898533Y-50651554D01*
X107187623Y-49953628D01*
X107335000Y-49212715D01*
X107335000Y-48457285D01*
X107187623Y-47716372D01*
X106898533Y-47018446D01*
X106478839Y-46390330D01*
X105944670Y-45856161D01*
X105316554Y-45436467D01*
X104618628Y-45147377D01*
X103877715Y-45000000D01*
X103122285Y-45000000D01*
X102381372Y-45147377D01*
X101683446Y-45436467D01*
X101055330Y-45856161D01*
X100521161Y-46390330D01*
X100101467Y-47018446D01*
X99812377Y-47716372D01*
X99665000Y-48457285D01*
X95910000Y-48457285D01*
X95910000Y-32512702D01*
X112026903Y-32512702D01*
X112098486Y-32756671D01*
X112353996Y-32877571D01*
X112628184Y-32946300D01*
X112910512Y-32960217D01*
X113190130Y-32918787D01*
X113456292Y-32823603D01*
X113581514Y-32756671D01*
X113653097Y-32512702D01*
X112840000Y-31699605D01*
X112026903Y-32512702D01*
X95910000Y-32512702D01*
X95910000Y-31590512D01*
X111399783Y-31590512D01*
X111441213Y-31870130D01*
X111536397Y-32136292D01*
X111603329Y-32261514D01*
X111847298Y-32333097D01*
X112660395Y-31520000D01*
X113019605Y-31520000D01*
X113832702Y-32333097D01*
X113901928Y-32312785D01*
X113901928Y-32320000D01*
X113914188Y-32444482D01*
X113950498Y-32564180D01*
X114009463Y-32674494D01*
X114088815Y-32771185D01*
X114185506Y-32850537D01*
X114295820Y-32909502D01*
X114415518Y-32945812D01*
X114540000Y-32958072D01*
X116140000Y-32958072D01*
X116264482Y-32945812D01*
X116384180Y-32909502D01*
X116494494Y-32850537D01*
X116591185Y-32771185D01*
X116670537Y-32674494D01*
X116729502Y-32564180D01*
X116765812Y-32444482D01*
X116778072Y-32320000D01*
X116778072Y-30720000D01*
X116765812Y-30595518D01*
X116729502Y-30475820D01*
X116683319Y-30389419D01*
X136985000Y-30389419D01*
X136985000Y-30770581D01*
X137059361Y-31144419D01*
X137205225Y-31496566D01*
X137416987Y-31813491D01*
X137686509Y-32083013D01*
X138003434Y-32294775D01*
X138355581Y-32440639D01*
X138729419Y-32515000D01*
X139110581Y-32515000D01*
X139484419Y-32440639D01*
X139836566Y-32294775D01*
X140153491Y-32083013D01*
X140307280Y-31929224D01*
X141950381Y-31929224D01*
X142082317Y-32224312D01*
X142423045Y-32395159D01*
X142790557Y-32496250D01*
X143170729Y-32523701D01*
X143548951Y-32476457D01*
X143910690Y-32356333D01*
X144157683Y-32224312D01*
X144289619Y-31929224D01*
X143120000Y-30759605D01*
X141950381Y-31929224D01*
X140307280Y-31929224D01*
X140423013Y-31813491D01*
X140634775Y-31496566D01*
X140780639Y-31144419D01*
X140855000Y-30770581D01*
X140855000Y-30630729D01*
X141176299Y-30630729D01*
X141223543Y-31008951D01*
X141343667Y-31370690D01*
X141475688Y-31617683D01*
X141770776Y-31749619D01*
X142940395Y-30580000D01*
X143299605Y-30580000D01*
X144469224Y-31749619D01*
X144764312Y-31617683D01*
X144935159Y-31276955D01*
X145036250Y-30909443D01*
X145063701Y-30529271D01*
X145046232Y-30389419D01*
X145385000Y-30389419D01*
X145385000Y-30770581D01*
X145459361Y-31144419D01*
X145605225Y-31496566D01*
X145816987Y-31813491D01*
X146086509Y-32083013D01*
X146403434Y-32294775D01*
X146755581Y-32440639D01*
X147129419Y-32515000D01*
X147510581Y-32515000D01*
X147884419Y-32440639D01*
X148236566Y-32294775D01*
X148553491Y-32083013D01*
X148823013Y-31813491D01*
X149034775Y-31496566D01*
X149180639Y-31144419D01*
X149255000Y-30770581D01*
X149255000Y-30389419D01*
X149180639Y-30015581D01*
X149034775Y-29663434D01*
X148823013Y-29346509D01*
X148553491Y-29076987D01*
X148236566Y-28865225D01*
X147884419Y-28719361D01*
X147510581Y-28645000D01*
X147129419Y-28645000D01*
X146755581Y-28719361D01*
X146403434Y-28865225D01*
X146086509Y-29076987D01*
X145816987Y-29346509D01*
X145605225Y-29663434D01*
X145459361Y-30015581D01*
X145385000Y-30389419D01*
X145046232Y-30389419D01*
X145016457Y-30151049D01*
X144896333Y-29789310D01*
X144764312Y-29542317D01*
X144469224Y-29410381D01*
X143299605Y-30580000D01*
X142940395Y-30580000D01*
X141770776Y-29410381D01*
X141475688Y-29542317D01*
X141304841Y-29883045D01*
X141203750Y-30250557D01*
X141176299Y-30630729D01*
X140855000Y-30630729D01*
X140855000Y-30389419D01*
X140780639Y-30015581D01*
X140634775Y-29663434D01*
X140423013Y-29346509D01*
X140307280Y-29230776D01*
X141950381Y-29230776D01*
X143120000Y-30400395D01*
X144289619Y-29230776D01*
X144157683Y-28935688D01*
X143816955Y-28764841D01*
X143449443Y-28663750D01*
X143069271Y-28636299D01*
X142691049Y-28683543D01*
X142329310Y-28803667D01*
X142082317Y-28935688D01*
X141950381Y-29230776D01*
X140307280Y-29230776D01*
X140153491Y-29076987D01*
X139836566Y-28865225D01*
X139484419Y-28719361D01*
X139110581Y-28645000D01*
X138729419Y-28645000D01*
X138355581Y-28719361D01*
X138003434Y-28865225D01*
X137686509Y-29076987D01*
X137416987Y-29346509D01*
X137205225Y-29663434D01*
X137059361Y-30015581D01*
X136985000Y-30389419D01*
X116683319Y-30389419D01*
X116670537Y-30365506D01*
X116591185Y-30268815D01*
X116494494Y-30189463D01*
X116384180Y-30130498D01*
X116264482Y-30094188D01*
X116140000Y-30081928D01*
X114540000Y-30081928D01*
X114415518Y-30094188D01*
X114295820Y-30130498D01*
X114185506Y-30189463D01*
X114088815Y-30268815D01*
X114009463Y-30365506D01*
X113950498Y-30475820D01*
X113914188Y-30595518D01*
X113901928Y-30720000D01*
X113901928Y-30727215D01*
X113832702Y-30706903D01*
X113019605Y-31520000D01*
X112660395Y-31520000D01*
X111847298Y-30706903D01*
X111603329Y-30778486D01*
X111482429Y-31033996D01*
X111413700Y-31308184D01*
X111399783Y-31590512D01*
X95910000Y-31590512D01*
X95910000Y-26568665D01*
X104115000Y-26568665D01*
X104115000Y-26851335D01*
X104170147Y-27128574D01*
X104278320Y-27389727D01*
X104435363Y-27624759D01*
X104635241Y-27824637D01*
X104867759Y-27980000D01*
X104635241Y-28135363D01*
X104435363Y-28335241D01*
X104278320Y-28570273D01*
X104170147Y-28831426D01*
X104115000Y-29108665D01*
X104115000Y-29391335D01*
X104170147Y-29668574D01*
X104278320Y-29929727D01*
X104435363Y-30164759D01*
X104635241Y-30364637D01*
X104870273Y-30521680D01*
X105131426Y-30629853D01*
X105408665Y-30685000D01*
X105691335Y-30685000D01*
X105968574Y-30629853D01*
X106229727Y-30521680D01*
X106464759Y-30364637D01*
X106586694Y-30242702D01*
X107276903Y-30242702D01*
X107348486Y-30486671D01*
X107603996Y-30607571D01*
X107878184Y-30676300D01*
X108160512Y-30690217D01*
X108440130Y-30648787D01*
X108706292Y-30553603D01*
X108755505Y-30527298D01*
X112026903Y-30527298D01*
X112840000Y-31340395D01*
X113653097Y-30527298D01*
X113581514Y-30283329D01*
X113326004Y-30162429D01*
X113051816Y-30093700D01*
X112769488Y-30079783D01*
X112489870Y-30121213D01*
X112223708Y-30216397D01*
X112098486Y-30283329D01*
X112026903Y-30527298D01*
X108755505Y-30527298D01*
X108831514Y-30486671D01*
X108903097Y-30242702D01*
X108090000Y-29429605D01*
X107276903Y-30242702D01*
X106586694Y-30242702D01*
X106664637Y-30164759D01*
X106820915Y-29930872D01*
X106853329Y-29991514D01*
X107097298Y-30063097D01*
X107910395Y-29250000D01*
X108269605Y-29250000D01*
X109082702Y-30063097D01*
X109326671Y-29991514D01*
X109447571Y-29736004D01*
X109516300Y-29461816D01*
X109530217Y-29179488D01*
X109488787Y-28899870D01*
X109393603Y-28633708D01*
X109360995Y-28572702D01*
X123996903Y-28572702D01*
X124068486Y-28816671D01*
X124323996Y-28937571D01*
X124598184Y-29006300D01*
X124880512Y-29020217D01*
X125160130Y-28978787D01*
X125426292Y-28883603D01*
X125551514Y-28816671D01*
X125623097Y-28572702D01*
X124810000Y-27759605D01*
X123996903Y-28572702D01*
X109360995Y-28572702D01*
X109326671Y-28508486D01*
X109082702Y-28436903D01*
X108269605Y-29250000D01*
X107910395Y-29250000D01*
X107097298Y-28436903D01*
X106853329Y-28508486D01*
X106822806Y-28572992D01*
X106821680Y-28570273D01*
X106664637Y-28335241D01*
X106464759Y-28135363D01*
X106232241Y-27980000D01*
X106464759Y-27824637D01*
X106586694Y-27702702D01*
X107276903Y-27702702D01*
X107348486Y-27946671D01*
X107414636Y-27977971D01*
X107348486Y-28013329D01*
X107276903Y-28257298D01*
X108090000Y-29070395D01*
X108903097Y-28257298D01*
X108831514Y-28013329D01*
X108765364Y-27982029D01*
X108831514Y-27946671D01*
X108903097Y-27702702D01*
X108850907Y-27650512D01*
X123369783Y-27650512D01*
X123411213Y-27930130D01*
X123506397Y-28196292D01*
X123573329Y-28321514D01*
X123817298Y-28393097D01*
X124630395Y-27580000D01*
X124989605Y-27580000D01*
X125802702Y-28393097D01*
X126046671Y-28321514D01*
X126167571Y-28066004D01*
X126236300Y-27791816D01*
X126250217Y-27509488D01*
X126208787Y-27229870D01*
X126113603Y-26963708D01*
X126046671Y-26838486D01*
X125802702Y-26766903D01*
X124989605Y-27580000D01*
X124630395Y-27580000D01*
X123817298Y-26766903D01*
X123573329Y-26838486D01*
X123452429Y-27093996D01*
X123383700Y-27368184D01*
X123369783Y-27650512D01*
X108850907Y-27650512D01*
X108090000Y-26889605D01*
X107276903Y-27702702D01*
X106586694Y-27702702D01*
X106664637Y-27624759D01*
X106820915Y-27390872D01*
X106853329Y-27451514D01*
X107097298Y-27523097D01*
X107910395Y-26710000D01*
X108269605Y-26710000D01*
X109082702Y-27523097D01*
X109326671Y-27451514D01*
X109447571Y-27196004D01*
X109516300Y-26921816D01*
X109530217Y-26639488D01*
X109488787Y-26359870D01*
X109393603Y-26093708D01*
X109391622Y-26090000D01*
X111209428Y-26090000D01*
X111221688Y-26214482D01*
X111257998Y-26334180D01*
X111316963Y-26444494D01*
X111396315Y-26541185D01*
X111493006Y-26620537D01*
X111603320Y-26679502D01*
X111723018Y-26715812D01*
X111847500Y-26728072D01*
X112514250Y-26725000D01*
X112673000Y-26566250D01*
X112673000Y-25217000D01*
X111371250Y-25217000D01*
X111212500Y-25375750D01*
X111209428Y-26090000D01*
X109391622Y-26090000D01*
X109326671Y-25968486D01*
X109082702Y-25896903D01*
X108269605Y-26710000D01*
X107910395Y-26710000D01*
X107097298Y-25896903D01*
X106853329Y-25968486D01*
X106822806Y-26032992D01*
X106821680Y-26030273D01*
X106664637Y-25795241D01*
X106586694Y-25717298D01*
X107276903Y-25717298D01*
X108090000Y-26530395D01*
X108903097Y-25717298D01*
X108831514Y-25473329D01*
X108576004Y-25352429D01*
X108301816Y-25283700D01*
X108019488Y-25269783D01*
X107739870Y-25311213D01*
X107473708Y-25406397D01*
X107348486Y-25473329D01*
X107276903Y-25717298D01*
X106586694Y-25717298D01*
X106464759Y-25595363D01*
X106229727Y-25438320D01*
X105968574Y-25330147D01*
X105691335Y-25275000D01*
X105408665Y-25275000D01*
X105131426Y-25330147D01*
X104870273Y-25438320D01*
X104635241Y-25595363D01*
X104435363Y-25795241D01*
X104278320Y-26030273D01*
X104170147Y-26291426D01*
X104115000Y-26568665D01*
X95910000Y-26568665D01*
X95910000Y-24090000D01*
X111209428Y-24090000D01*
X111212500Y-24804250D01*
X111371250Y-24963000D01*
X112673000Y-24963000D01*
X112673000Y-23613750D01*
X112927000Y-23613750D01*
X112927000Y-24963000D01*
X112947000Y-24963000D01*
X112947000Y-25217000D01*
X112927000Y-25217000D01*
X112927000Y-26566250D01*
X113085750Y-26725000D01*
X113752500Y-26728072D01*
X113876982Y-26715812D01*
X113996680Y-26679502D01*
X114106994Y-26620537D01*
X114203685Y-26541185D01*
X114283037Y-26444494D01*
X114327905Y-26360553D01*
X114453766Y-26463845D01*
X114729552Y-26611255D01*
X115028797Y-26702030D01*
X115340000Y-26732681D01*
X115651204Y-26702030D01*
X115950449Y-26611255D01*
X116226235Y-26463845D01*
X116467963Y-26265463D01*
X116610000Y-26092391D01*
X116752037Y-26265463D01*
X116993766Y-26463845D01*
X117269552Y-26611255D01*
X117568797Y-26702030D01*
X117880000Y-26732681D01*
X118191204Y-26702030D01*
X118490449Y-26611255D01*
X118766235Y-26463845D01*
X119007963Y-26265463D01*
X119206345Y-26023734D01*
X119353755Y-25747948D01*
X119444530Y-25448703D01*
X119467500Y-25215485D01*
X119467500Y-24964514D01*
X119444530Y-24731296D01*
X119353755Y-24432051D01*
X119272483Y-24280000D01*
X123371928Y-24280000D01*
X123371928Y-25880000D01*
X123384188Y-26004482D01*
X123420498Y-26124180D01*
X123479463Y-26234494D01*
X123558815Y-26331185D01*
X123655506Y-26410537D01*
X123765820Y-26469502D01*
X123885518Y-26505812D01*
X124010000Y-26518072D01*
X124017215Y-26518072D01*
X123996903Y-26587298D01*
X124810000Y-27400395D01*
X125623097Y-26587298D01*
X125602785Y-26518072D01*
X125610000Y-26518072D01*
X125734482Y-26505812D01*
X125854180Y-26469502D01*
X125964494Y-26410537D01*
X126061185Y-26331185D01*
X126140537Y-26234494D01*
X126199502Y-26124180D01*
X126235812Y-26004482D01*
X126248072Y-25880000D01*
X126248072Y-24889419D01*
X136985000Y-24889419D01*
X136985000Y-25270581D01*
X137059361Y-25644419D01*
X137205225Y-25996566D01*
X137416987Y-26313491D01*
X137686509Y-26583013D01*
X138003434Y-26794775D01*
X138355581Y-26940639D01*
X138729419Y-27015000D01*
X139110581Y-27015000D01*
X139484419Y-26940639D01*
X139836566Y-26794775D01*
X140153491Y-26583013D01*
X140307280Y-26429224D01*
X141950381Y-26429224D01*
X142082317Y-26724312D01*
X142423045Y-26895159D01*
X142790557Y-26996250D01*
X143170729Y-27023701D01*
X143548951Y-26976457D01*
X143910690Y-26856333D01*
X144157683Y-26724312D01*
X144289619Y-26429224D01*
X143120000Y-25259605D01*
X141950381Y-26429224D01*
X140307280Y-26429224D01*
X140423013Y-26313491D01*
X140634775Y-25996566D01*
X140780639Y-25644419D01*
X140855000Y-25270581D01*
X140855000Y-25130729D01*
X141176299Y-25130729D01*
X141223543Y-25508951D01*
X141343667Y-25870690D01*
X141475688Y-26117683D01*
X141770776Y-26249619D01*
X142940395Y-25080000D01*
X143299605Y-25080000D01*
X144469224Y-26249619D01*
X144764312Y-26117683D01*
X144935159Y-25776955D01*
X145036250Y-25409443D01*
X145063701Y-25029271D01*
X145046232Y-24889419D01*
X145385000Y-24889419D01*
X145385000Y-25270581D01*
X145459361Y-25644419D01*
X145605225Y-25996566D01*
X145816987Y-26313491D01*
X146086509Y-26583013D01*
X146403434Y-26794775D01*
X146755581Y-26940639D01*
X147129419Y-27015000D01*
X147510581Y-27015000D01*
X147884419Y-26940639D01*
X148236566Y-26794775D01*
X148553491Y-26583013D01*
X148567839Y-26568665D01*
X149175000Y-26568665D01*
X149175000Y-26851335D01*
X149230147Y-27128574D01*
X149338320Y-27389727D01*
X149495363Y-27624759D01*
X149695241Y-27824637D01*
X149927759Y-27980000D01*
X149695241Y-28135363D01*
X149495363Y-28335241D01*
X149338320Y-28570273D01*
X149230147Y-28831426D01*
X149175000Y-29108665D01*
X149175000Y-29391335D01*
X149230147Y-29668574D01*
X149338320Y-29929727D01*
X149495363Y-30164759D01*
X149695241Y-30364637D01*
X149930273Y-30521680D01*
X150191426Y-30629853D01*
X150468665Y-30685000D01*
X150751335Y-30685000D01*
X151028574Y-30629853D01*
X151289727Y-30521680D01*
X151524759Y-30364637D01*
X151646694Y-30242702D01*
X152336903Y-30242702D01*
X152408486Y-30486671D01*
X152663996Y-30607571D01*
X152938184Y-30676300D01*
X153220512Y-30690217D01*
X153500130Y-30648787D01*
X153766292Y-30553603D01*
X153891514Y-30486671D01*
X153963097Y-30242702D01*
X153150000Y-29429605D01*
X152336903Y-30242702D01*
X151646694Y-30242702D01*
X151724637Y-30164759D01*
X151880915Y-29930872D01*
X151913329Y-29991514D01*
X152157298Y-30063097D01*
X152970395Y-29250000D01*
X153329605Y-29250000D01*
X154142702Y-30063097D01*
X154386671Y-29991514D01*
X154507571Y-29736004D01*
X154576300Y-29461816D01*
X154590217Y-29179488D01*
X154548787Y-28899870D01*
X154453603Y-28633708D01*
X154386671Y-28508486D01*
X154142702Y-28436903D01*
X153329605Y-29250000D01*
X152970395Y-29250000D01*
X152157298Y-28436903D01*
X151913329Y-28508486D01*
X151882806Y-28572992D01*
X151881680Y-28570273D01*
X151724637Y-28335241D01*
X151524759Y-28135363D01*
X151292241Y-27980000D01*
X151524759Y-27824637D01*
X151646694Y-27702702D01*
X152336903Y-27702702D01*
X152408486Y-27946671D01*
X152474636Y-27977971D01*
X152408486Y-28013329D01*
X152336903Y-28257298D01*
X153150000Y-29070395D01*
X153963097Y-28257298D01*
X153891514Y-28013329D01*
X153825364Y-27982029D01*
X153891514Y-27946671D01*
X153963097Y-27702702D01*
X153150000Y-26889605D01*
X152336903Y-27702702D01*
X151646694Y-27702702D01*
X151724637Y-27624759D01*
X151880915Y-27390872D01*
X151913329Y-27451514D01*
X152157298Y-27523097D01*
X152970395Y-26710000D01*
X153329605Y-26710000D01*
X154142702Y-27523097D01*
X154386671Y-27451514D01*
X154507571Y-27196004D01*
X154576300Y-26921816D01*
X154590217Y-26639488D01*
X154548787Y-26359870D01*
X154453603Y-26093708D01*
X154386671Y-25968486D01*
X154142702Y-25896903D01*
X153329605Y-26710000D01*
X152970395Y-26710000D01*
X152157298Y-25896903D01*
X151913329Y-25968486D01*
X151882806Y-26032992D01*
X151881680Y-26030273D01*
X151724637Y-25795241D01*
X151646694Y-25717298D01*
X152336903Y-25717298D01*
X153150000Y-26530395D01*
X153963097Y-25717298D01*
X153891514Y-25473329D01*
X153636004Y-25352429D01*
X153361816Y-25283700D01*
X153079488Y-25269783D01*
X152799870Y-25311213D01*
X152533708Y-25406397D01*
X152408486Y-25473329D01*
X152336903Y-25717298D01*
X151646694Y-25717298D01*
X151524759Y-25595363D01*
X151289727Y-25438320D01*
X151028574Y-25330147D01*
X150751335Y-25275000D01*
X150468665Y-25275000D01*
X150191426Y-25330147D01*
X149930273Y-25438320D01*
X149695241Y-25595363D01*
X149495363Y-25795241D01*
X149338320Y-26030273D01*
X149230147Y-26291426D01*
X149175000Y-26568665D01*
X148567839Y-26568665D01*
X148823013Y-26313491D01*
X149034775Y-25996566D01*
X149180639Y-25644419D01*
X149255000Y-25270581D01*
X149255000Y-24889419D01*
X149180639Y-24515581D01*
X149034775Y-24163434D01*
X148823013Y-23846509D01*
X148553491Y-23576987D01*
X148236566Y-23365225D01*
X147884419Y-23219361D01*
X147510581Y-23145000D01*
X147129419Y-23145000D01*
X146755581Y-23219361D01*
X146403434Y-23365225D01*
X146086509Y-23576987D01*
X145816987Y-23846509D01*
X145605225Y-24163434D01*
X145459361Y-24515581D01*
X145385000Y-24889419D01*
X145046232Y-24889419D01*
X145016457Y-24651049D01*
X144896333Y-24289310D01*
X144764312Y-24042317D01*
X144469224Y-23910381D01*
X143299605Y-25080000D01*
X142940395Y-25080000D01*
X141770776Y-23910381D01*
X141475688Y-24042317D01*
X141304841Y-24383045D01*
X141203750Y-24750557D01*
X141176299Y-25130729D01*
X140855000Y-25130729D01*
X140855000Y-24889419D01*
X140780639Y-24515581D01*
X140634775Y-24163434D01*
X140423013Y-23846509D01*
X140307280Y-23730776D01*
X141950381Y-23730776D01*
X143120000Y-24900395D01*
X144289619Y-23730776D01*
X144157683Y-23435688D01*
X143816955Y-23264841D01*
X143449443Y-23163750D01*
X143069271Y-23136299D01*
X142691049Y-23183543D01*
X142329310Y-23303667D01*
X142082317Y-23435688D01*
X141950381Y-23730776D01*
X140307280Y-23730776D01*
X140153491Y-23576987D01*
X139836566Y-23365225D01*
X139484419Y-23219361D01*
X139110581Y-23145000D01*
X138729419Y-23145000D01*
X138355581Y-23219361D01*
X138003434Y-23365225D01*
X137686509Y-23576987D01*
X137416987Y-23846509D01*
X137205225Y-24163434D01*
X137059361Y-24515581D01*
X136985000Y-24889419D01*
X126248072Y-24889419D01*
X126248072Y-24280000D01*
X126235812Y-24155518D01*
X126199502Y-24035820D01*
X126140537Y-23925506D01*
X126061185Y-23828815D01*
X125964494Y-23749463D01*
X125854180Y-23690498D01*
X125734482Y-23654188D01*
X125610000Y-23641928D01*
X124010000Y-23641928D01*
X123885518Y-23654188D01*
X123765820Y-23690498D01*
X123655506Y-23749463D01*
X123558815Y-23828815D01*
X123479463Y-23925506D01*
X123420498Y-24035820D01*
X123384188Y-24155518D01*
X123371928Y-24280000D01*
X119272483Y-24280000D01*
X119206345Y-24156265D01*
X119007963Y-23914537D01*
X118766234Y-23716155D01*
X118490448Y-23568745D01*
X118191203Y-23477970D01*
X117880000Y-23447319D01*
X117568796Y-23477970D01*
X117269551Y-23568745D01*
X116993765Y-23716155D01*
X116752037Y-23914537D01*
X116610000Y-24087609D01*
X116467963Y-23914537D01*
X116226234Y-23716155D01*
X115950448Y-23568745D01*
X115651203Y-23477970D01*
X115340000Y-23447319D01*
X115028796Y-23477970D01*
X114729551Y-23568745D01*
X114453765Y-23716155D01*
X114327905Y-23819446D01*
X114283037Y-23735506D01*
X114203685Y-23638815D01*
X114106994Y-23559463D01*
X113996680Y-23500498D01*
X113876982Y-23464188D01*
X113752500Y-23451928D01*
X113085750Y-23455000D01*
X112927000Y-23613750D01*
X112673000Y-23613750D01*
X112514250Y-23455000D01*
X111847500Y-23451928D01*
X111723018Y-23464188D01*
X111603320Y-23500498D01*
X111493006Y-23559463D01*
X111396315Y-23638815D01*
X111316963Y-23735506D01*
X111257998Y-23845820D01*
X111221688Y-23965518D01*
X111209428Y-24090000D01*
X95910000Y-24090000D01*
X95910000Y-17569721D01*
X136785000Y-17569721D01*
X136785000Y-17990279D01*
X136867047Y-18402756D01*
X137027988Y-18791302D01*
X137261637Y-19140983D01*
X137559017Y-19438363D01*
X137908698Y-19672012D01*
X138297244Y-19832953D01*
X138709721Y-19915000D01*
X139130279Y-19915000D01*
X139542756Y-19832953D01*
X139931302Y-19672012D01*
X140280983Y-19438363D01*
X140578363Y-19140983D01*
X140812012Y-18791302D01*
X140972953Y-18402756D01*
X141055000Y-17990279D01*
X141055000Y-17569721D01*
X145185000Y-17569721D01*
X145185000Y-17990279D01*
X145267047Y-18402756D01*
X145427988Y-18791302D01*
X145661637Y-19140983D01*
X145959017Y-19438363D01*
X146308698Y-19672012D01*
X146697244Y-19832953D01*
X147109721Y-19915000D01*
X147530279Y-19915000D01*
X147942756Y-19832953D01*
X148331302Y-19672012D01*
X148680983Y-19438363D01*
X148978363Y-19140983D01*
X149212012Y-18791302D01*
X149372953Y-18402756D01*
X149455000Y-17990279D01*
X149455000Y-17569721D01*
X149372953Y-17157244D01*
X149212012Y-16768698D01*
X148978363Y-16419017D01*
X148680983Y-16121637D01*
X148331302Y-15887988D01*
X147942756Y-15727047D01*
X147530279Y-15645000D01*
X147109721Y-15645000D01*
X146697244Y-15727047D01*
X146308698Y-15887988D01*
X145959017Y-16121637D01*
X145661637Y-16419017D01*
X145427988Y-16768698D01*
X145267047Y-17157244D01*
X145185000Y-17569721D01*
X141055000Y-17569721D01*
X140972953Y-17157244D01*
X140812012Y-16768698D01*
X140578363Y-16419017D01*
X140280983Y-16121637D01*
X139931302Y-15887988D01*
X139542756Y-15727047D01*
X139130279Y-15645000D01*
X138709721Y-15645000D01*
X138297244Y-15727047D01*
X137908698Y-15887988D01*
X137559017Y-16121637D01*
X137261637Y-16419017D01*
X137027988Y-16768698D01*
X136867047Y-17157244D01*
X136785000Y-17569721D01*
X95910000Y-17569721D01*
X95910000Y-14630000D01*
X160630001Y-14630000D01*
X160630000Y-188570000D01*
G37*
X160630000Y-188570000D02*
X95910000Y-188570000D01*
X95910000Y-169453079D01*
X114535000Y-169453079D01*
X114535000Y-169656957D01*
X114574774Y-169856916D01*
X114652795Y-170045274D01*
X114766063Y-170214792D01*
X114910226Y-170358955D01*
X115079744Y-170472223D01*
X115268102Y-170550244D01*
X115468061Y-170590018D01*
X115671939Y-170590018D01*
X115871898Y-170550244D01*
X116060256Y-170472223D01*
X116229774Y-170358955D01*
X116373937Y-170214792D01*
X116487205Y-170045274D01*
X116565226Y-169856916D01*
X116605000Y-169656957D01*
X116605000Y-169453079D01*
X116565226Y-169253120D01*
X116487205Y-169064762D01*
X116373937Y-168895244D01*
X116340006Y-168861313D01*
X116340006Y-94962702D01*
X119026903Y-94962702D01*
X119098486Y-95206671D01*
X119353996Y-95327571D01*
X119628184Y-95396300D01*
X119910512Y-95410217D01*
X120190130Y-95368787D01*
X120456292Y-95273603D01*
X120581514Y-95206671D01*
X120653097Y-94962702D01*
X139346903Y-94962702D01*
X139418486Y-95206671D01*
X139673996Y-95327571D01*
X139948184Y-95396300D01*
X140230512Y-95410217D01*
X140510130Y-95368787D01*
X140776292Y-95273603D01*
X140901514Y-95206671D01*
X140973097Y-94962702D01*
X140160000Y-94149605D01*
X139346903Y-94962702D01*
X120653097Y-94962702D01*
X119840000Y-94149605D01*
X119026903Y-94962702D01*
X116340006Y-94962702D01*
X116340006Y-94040512D01*
X118399783Y-94040512D01*
X118441213Y-94320130D01*
X118536397Y-94586292D01*
X118603329Y-94711514D01*
X118847298Y-94783097D01*
X119660395Y-93970000D01*
X120019605Y-93970000D01*
X120832702Y-94783097D01*
X121076671Y-94711514D01*
X121197571Y-94456004D01*
X121266300Y-94181816D01*
X121273265Y-94040512D01*
X138719783Y-94040512D01*
X138761213Y-94320130D01*
X138856397Y-94586292D01*
X138923329Y-94711514D01*
X139167298Y-94783097D01*
X139980395Y-93970000D01*
X140339605Y-93970000D01*
X141152702Y-94783097D01*
X141396671Y-94711514D01*
X141517571Y-94456004D01*
X141586300Y-94181816D01*
X141600217Y-93899488D01*
X141558787Y-93619870D01*
X141463603Y-93353708D01*
X141396671Y-93228486D01*
X141152702Y-93156903D01*
X140339605Y-93970000D01*
X139980395Y-93970000D01*
X139167298Y-93156903D01*
X138923329Y-93228486D01*
X138802429Y-93483996D01*
X138733700Y-93758184D01*
X138719783Y-94040512D01*
X121273265Y-94040512D01*
X121280217Y-93899488D01*
X121238787Y-93619870D01*
X121143603Y-93353708D01*
X121076671Y-93228486D01*
X120832702Y-93156903D01*
X120019605Y-93970000D01*
X119660395Y-93970000D01*
X118847298Y-93156903D01*
X118603329Y-93228486D01*
X118482429Y-93483996D01*
X118413700Y-93758184D01*
X118399783Y-94040512D01*
X116340006Y-94040512D01*
X116340006Y-86208665D01*
X118405000Y-86208665D01*
X118405000Y-86491335D01*
X118460147Y-86768574D01*
X118568320Y-87029727D01*
X118725363Y-87264759D01*
X118925241Y-87464637D01*
X119157759Y-87620000D01*
X118925241Y-87775363D01*
X118725363Y-87975241D01*
X118568320Y-88210273D01*
X118460147Y-88471426D01*
X118405000Y-88748665D01*
X118405000Y-89031335D01*
X118460147Y-89308574D01*
X118568320Y-89569727D01*
X118725363Y-89804759D01*
X118925241Y-90004637D01*
X119157759Y-90160000D01*
X118925241Y-90315363D01*
X118725363Y-90515241D01*
X118568320Y-90750273D01*
X118460147Y-91011426D01*
X118405000Y-91288665D01*
X118405000Y-91571335D01*
X118460147Y-91848574D01*
X118568320Y-92109727D01*
X118725363Y-92344759D01*
X118925241Y-92544637D01*
X119159128Y-92700915D01*
X119098486Y-92733329D01*
X119026903Y-92977298D01*
X119840000Y-93790395D01*
X120653097Y-92977298D01*
X120581514Y-92733329D01*
X120517008Y-92702806D01*
X120519727Y-92701680D01*
X120754759Y-92544637D01*
X120954637Y-92344759D01*
X121111680Y-92109727D01*
X121219853Y-91848574D01*
X121275000Y-91571335D01*
X121275000Y-91338061D01*
X133585000Y-91338061D01*
X133585000Y-91541939D01*
X133624774Y-91741898D01*
X133702795Y-91930256D01*
X133816063Y-92099774D01*
X133960226Y-92243937D01*
X134129744Y-92357205D01*
X134318102Y-92435226D01*
X134518061Y-92475000D01*
X134721939Y-92475000D01*
X134921898Y-92435226D01*
X135110256Y-92357205D01*
X135279774Y-92243937D01*
X135423937Y-92099774D01*
X135537205Y-91930256D01*
X135615226Y-91741898D01*
X135655000Y-91541939D01*
X135655000Y-91338061D01*
X135645175Y-91288665D01*
X138725000Y-91288665D01*
X138725000Y-91571335D01*
X138780147Y-91848574D01*
X138888320Y-92109727D01*
X139045363Y-92344759D01*
X139245241Y-92544637D01*
X139479128Y-92700915D01*
X139418486Y-92733329D01*
X139346903Y-92977298D01*
X140160000Y-93790395D01*
X140973097Y-92977298D01*
X140901514Y-92733329D01*
X140837008Y-92702806D01*
X140839727Y-92701680D01*
X141074759Y-92544637D01*
X141274637Y-92344759D01*
X141431680Y-92109727D01*
X141539853Y-91848574D01*
X141595000Y-91571335D01*
X141595000Y-91288665D01*
X141539853Y-91011426D01*
X141431680Y-90750273D01*
X141274637Y-90515241D01*
X141074759Y-90315363D01*
X140840872Y-90159085D01*
X140901514Y-90126671D01*
X140973097Y-89882702D01*
X140160000Y-89069605D01*
X139346903Y-89882702D01*
X139418486Y-90126671D01*
X139482992Y-90157194D01*
X139480273Y-90158320D01*
X139245241Y-90315363D01*
X139045363Y-90515241D01*
X138888320Y-90750273D01*
X138780147Y-91011426D01*
X138725000Y-91288665D01*
X135645175Y-91288665D01*
X135615226Y-91138102D01*
X135537205Y-90949744D01*
X135423937Y-90780226D01*
X135380000Y-90736289D01*
X135380000Y-88960512D01*
X138719783Y-88960512D01*
X138761213Y-89240130D01*
X138856397Y-89506292D01*
X138923329Y-89631514D01*
X139167298Y-89703097D01*
X139980395Y-88890000D01*
X140339605Y-88890000D01*
X141152702Y-89703097D01*
X141396671Y-89631514D01*
X141517571Y-89376004D01*
X141586300Y-89101816D01*
X141600217Y-88819488D01*
X141558787Y-88539870D01*
X141463603Y-88273708D01*
X141396671Y-88148486D01*
X141152702Y-88076903D01*
X140339605Y-88890000D01*
X139980395Y-88890000D01*
X139167298Y-88076903D01*
X138923329Y-88148486D01*
X138802429Y-88403996D01*
X138733700Y-88678184D01*
X138719783Y-88960512D01*
X135380000Y-88960512D01*
X135380000Y-81128665D01*
X138725000Y-81128665D01*
X138725000Y-81411335D01*
X138780147Y-81688574D01*
X138888320Y-81949727D01*
X139045363Y-82184759D01*
X139245241Y-82384637D01*
X139477759Y-82540000D01*
X139245241Y-82695363D01*
X139045363Y-82895241D01*
X138888320Y-83130273D01*
X138780147Y-83391426D01*
X138725000Y-83668665D01*
X138725000Y-83951335D01*
X138780147Y-84228574D01*
X138888320Y-84489727D01*
X139045363Y-84724759D01*
X139245241Y-84924637D01*
X139477759Y-85080000D01*
X139245241Y-85235363D01*
X139045363Y-85435241D01*
X138888320Y-85670273D01*
X138780147Y-85931426D01*
X138725000Y-86208665D01*
X138725000Y-86491335D01*
X138780147Y-86768574D01*
X138888320Y-87029727D01*
X139045363Y-87264759D01*
X139245241Y-87464637D01*
X139479128Y-87620915D01*
X139418486Y-87653329D01*
X139346903Y-87897298D01*
X140160000Y-88710395D01*
X140973097Y-87897298D01*
X140901514Y-87653329D01*
X140837008Y-87622806D01*
X140839727Y-87621680D01*
X141074759Y-87464637D01*
X141274637Y-87264759D01*
X141431680Y-87029727D01*
X141539853Y-86768574D01*
X141595000Y-86491335D01*
X141595000Y-86208665D01*
X141539853Y-85931426D01*
X141431680Y-85670273D01*
X141274637Y-85435241D01*
X141074759Y-85235363D01*
X140842241Y-85080000D01*
X141074759Y-84924637D01*
X141274637Y-84724759D01*
X141431680Y-84489727D01*
X141539853Y-84228574D01*
X141595000Y-83951335D01*
X141595000Y-83668665D01*
X141539853Y-83391426D01*
X141431680Y-83130273D01*
X141274637Y-82895241D01*
X141074759Y-82695363D01*
X140842241Y-82540000D01*
X141074759Y-82384637D01*
X141274637Y-82184759D01*
X141431680Y-81949727D01*
X141539853Y-81688574D01*
X141595000Y-81411335D01*
X141595000Y-81128665D01*
X141539853Y-80851426D01*
X141431680Y-80590273D01*
X141274637Y-80355241D01*
X141074759Y-80155363D01*
X140840872Y-79999085D01*
X140901514Y-79966671D01*
X140973097Y-79722702D01*
X140160000Y-78909605D01*
X139346903Y-79722702D01*
X139418486Y-79966671D01*
X139482992Y-79997194D01*
X139480273Y-79998320D01*
X139245241Y-80155363D01*
X139045363Y-80355241D01*
X138888320Y-80590273D01*
X138780147Y-80851426D01*
X138725000Y-81128665D01*
X135380000Y-81128665D01*
X135380000Y-78800512D01*
X138719783Y-78800512D01*
X138761213Y-79080130D01*
X138856397Y-79346292D01*
X138923329Y-79471514D01*
X139167298Y-79543097D01*
X139980395Y-78730000D01*
X140339605Y-78730000D01*
X141152702Y-79543097D01*
X141396671Y-79471514D01*
X141517571Y-79216004D01*
X141586300Y-78941816D01*
X141600217Y-78659488D01*
X141594705Y-78622285D01*
X149665000Y-78622285D01*
X149665000Y-79377715D01*
X149812377Y-80118628D01*
X150101467Y-80816554D01*
X150521161Y-81444670D01*
X151055330Y-81978839D01*
X151683446Y-82398533D01*
X152381372Y-82687623D01*
X153122285Y-82835000D01*
X153877715Y-82835000D01*
X154618628Y-82687623D01*
X155316554Y-82398533D01*
X155944670Y-81978839D01*
X156478839Y-81444670D01*
X156898533Y-80816554D01*
X157187623Y-80118628D01*
X157335000Y-79377715D01*
X157335000Y-78622285D01*
X157187623Y-77881372D01*
X156898533Y-77183446D01*
X156478839Y-76555330D01*
X155944670Y-76021161D01*
X155316554Y-75601467D01*
X154618628Y-75312377D01*
X153877715Y-75165000D01*
X153122285Y-75165000D01*
X152381372Y-75312377D01*
X151683446Y-75601467D01*
X151055330Y-76021161D01*
X150521161Y-76555330D01*
X150101467Y-77183446D01*
X149812377Y-77881372D01*
X149665000Y-78622285D01*
X141594705Y-78622285D01*
X141558787Y-78379870D01*
X141463603Y-78113708D01*
X141396671Y-77988486D01*
X141152702Y-77916903D01*
X140339605Y-78730000D01*
X139980395Y-78730000D01*
X139167298Y-77916903D01*
X138923329Y-77988486D01*
X138802429Y-78243996D01*
X138733700Y-78518184D01*
X138719783Y-78800512D01*
X135380000Y-78800512D01*
X135380000Y-73508665D01*
X138725000Y-73508665D01*
X138725000Y-73791335D01*
X138780147Y-74068574D01*
X138888320Y-74329727D01*
X139045363Y-74564759D01*
X139245241Y-74764637D01*
X139477759Y-74920000D01*
X139245241Y-75075363D01*
X139045363Y-75275241D01*
X138888320Y-75510273D01*
X138780147Y-75771426D01*
X138725000Y-76048665D01*
X138725000Y-76331335D01*
X138780147Y-76608574D01*
X138888320Y-76869727D01*
X139045363Y-77104759D01*
X139245241Y-77304637D01*
X139479128Y-77460915D01*
X139418486Y-77493329D01*
X139346903Y-77737298D01*
X140160000Y-78550395D01*
X140973097Y-77737298D01*
X140901514Y-77493329D01*
X140837008Y-77462806D01*
X140839727Y-77461680D01*
X141074759Y-77304637D01*
X141274637Y-77104759D01*
X141431680Y-76869727D01*
X141539853Y-76608574D01*
X141595000Y-76331335D01*
X141595000Y-76048665D01*
X141539853Y-75771426D01*
X141431680Y-75510273D01*
X141274637Y-75275241D01*
X141074759Y-75075363D01*
X140842241Y-74920000D01*
X141074759Y-74764637D01*
X141274637Y-74564759D01*
X141431680Y-74329727D01*
X141539853Y-74068574D01*
X141595000Y-73791335D01*
X141595000Y-73508665D01*
X141539853Y-73231426D01*
X141431680Y-72970273D01*
X141274637Y-72735241D01*
X141074759Y-72535363D01*
X140840872Y-72379085D01*
X140901514Y-72346671D01*
X140973097Y-72102702D01*
X140160000Y-71289605D01*
X139346903Y-72102702D01*
X139418486Y-72346671D01*
X139482992Y-72377194D01*
X139480273Y-72378320D01*
X139245241Y-72535363D01*
X139045363Y-72735241D01*
X138888320Y-72970273D01*
X138780147Y-73231426D01*
X138725000Y-73508665D01*
X135380000Y-73508665D01*
X135380000Y-71180512D01*
X138719783Y-71180512D01*
X138761213Y-71460130D01*
X138856397Y-71726292D01*
X138923329Y-71851514D01*
X139167298Y-71923097D01*
X139980395Y-71110000D01*
X140339605Y-71110000D01*
X141152702Y-71923097D01*
X141396671Y-71851514D01*
X141517571Y-71596004D01*
X141586300Y-71321816D01*
X141600217Y-71039488D01*
X141558787Y-70759870D01*
X141463603Y-70493708D01*
X141396671Y-70368486D01*
X141152702Y-70296903D01*
X140339605Y-71110000D01*
X139980395Y-71110000D01*
X139167298Y-70296903D01*
X138923329Y-70368486D01*
X138802429Y-70623996D01*
X138733700Y-70898184D01*
X138719783Y-71180512D01*
X135380000Y-71180512D01*
X135380000Y-65888665D01*
X138725000Y-65888665D01*
X138725000Y-66171335D01*
X138780147Y-66448574D01*
X138888320Y-66709727D01*
X139045363Y-66944759D01*
X139245241Y-67144637D01*
X139477759Y-67300000D01*
X139245241Y-67455363D01*
X139045363Y-67655241D01*
X138888320Y-67890273D01*
X138780147Y-68151426D01*
X138725000Y-68428665D01*
X138725000Y-68711335D01*
X138780147Y-68988574D01*
X138888320Y-69249727D01*
X139045363Y-69484759D01*
X139245241Y-69684637D01*
X139479128Y-69840915D01*
X139418486Y-69873329D01*
X139346903Y-70117298D01*
X140160000Y-70930395D01*
X140973097Y-70117298D01*
X140901514Y-69873329D01*
X140837008Y-69842806D01*
X140839727Y-69841680D01*
X141074759Y-69684637D01*
X141274637Y-69484759D01*
X141431680Y-69249727D01*
X141539853Y-68988574D01*
X141595000Y-68711335D01*
X141595000Y-68428665D01*
X141539853Y-68151426D01*
X141431680Y-67890273D01*
X141274637Y-67655241D01*
X141074759Y-67455363D01*
X140842241Y-67300000D01*
X141074759Y-67144637D01*
X141274637Y-66944759D01*
X141431680Y-66709727D01*
X141539853Y-66448574D01*
X141595000Y-66171335D01*
X141595000Y-65888665D01*
X141539853Y-65611426D01*
X141431680Y-65350273D01*
X141274637Y-65115241D01*
X141074759Y-64915363D01*
X140839727Y-64758320D01*
X140578574Y-64650147D01*
X140301335Y-64595000D01*
X140018665Y-64595000D01*
X139741426Y-64650147D01*
X139480273Y-64758320D01*
X139245241Y-64915363D01*
X139045363Y-65115241D01*
X138888320Y-65350273D01*
X138780147Y-65611426D01*
X138725000Y-65888665D01*
X135380000Y-65888665D01*
X135380000Y-48622285D01*
X149665000Y-48622285D01*
X149665000Y-49377715D01*
X149812377Y-50118628D01*
X150101467Y-50816554D01*
X150521161Y-51444670D01*
X151055330Y-51978839D01*
X151683446Y-52398533D01*
X152381372Y-52687623D01*
X153122285Y-52835000D01*
X153877715Y-52835000D01*
X154618628Y-52687623D01*
X155316554Y-52398533D01*
X155944670Y-51978839D01*
X156478839Y-51444670D01*
X156898533Y-50816554D01*
X157187623Y-50118628D01*
X157335000Y-49377715D01*
X157335000Y-48622285D01*
X157187623Y-47881372D01*
X156898533Y-47183446D01*
X156478839Y-46555330D01*
X155944670Y-46021161D01*
X155316554Y-45601467D01*
X154618628Y-45312377D01*
X153877715Y-45165000D01*
X153122285Y-45165000D01*
X152381372Y-45312377D01*
X151683446Y-45601467D01*
X151055330Y-46021161D01*
X150521161Y-46555330D01*
X150101467Y-47183446D01*
X149812377Y-47881372D01*
X149665000Y-48622285D01*
X135380000Y-48622285D01*
X135380000Y-40319801D01*
X139379802Y-36320000D01*
X146616289Y-36320000D01*
X146660226Y-36363937D01*
X146829744Y-36477205D01*
X147018102Y-36555226D01*
X147218061Y-36595000D01*
X147421939Y-36595000D01*
X147621898Y-36555226D01*
X147810256Y-36477205D01*
X147979774Y-36363937D01*
X148123937Y-36219774D01*
X148237205Y-36050256D01*
X148315226Y-35861898D01*
X148355000Y-35661939D01*
X148355000Y-35458061D01*
X148315226Y-35258102D01*
X148237205Y-35069744D01*
X148123937Y-34900226D01*
X147979774Y-34756063D01*
X147810256Y-34642795D01*
X147621898Y-34564774D01*
X147421939Y-34525000D01*
X147218061Y-34525000D01*
X147018102Y-34564774D01*
X146829744Y-34642795D01*
X146660226Y-34756063D01*
X146616289Y-34800000D01*
X139102322Y-34800000D01*
X139064999Y-34796324D01*
X139027676Y-34800000D01*
X139027667Y-34800000D01*
X138916014Y-34810997D01*
X138772753Y-34854454D01*
X138640724Y-34925026D01*
X138524999Y-35019999D01*
X138501201Y-35048997D01*
X134109003Y-39441196D01*
X134079999Y-39464999D01*
X134024871Y-39532174D01*
X133985026Y-39580724D01*
X133914455Y-39712753D01*
X133914454Y-39712754D01*
X133870997Y-39856015D01*
X133860000Y-39967668D01*
X133860000Y-39967678D01*
X133856324Y-40005000D01*
X133860000Y-40042322D01*
X133860001Y-90736288D01*
X133816063Y-90780226D01*
X133702795Y-90949744D01*
X133624774Y-91138102D01*
X133585000Y-91338061D01*
X121275000Y-91338061D01*
X121275000Y-91288665D01*
X121219853Y-91011426D01*
X121111680Y-90750273D01*
X120954637Y-90515241D01*
X120754759Y-90315363D01*
X120522241Y-90160000D01*
X120754759Y-90004637D01*
X120954637Y-89804759D01*
X121111680Y-89569727D01*
X121219853Y-89308574D01*
X121275000Y-89031335D01*
X121275000Y-88748665D01*
X121219853Y-88471426D01*
X121111680Y-88210273D01*
X120954637Y-87975241D01*
X120754759Y-87775363D01*
X120522241Y-87620000D01*
X120754759Y-87464637D01*
X120954637Y-87264759D01*
X121111680Y-87029727D01*
X121219853Y-86768574D01*
X121275000Y-86491335D01*
X121275000Y-86208665D01*
X121219853Y-85931426D01*
X121111680Y-85670273D01*
X120954637Y-85435241D01*
X120754759Y-85235363D01*
X120520872Y-85079085D01*
X120581514Y-85046671D01*
X120653097Y-84802702D01*
X119840000Y-83989605D01*
X119026903Y-84802702D01*
X119098486Y-85046671D01*
X119162992Y-85077194D01*
X119160273Y-85078320D01*
X118925241Y-85235363D01*
X118725363Y-85435241D01*
X118568320Y-85670273D01*
X118460147Y-85931426D01*
X118405000Y-86208665D01*
X116340006Y-86208665D01*
X116340006Y-83880512D01*
X118399783Y-83880512D01*
X118441213Y-84160130D01*
X118536397Y-84426292D01*
X118603329Y-84551514D01*
X118847298Y-84623097D01*
X119660395Y-83810000D01*
X120019605Y-83810000D01*
X120832702Y-84623097D01*
X121076671Y-84551514D01*
X121197571Y-84296004D01*
X121266300Y-84021816D01*
X121280217Y-83739488D01*
X121238787Y-83459870D01*
X121143603Y-83193708D01*
X121076671Y-83068486D01*
X120832702Y-82996903D01*
X120019605Y-83810000D01*
X119660395Y-83810000D01*
X118847298Y-82996903D01*
X118603329Y-83068486D01*
X118482429Y-83323996D01*
X118413700Y-83598184D01*
X118399783Y-83880512D01*
X116340006Y-83880512D01*
X116340006Y-74353711D01*
X116383943Y-74309774D01*
X116497211Y-74140256D01*
X116575232Y-73951898D01*
X116615006Y-73751939D01*
X116615006Y-73548061D01*
X116607170Y-73508665D01*
X118405000Y-73508665D01*
X118405000Y-73791335D01*
X118460147Y-74068574D01*
X118568320Y-74329727D01*
X118725363Y-74564759D01*
X118925241Y-74764637D01*
X119157759Y-74920000D01*
X118925241Y-75075363D01*
X118725363Y-75275241D01*
X118568320Y-75510273D01*
X118460147Y-75771426D01*
X118405000Y-76048665D01*
X118405000Y-76331335D01*
X118460147Y-76608574D01*
X118568320Y-76869727D01*
X118725363Y-77104759D01*
X118925241Y-77304637D01*
X119157759Y-77460000D01*
X118925241Y-77615363D01*
X118725363Y-77815241D01*
X118568320Y-78050273D01*
X118460147Y-78311426D01*
X118405000Y-78588665D01*
X118405000Y-78871335D01*
X118460147Y-79148574D01*
X118568320Y-79409727D01*
X118725363Y-79644759D01*
X118925241Y-79844637D01*
X119157759Y-80000000D01*
X118925241Y-80155363D01*
X118725363Y-80355241D01*
X118568320Y-80590273D01*
X118460147Y-80851426D01*
X118405000Y-81128665D01*
X118405000Y-81411335D01*
X118460147Y-81688574D01*
X118568320Y-81949727D01*
X118725363Y-82184759D01*
X118925241Y-82384637D01*
X119159128Y-82540915D01*
X119098486Y-82573329D01*
X119026903Y-82817298D01*
X119840000Y-83630395D01*
X120653097Y-82817298D01*
X120581514Y-82573329D01*
X120517008Y-82542806D01*
X120519727Y-82541680D01*
X120754759Y-82384637D01*
X120954637Y-82184759D01*
X121111680Y-81949727D01*
X121219853Y-81688574D01*
X121275000Y-81411335D01*
X121275000Y-81128665D01*
X121219853Y-80851426D01*
X121111680Y-80590273D01*
X120954637Y-80355241D01*
X120754759Y-80155363D01*
X120522241Y-80000000D01*
X120754759Y-79844637D01*
X120954637Y-79644759D01*
X121111680Y-79409727D01*
X121219853Y-79148574D01*
X121275000Y-78871335D01*
X121275000Y-78588665D01*
X121219853Y-78311426D01*
X121111680Y-78050273D01*
X120954637Y-77815241D01*
X120754759Y-77615363D01*
X120522241Y-77460000D01*
X120754759Y-77304637D01*
X120954637Y-77104759D01*
X121111680Y-76869727D01*
X121219853Y-76608574D01*
X121275000Y-76331335D01*
X121275000Y-76048665D01*
X121219853Y-75771426D01*
X121111680Y-75510273D01*
X120954637Y-75275241D01*
X120754759Y-75075363D01*
X120522241Y-74920000D01*
X120754759Y-74764637D01*
X120954637Y-74564759D01*
X121111680Y-74329727D01*
X121219853Y-74068574D01*
X121275000Y-73791335D01*
X121275000Y-73508665D01*
X121219853Y-73231426D01*
X121111680Y-72970273D01*
X120954637Y-72735241D01*
X120754759Y-72535363D01*
X120520872Y-72379085D01*
X120581514Y-72346671D01*
X120653097Y-72102702D01*
X119840000Y-71289605D01*
X119026903Y-72102702D01*
X119098486Y-72346671D01*
X119162992Y-72377194D01*
X119160273Y-72378320D01*
X118925241Y-72535363D01*
X118725363Y-72735241D01*
X118568320Y-72970273D01*
X118460147Y-73231426D01*
X118405000Y-73508665D01*
X116607170Y-73508665D01*
X116575232Y-73348102D01*
X116497211Y-73159744D01*
X116383943Y-72990226D01*
X116239780Y-72846063D01*
X116070262Y-72732795D01*
X115881904Y-72654774D01*
X115681945Y-72615000D01*
X115478067Y-72615000D01*
X115278108Y-72654774D01*
X115089750Y-72732795D01*
X114920232Y-72846063D01*
X114776069Y-72990226D01*
X114662801Y-73159744D01*
X114584780Y-73348102D01*
X114545006Y-73548061D01*
X114545006Y-73751939D01*
X114584780Y-73951898D01*
X114662801Y-74140256D01*
X114776069Y-74309774D01*
X114820006Y-74353711D01*
X114820007Y-168841300D01*
X114766063Y-168895244D01*
X114652795Y-169064762D01*
X114574774Y-169253120D01*
X114535000Y-169453079D01*
X95910000Y-169453079D01*
X95910000Y-98918665D01*
X109055000Y-98918665D01*
X109055000Y-99201335D01*
X109110147Y-99478574D01*
X109218320Y-99739727D01*
X109375363Y-99974759D01*
X109575241Y-100174637D01*
X109810273Y-100331680D01*
X110071426Y-100439853D01*
X110348665Y-100495000D01*
X110631335Y-100495000D01*
X110908574Y-100439853D01*
X111169727Y-100331680D01*
X111404759Y-100174637D01*
X111604637Y-99974759D01*
X111761680Y-99739727D01*
X111869853Y-99478574D01*
X111925000Y-99201335D01*
X111925000Y-98918665D01*
X111869853Y-98641426D01*
X111761680Y-98380273D01*
X111604637Y-98145241D01*
X111404759Y-97945363D01*
X111169727Y-97788320D01*
X110908574Y-97680147D01*
X110631335Y-97625000D01*
X110348665Y-97625000D01*
X110071426Y-97680147D01*
X109810273Y-97788320D01*
X109575241Y-97945363D01*
X109375363Y-98145241D01*
X109218320Y-98380273D01*
X109110147Y-98641426D01*
X109055000Y-98918665D01*
X95910000Y-98918665D01*
X95910000Y-91298665D01*
X109055000Y-91298665D01*
X109055000Y-91581335D01*
X109110147Y-91858574D01*
X109218320Y-92119727D01*
X109375363Y-92354759D01*
X109575241Y-92554637D01*
X109810273Y-92711680D01*
X110071426Y-92819853D01*
X110348665Y-92875000D01*
X110631335Y-92875000D01*
X110908574Y-92819853D01*
X111169727Y-92711680D01*
X111404759Y-92554637D01*
X111604637Y-92354759D01*
X111761680Y-92119727D01*
X111869853Y-91858574D01*
X111925000Y-91581335D01*
X111925000Y-91298665D01*
X111869853Y-91021426D01*
X111761680Y-90760273D01*
X111604637Y-90525241D01*
X111404759Y-90325363D01*
X111169727Y-90168320D01*
X110908574Y-90060147D01*
X110631335Y-90005000D01*
X110348665Y-90005000D01*
X110071426Y-90060147D01*
X109810273Y-90168320D01*
X109575241Y-90325363D01*
X109375363Y-90525241D01*
X109218320Y-90760273D01*
X109110147Y-91021426D01*
X109055000Y-91298665D01*
X95910000Y-91298665D01*
X95910000Y-78622285D01*
X99665000Y-78622285D01*
X99665000Y-79377715D01*
X99812377Y-80118628D01*
X100101467Y-80816554D01*
X100521161Y-81444670D01*
X101055330Y-81978839D01*
X101683446Y-82398533D01*
X102381372Y-82687623D01*
X103122285Y-82835000D01*
X103877715Y-82835000D01*
X104618628Y-82687623D01*
X105316554Y-82398533D01*
X105944670Y-81978839D01*
X106478839Y-81444670D01*
X106898533Y-80816554D01*
X107187623Y-80118628D01*
X107335000Y-79377715D01*
X107335000Y-78622285D01*
X107187623Y-77881372D01*
X106898533Y-77183446D01*
X106478839Y-76555330D01*
X105944670Y-76021161D01*
X105316554Y-75601467D01*
X104618628Y-75312377D01*
X103877715Y-75165000D01*
X103122285Y-75165000D01*
X102381372Y-75312377D01*
X101683446Y-75601467D01*
X101055330Y-76021161D01*
X100521161Y-76555330D01*
X100101467Y-77183446D01*
X99812377Y-77881372D01*
X99665000Y-78622285D01*
X95910000Y-78622285D01*
X95910000Y-71180512D01*
X118399783Y-71180512D01*
X118441213Y-71460130D01*
X118536397Y-71726292D01*
X118603329Y-71851514D01*
X118847298Y-71923097D01*
X119660395Y-71110000D01*
X120019605Y-71110000D01*
X120832702Y-71923097D01*
X121076671Y-71851514D01*
X121197571Y-71596004D01*
X121266300Y-71321816D01*
X121280217Y-71039488D01*
X121238787Y-70759870D01*
X121143603Y-70493708D01*
X121076671Y-70368486D01*
X120832702Y-70296903D01*
X120019605Y-71110000D01*
X119660395Y-71110000D01*
X118847298Y-70296903D01*
X118603329Y-70368486D01*
X118482429Y-70623996D01*
X118413700Y-70898184D01*
X118399783Y-71180512D01*
X95910000Y-71180512D01*
X95910000Y-65888665D01*
X118405000Y-65888665D01*
X118405000Y-66171335D01*
X118460147Y-66448574D01*
X118568320Y-66709727D01*
X118725363Y-66944759D01*
X118925241Y-67144637D01*
X119157759Y-67300000D01*
X118925241Y-67455363D01*
X118725363Y-67655241D01*
X118568320Y-67890273D01*
X118460147Y-68151426D01*
X118405000Y-68428665D01*
X118405000Y-68711335D01*
X118460147Y-68988574D01*
X118568320Y-69249727D01*
X118725363Y-69484759D01*
X118925241Y-69684637D01*
X119159128Y-69840915D01*
X119098486Y-69873329D01*
X119026903Y-70117298D01*
X119840000Y-70930395D01*
X120653097Y-70117298D01*
X120581514Y-69873329D01*
X120517008Y-69842806D01*
X120519727Y-69841680D01*
X120754759Y-69684637D01*
X120954637Y-69484759D01*
X121111680Y-69249727D01*
X121219853Y-68988574D01*
X121275000Y-68711335D01*
X121275000Y-68428665D01*
X121219853Y-68151426D01*
X121111680Y-67890273D01*
X120954637Y-67655241D01*
X120754759Y-67455363D01*
X120522241Y-67300000D01*
X120754759Y-67144637D01*
X120954637Y-66944759D01*
X121111680Y-66709727D01*
X121219853Y-66448574D01*
X121275000Y-66171335D01*
X121275000Y-65888665D01*
X121219853Y-65611426D01*
X121111680Y-65350273D01*
X120954637Y-65115241D01*
X120754759Y-64915363D01*
X120519727Y-64758320D01*
X120258574Y-64650147D01*
X119981335Y-64595000D01*
X119698665Y-64595000D01*
X119421426Y-64650147D01*
X119160273Y-64758320D01*
X118925241Y-64915363D01*
X118725363Y-65115241D01*
X118568320Y-65350273D01*
X118460147Y-65611426D01*
X118405000Y-65888665D01*
X95910000Y-65888665D01*
X95910000Y-48457285D01*
X99665000Y-48457285D01*
X99665000Y-49212715D01*
X99812377Y-49953628D01*
X100101467Y-50651554D01*
X100521161Y-51279670D01*
X101055330Y-51813839D01*
X101683446Y-52233533D01*
X102381372Y-52522623D01*
X103122285Y-52670000D01*
X103877715Y-52670000D01*
X104618628Y-52522623D01*
X105316554Y-52233533D01*
X105944670Y-51813839D01*
X106478839Y-51279670D01*
X106898533Y-50651554D01*
X107187623Y-49953628D01*
X107335000Y-49212715D01*
X107335000Y-48457285D01*
X107187623Y-47716372D01*
X106898533Y-47018446D01*
X106478839Y-46390330D01*
X105944670Y-45856161D01*
X105316554Y-45436467D01*
X104618628Y-45147377D01*
X103877715Y-45000000D01*
X103122285Y-45000000D01*
X102381372Y-45147377D01*
X101683446Y-45436467D01*
X101055330Y-45856161D01*
X100521161Y-46390330D01*
X100101467Y-47018446D01*
X99812377Y-47716372D01*
X99665000Y-48457285D01*
X95910000Y-48457285D01*
X95910000Y-32512702D01*
X112026903Y-32512702D01*
X112098486Y-32756671D01*
X112353996Y-32877571D01*
X112628184Y-32946300D01*
X112910512Y-32960217D01*
X113190130Y-32918787D01*
X113456292Y-32823603D01*
X113581514Y-32756671D01*
X113653097Y-32512702D01*
X112840000Y-31699605D01*
X112026903Y-32512702D01*
X95910000Y-32512702D01*
X95910000Y-31590512D01*
X111399783Y-31590512D01*
X111441213Y-31870130D01*
X111536397Y-32136292D01*
X111603329Y-32261514D01*
X111847298Y-32333097D01*
X112660395Y-31520000D01*
X113019605Y-31520000D01*
X113832702Y-32333097D01*
X113901928Y-32312785D01*
X113901928Y-32320000D01*
X113914188Y-32444482D01*
X113950498Y-32564180D01*
X114009463Y-32674494D01*
X114088815Y-32771185D01*
X114185506Y-32850537D01*
X114295820Y-32909502D01*
X114415518Y-32945812D01*
X114540000Y-32958072D01*
X116140000Y-32958072D01*
X116264482Y-32945812D01*
X116384180Y-32909502D01*
X116494494Y-32850537D01*
X116591185Y-32771185D01*
X116670537Y-32674494D01*
X116729502Y-32564180D01*
X116765812Y-32444482D01*
X116778072Y-32320000D01*
X116778072Y-30720000D01*
X116765812Y-30595518D01*
X116729502Y-30475820D01*
X116683319Y-30389419D01*
X136985000Y-30389419D01*
X136985000Y-30770581D01*
X137059361Y-31144419D01*
X137205225Y-31496566D01*
X137416987Y-31813491D01*
X137686509Y-32083013D01*
X138003434Y-32294775D01*
X138355581Y-32440639D01*
X138729419Y-32515000D01*
X139110581Y-32515000D01*
X139484419Y-32440639D01*
X139836566Y-32294775D01*
X140153491Y-32083013D01*
X140307280Y-31929224D01*
X141950381Y-31929224D01*
X142082317Y-32224312D01*
X142423045Y-32395159D01*
X142790557Y-32496250D01*
X143170729Y-32523701D01*
X143548951Y-32476457D01*
X143910690Y-32356333D01*
X144157683Y-32224312D01*
X144289619Y-31929224D01*
X143120000Y-30759605D01*
X141950381Y-31929224D01*
X140307280Y-31929224D01*
X140423013Y-31813491D01*
X140634775Y-31496566D01*
X140780639Y-31144419D01*
X140855000Y-30770581D01*
X140855000Y-30630729D01*
X141176299Y-30630729D01*
X141223543Y-31008951D01*
X141343667Y-31370690D01*
X141475688Y-31617683D01*
X141770776Y-31749619D01*
X142940395Y-30580000D01*
X143299605Y-30580000D01*
X144469224Y-31749619D01*
X144764312Y-31617683D01*
X144935159Y-31276955D01*
X145036250Y-30909443D01*
X145063701Y-30529271D01*
X145046232Y-30389419D01*
X145385000Y-30389419D01*
X145385000Y-30770581D01*
X145459361Y-31144419D01*
X145605225Y-31496566D01*
X145816987Y-31813491D01*
X146086509Y-32083013D01*
X146403434Y-32294775D01*
X146755581Y-32440639D01*
X147129419Y-32515000D01*
X147510581Y-32515000D01*
X147884419Y-32440639D01*
X148236566Y-32294775D01*
X148553491Y-32083013D01*
X148823013Y-31813491D01*
X149034775Y-31496566D01*
X149180639Y-31144419D01*
X149255000Y-30770581D01*
X149255000Y-30389419D01*
X149180639Y-30015581D01*
X149034775Y-29663434D01*
X148823013Y-29346509D01*
X148553491Y-29076987D01*
X148236566Y-28865225D01*
X147884419Y-28719361D01*
X147510581Y-28645000D01*
X147129419Y-28645000D01*
X146755581Y-28719361D01*
X146403434Y-28865225D01*
X146086509Y-29076987D01*
X145816987Y-29346509D01*
X145605225Y-29663434D01*
X145459361Y-30015581D01*
X145385000Y-30389419D01*
X145046232Y-30389419D01*
X145016457Y-30151049D01*
X144896333Y-29789310D01*
X144764312Y-29542317D01*
X144469224Y-29410381D01*
X143299605Y-30580000D01*
X142940395Y-30580000D01*
X141770776Y-29410381D01*
X141475688Y-29542317D01*
X141304841Y-29883045D01*
X141203750Y-30250557D01*
X141176299Y-30630729D01*
X140855000Y-30630729D01*
X140855000Y-30389419D01*
X140780639Y-30015581D01*
X140634775Y-29663434D01*
X140423013Y-29346509D01*
X140307280Y-29230776D01*
X141950381Y-29230776D01*
X143120000Y-30400395D01*
X144289619Y-29230776D01*
X144157683Y-28935688D01*
X143816955Y-28764841D01*
X143449443Y-28663750D01*
X143069271Y-28636299D01*
X142691049Y-28683543D01*
X142329310Y-28803667D01*
X142082317Y-28935688D01*
X141950381Y-29230776D01*
X140307280Y-29230776D01*
X140153491Y-29076987D01*
X139836566Y-28865225D01*
X139484419Y-28719361D01*
X139110581Y-28645000D01*
X138729419Y-28645000D01*
X138355581Y-28719361D01*
X138003434Y-28865225D01*
X137686509Y-29076987D01*
X137416987Y-29346509D01*
X137205225Y-29663434D01*
X137059361Y-30015581D01*
X136985000Y-30389419D01*
X116683319Y-30389419D01*
X116670537Y-30365506D01*
X116591185Y-30268815D01*
X116494494Y-30189463D01*
X116384180Y-30130498D01*
X116264482Y-30094188D01*
X116140000Y-30081928D01*
X114540000Y-30081928D01*
X114415518Y-30094188D01*
X114295820Y-30130498D01*
X114185506Y-30189463D01*
X114088815Y-30268815D01*
X114009463Y-30365506D01*
X113950498Y-30475820D01*
X113914188Y-30595518D01*
X113901928Y-30720000D01*
X113901928Y-30727215D01*
X113832702Y-30706903D01*
X113019605Y-31520000D01*
X112660395Y-31520000D01*
X111847298Y-30706903D01*
X111603329Y-30778486D01*
X111482429Y-31033996D01*
X111413700Y-31308184D01*
X111399783Y-31590512D01*
X95910000Y-31590512D01*
X95910000Y-26568665D01*
X104115000Y-26568665D01*
X104115000Y-26851335D01*
X104170147Y-27128574D01*
X104278320Y-27389727D01*
X104435363Y-27624759D01*
X104635241Y-27824637D01*
X104867759Y-27980000D01*
X104635241Y-28135363D01*
X104435363Y-28335241D01*
X104278320Y-28570273D01*
X104170147Y-28831426D01*
X104115000Y-29108665D01*
X104115000Y-29391335D01*
X104170147Y-29668574D01*
X104278320Y-29929727D01*
X104435363Y-30164759D01*
X104635241Y-30364637D01*
X104870273Y-30521680D01*
X105131426Y-30629853D01*
X105408665Y-30685000D01*
X105691335Y-30685000D01*
X105968574Y-30629853D01*
X106229727Y-30521680D01*
X106464759Y-30364637D01*
X106586694Y-30242702D01*
X107276903Y-30242702D01*
X107348486Y-30486671D01*
X107603996Y-30607571D01*
X107878184Y-30676300D01*
X108160512Y-30690217D01*
X108440130Y-30648787D01*
X108706292Y-30553603D01*
X108755505Y-30527298D01*
X112026903Y-30527298D01*
X112840000Y-31340395D01*
X113653097Y-30527298D01*
X113581514Y-30283329D01*
X113326004Y-30162429D01*
X113051816Y-30093700D01*
X112769488Y-30079783D01*
X112489870Y-30121213D01*
X112223708Y-30216397D01*
X112098486Y-30283329D01*
X112026903Y-30527298D01*
X108755505Y-30527298D01*
X108831514Y-30486671D01*
X108903097Y-30242702D01*
X108090000Y-29429605D01*
X107276903Y-30242702D01*
X106586694Y-30242702D01*
X106664637Y-30164759D01*
X106820915Y-29930872D01*
X106853329Y-29991514D01*
X107097298Y-30063097D01*
X107910395Y-29250000D01*
X108269605Y-29250000D01*
X109082702Y-30063097D01*
X109326671Y-29991514D01*
X109447571Y-29736004D01*
X109516300Y-29461816D01*
X109530217Y-29179488D01*
X109488787Y-28899870D01*
X109393603Y-28633708D01*
X109360995Y-28572702D01*
X123996903Y-28572702D01*
X124068486Y-28816671D01*
X124323996Y-28937571D01*
X124598184Y-29006300D01*
X124880512Y-29020217D01*
X125160130Y-28978787D01*
X125426292Y-28883603D01*
X125551514Y-28816671D01*
X125623097Y-28572702D01*
X124810000Y-27759605D01*
X123996903Y-28572702D01*
X109360995Y-28572702D01*
X109326671Y-28508486D01*
X109082702Y-28436903D01*
X108269605Y-29250000D01*
X107910395Y-29250000D01*
X107097298Y-28436903D01*
X106853329Y-28508486D01*
X106822806Y-28572992D01*
X106821680Y-28570273D01*
X106664637Y-28335241D01*
X106464759Y-28135363D01*
X106232241Y-27980000D01*
X106464759Y-27824637D01*
X106586694Y-27702702D01*
X107276903Y-27702702D01*
X107348486Y-27946671D01*
X107414636Y-27977971D01*
X107348486Y-28013329D01*
X107276903Y-28257298D01*
X108090000Y-29070395D01*
X108903097Y-28257298D01*
X108831514Y-28013329D01*
X108765364Y-27982029D01*
X108831514Y-27946671D01*
X108903097Y-27702702D01*
X108850907Y-27650512D01*
X123369783Y-27650512D01*
X123411213Y-27930130D01*
X123506397Y-28196292D01*
X123573329Y-28321514D01*
X123817298Y-28393097D01*
X124630395Y-27580000D01*
X124989605Y-27580000D01*
X125802702Y-28393097D01*
X126046671Y-28321514D01*
X126167571Y-28066004D01*
X126236300Y-27791816D01*
X126250217Y-27509488D01*
X126208787Y-27229870D01*
X126113603Y-26963708D01*
X126046671Y-26838486D01*
X125802702Y-26766903D01*
X124989605Y-27580000D01*
X124630395Y-27580000D01*
X123817298Y-26766903D01*
X123573329Y-26838486D01*
X123452429Y-27093996D01*
X123383700Y-27368184D01*
X123369783Y-27650512D01*
X108850907Y-27650512D01*
X108090000Y-26889605D01*
X107276903Y-27702702D01*
X106586694Y-27702702D01*
X106664637Y-27624759D01*
X106820915Y-27390872D01*
X106853329Y-27451514D01*
X107097298Y-27523097D01*
X107910395Y-26710000D01*
X108269605Y-26710000D01*
X109082702Y-27523097D01*
X109326671Y-27451514D01*
X109447571Y-27196004D01*
X109516300Y-26921816D01*
X109530217Y-26639488D01*
X109488787Y-26359870D01*
X109393603Y-26093708D01*
X109391622Y-26090000D01*
X111209428Y-26090000D01*
X111221688Y-26214482D01*
X111257998Y-26334180D01*
X111316963Y-26444494D01*
X111396315Y-26541185D01*
X111493006Y-26620537D01*
X111603320Y-26679502D01*
X111723018Y-26715812D01*
X111847500Y-26728072D01*
X112514250Y-26725000D01*
X112673000Y-26566250D01*
X112673000Y-25217000D01*
X111371250Y-25217000D01*
X111212500Y-25375750D01*
X111209428Y-26090000D01*
X109391622Y-26090000D01*
X109326671Y-25968486D01*
X109082702Y-25896903D01*
X108269605Y-26710000D01*
X107910395Y-26710000D01*
X107097298Y-25896903D01*
X106853329Y-25968486D01*
X106822806Y-26032992D01*
X106821680Y-26030273D01*
X106664637Y-25795241D01*
X106586694Y-25717298D01*
X107276903Y-25717298D01*
X108090000Y-26530395D01*
X108903097Y-25717298D01*
X108831514Y-25473329D01*
X108576004Y-25352429D01*
X108301816Y-25283700D01*
X108019488Y-25269783D01*
X107739870Y-25311213D01*
X107473708Y-25406397D01*
X107348486Y-25473329D01*
X107276903Y-25717298D01*
X106586694Y-25717298D01*
X106464759Y-25595363D01*
X106229727Y-25438320D01*
X105968574Y-25330147D01*
X105691335Y-25275000D01*
X105408665Y-25275000D01*
X105131426Y-25330147D01*
X104870273Y-25438320D01*
X104635241Y-25595363D01*
X104435363Y-25795241D01*
X104278320Y-26030273D01*
X104170147Y-26291426D01*
X104115000Y-26568665D01*
X95910000Y-26568665D01*
X95910000Y-24090000D01*
X111209428Y-24090000D01*
X111212500Y-24804250D01*
X111371250Y-24963000D01*
X112673000Y-24963000D01*
X112673000Y-23613750D01*
X112927000Y-23613750D01*
X112927000Y-24963000D01*
X112947000Y-24963000D01*
X112947000Y-25217000D01*
X112927000Y-25217000D01*
X112927000Y-26566250D01*
X113085750Y-26725000D01*
X113752500Y-26728072D01*
X113876982Y-26715812D01*
X113996680Y-26679502D01*
X114106994Y-26620537D01*
X114203685Y-26541185D01*
X114283037Y-26444494D01*
X114327905Y-26360553D01*
X114453766Y-26463845D01*
X114729552Y-26611255D01*
X115028797Y-26702030D01*
X115340000Y-26732681D01*
X115651204Y-26702030D01*
X115950449Y-26611255D01*
X116226235Y-26463845D01*
X116467963Y-26265463D01*
X116610000Y-26092391D01*
X116752037Y-26265463D01*
X116993766Y-26463845D01*
X117269552Y-26611255D01*
X117568797Y-26702030D01*
X117880000Y-26732681D01*
X118191204Y-26702030D01*
X118490449Y-26611255D01*
X118766235Y-26463845D01*
X119007963Y-26265463D01*
X119206345Y-26023734D01*
X119353755Y-25747948D01*
X119444530Y-25448703D01*
X119467500Y-25215485D01*
X119467500Y-24964514D01*
X119444530Y-24731296D01*
X119353755Y-24432051D01*
X119272483Y-24280000D01*
X123371928Y-24280000D01*
X123371928Y-25880000D01*
X123384188Y-26004482D01*
X123420498Y-26124180D01*
X123479463Y-26234494D01*
X123558815Y-26331185D01*
X123655506Y-26410537D01*
X123765820Y-26469502D01*
X123885518Y-26505812D01*
X124010000Y-26518072D01*
X124017215Y-26518072D01*
X123996903Y-26587298D01*
X124810000Y-27400395D01*
X125623097Y-26587298D01*
X125602785Y-26518072D01*
X125610000Y-26518072D01*
X125734482Y-26505812D01*
X125854180Y-26469502D01*
X125964494Y-26410537D01*
X126061185Y-26331185D01*
X126140537Y-26234494D01*
X126199502Y-26124180D01*
X126235812Y-26004482D01*
X126248072Y-25880000D01*
X126248072Y-24889419D01*
X136985000Y-24889419D01*
X136985000Y-25270581D01*
X137059361Y-25644419D01*
X137205225Y-25996566D01*
X137416987Y-26313491D01*
X137686509Y-26583013D01*
X138003434Y-26794775D01*
X138355581Y-26940639D01*
X138729419Y-27015000D01*
X139110581Y-27015000D01*
X139484419Y-26940639D01*
X139836566Y-26794775D01*
X140153491Y-26583013D01*
X140307280Y-26429224D01*
X141950381Y-26429224D01*
X142082317Y-26724312D01*
X142423045Y-26895159D01*
X142790557Y-26996250D01*
X143170729Y-27023701D01*
X143548951Y-26976457D01*
X143910690Y-26856333D01*
X144157683Y-26724312D01*
X144289619Y-26429224D01*
X143120000Y-25259605D01*
X141950381Y-26429224D01*
X140307280Y-26429224D01*
X140423013Y-26313491D01*
X140634775Y-25996566D01*
X140780639Y-25644419D01*
X140855000Y-25270581D01*
X140855000Y-25130729D01*
X141176299Y-25130729D01*
X141223543Y-25508951D01*
X141343667Y-25870690D01*
X141475688Y-26117683D01*
X141770776Y-26249619D01*
X142940395Y-25080000D01*
X143299605Y-25080000D01*
X144469224Y-26249619D01*
X144764312Y-26117683D01*
X144935159Y-25776955D01*
X145036250Y-25409443D01*
X145063701Y-25029271D01*
X145046232Y-24889419D01*
X145385000Y-24889419D01*
X145385000Y-25270581D01*
X145459361Y-25644419D01*
X145605225Y-25996566D01*
X145816987Y-26313491D01*
X146086509Y-26583013D01*
X146403434Y-26794775D01*
X146755581Y-26940639D01*
X147129419Y-27015000D01*
X147510581Y-27015000D01*
X147884419Y-26940639D01*
X148236566Y-26794775D01*
X148553491Y-26583013D01*
X148567839Y-26568665D01*
X149175000Y-26568665D01*
X149175000Y-26851335D01*
X149230147Y-27128574D01*
X149338320Y-27389727D01*
X149495363Y-27624759D01*
X149695241Y-27824637D01*
X149927759Y-27980000D01*
X149695241Y-28135363D01*
X149495363Y-28335241D01*
X149338320Y-28570273D01*
X149230147Y-28831426D01*
X149175000Y-29108665D01*
X149175000Y-29391335D01*
X149230147Y-29668574D01*
X149338320Y-29929727D01*
X149495363Y-30164759D01*
X149695241Y-30364637D01*
X149930273Y-30521680D01*
X150191426Y-30629853D01*
X150468665Y-30685000D01*
X150751335Y-30685000D01*
X151028574Y-30629853D01*
X151289727Y-30521680D01*
X151524759Y-30364637D01*
X151646694Y-30242702D01*
X152336903Y-30242702D01*
X152408486Y-30486671D01*
X152663996Y-30607571D01*
X152938184Y-30676300D01*
X153220512Y-30690217D01*
X153500130Y-30648787D01*
X153766292Y-30553603D01*
X153891514Y-30486671D01*
X153963097Y-30242702D01*
X153150000Y-29429605D01*
X152336903Y-30242702D01*
X151646694Y-30242702D01*
X151724637Y-30164759D01*
X151880915Y-29930872D01*
X151913329Y-29991514D01*
X152157298Y-30063097D01*
X152970395Y-29250000D01*
X153329605Y-29250000D01*
X154142702Y-30063097D01*
X154386671Y-29991514D01*
X154507571Y-29736004D01*
X154576300Y-29461816D01*
X154590217Y-29179488D01*
X154548787Y-28899870D01*
X154453603Y-28633708D01*
X154386671Y-28508486D01*
X154142702Y-28436903D01*
X153329605Y-29250000D01*
X152970395Y-29250000D01*
X152157298Y-28436903D01*
X151913329Y-28508486D01*
X151882806Y-28572992D01*
X151881680Y-28570273D01*
X151724637Y-28335241D01*
X151524759Y-28135363D01*
X151292241Y-27980000D01*
X151524759Y-27824637D01*
X151646694Y-27702702D01*
X152336903Y-27702702D01*
X152408486Y-27946671D01*
X152474636Y-27977971D01*
X152408486Y-28013329D01*
X152336903Y-28257298D01*
X153150000Y-29070395D01*
X153963097Y-28257298D01*
X153891514Y-28013329D01*
X153825364Y-27982029D01*
X153891514Y-27946671D01*
X153963097Y-27702702D01*
X153150000Y-26889605D01*
X152336903Y-27702702D01*
X151646694Y-27702702D01*
X151724637Y-27624759D01*
X151880915Y-27390872D01*
X151913329Y-27451514D01*
X152157298Y-27523097D01*
X152970395Y-26710000D01*
X153329605Y-26710000D01*
X154142702Y-27523097D01*
X154386671Y-27451514D01*
X154507571Y-27196004D01*
X154576300Y-26921816D01*
X154590217Y-26639488D01*
X154548787Y-26359870D01*
X154453603Y-26093708D01*
X154386671Y-25968486D01*
X154142702Y-25896903D01*
X153329605Y-26710000D01*
X152970395Y-26710000D01*
X152157298Y-25896903D01*
X151913329Y-25968486D01*
X151882806Y-26032992D01*
X151881680Y-26030273D01*
X151724637Y-25795241D01*
X151646694Y-25717298D01*
X152336903Y-25717298D01*
X153150000Y-26530395D01*
X153963097Y-25717298D01*
X153891514Y-25473329D01*
X153636004Y-25352429D01*
X153361816Y-25283700D01*
X153079488Y-25269783D01*
X152799870Y-25311213D01*
X152533708Y-25406397D01*
X152408486Y-25473329D01*
X152336903Y-25717298D01*
X151646694Y-25717298D01*
X151524759Y-25595363D01*
X151289727Y-25438320D01*
X151028574Y-25330147D01*
X150751335Y-25275000D01*
X150468665Y-25275000D01*
X150191426Y-25330147D01*
X149930273Y-25438320D01*
X149695241Y-25595363D01*
X149495363Y-25795241D01*
X149338320Y-26030273D01*
X149230147Y-26291426D01*
X149175000Y-26568665D01*
X148567839Y-26568665D01*
X148823013Y-26313491D01*
X149034775Y-25996566D01*
X149180639Y-25644419D01*
X149255000Y-25270581D01*
X149255000Y-24889419D01*
X149180639Y-24515581D01*
X149034775Y-24163434D01*
X148823013Y-23846509D01*
X148553491Y-23576987D01*
X148236566Y-23365225D01*
X147884419Y-23219361D01*
X147510581Y-23145000D01*
X147129419Y-23145000D01*
X146755581Y-23219361D01*
X146403434Y-23365225D01*
X146086509Y-23576987D01*
X145816987Y-23846509D01*
X145605225Y-24163434D01*
X145459361Y-24515581D01*
X145385000Y-24889419D01*
X145046232Y-24889419D01*
X145016457Y-24651049D01*
X144896333Y-24289310D01*
X144764312Y-24042317D01*
X144469224Y-23910381D01*
X143299605Y-25080000D01*
X142940395Y-25080000D01*
X141770776Y-23910381D01*
X141475688Y-24042317D01*
X141304841Y-24383045D01*
X141203750Y-24750557D01*
X141176299Y-25130729D01*
X140855000Y-25130729D01*
X140855000Y-24889419D01*
X140780639Y-24515581D01*
X140634775Y-24163434D01*
X140423013Y-23846509D01*
X140307280Y-23730776D01*
X141950381Y-23730776D01*
X143120000Y-24900395D01*
X144289619Y-23730776D01*
X144157683Y-23435688D01*
X143816955Y-23264841D01*
X143449443Y-23163750D01*
X143069271Y-23136299D01*
X142691049Y-23183543D01*
X142329310Y-23303667D01*
X142082317Y-23435688D01*
X141950381Y-23730776D01*
X140307280Y-23730776D01*
X140153491Y-23576987D01*
X139836566Y-23365225D01*
X139484419Y-23219361D01*
X139110581Y-23145000D01*
X138729419Y-23145000D01*
X138355581Y-23219361D01*
X138003434Y-23365225D01*
X137686509Y-23576987D01*
X137416987Y-23846509D01*
X137205225Y-24163434D01*
X137059361Y-24515581D01*
X136985000Y-24889419D01*
X126248072Y-24889419D01*
X126248072Y-24280000D01*
X126235812Y-24155518D01*
X126199502Y-24035820D01*
X126140537Y-23925506D01*
X126061185Y-23828815D01*
X125964494Y-23749463D01*
X125854180Y-23690498D01*
X125734482Y-23654188D01*
X125610000Y-23641928D01*
X124010000Y-23641928D01*
X123885518Y-23654188D01*
X123765820Y-23690498D01*
X123655506Y-23749463D01*
X123558815Y-23828815D01*
X123479463Y-23925506D01*
X123420498Y-24035820D01*
X123384188Y-24155518D01*
X123371928Y-24280000D01*
X119272483Y-24280000D01*
X119206345Y-24156265D01*
X119007963Y-23914537D01*
X118766234Y-23716155D01*
X118490448Y-23568745D01*
X118191203Y-23477970D01*
X117880000Y-23447319D01*
X117568796Y-23477970D01*
X117269551Y-23568745D01*
X116993765Y-23716155D01*
X116752037Y-23914537D01*
X116610000Y-24087609D01*
X116467963Y-23914537D01*
X116226234Y-23716155D01*
X115950448Y-23568745D01*
X115651203Y-23477970D01*
X115340000Y-23447319D01*
X115028796Y-23477970D01*
X114729551Y-23568745D01*
X114453765Y-23716155D01*
X114327905Y-23819446D01*
X114283037Y-23735506D01*
X114203685Y-23638815D01*
X114106994Y-23559463D01*
X113996680Y-23500498D01*
X113876982Y-23464188D01*
X113752500Y-23451928D01*
X113085750Y-23455000D01*
X112927000Y-23613750D01*
X112673000Y-23613750D01*
X112514250Y-23455000D01*
X111847500Y-23451928D01*
X111723018Y-23464188D01*
X111603320Y-23500498D01*
X111493006Y-23559463D01*
X111396315Y-23638815D01*
X111316963Y-23735506D01*
X111257998Y-23845820D01*
X111221688Y-23965518D01*
X111209428Y-24090000D01*
X95910000Y-24090000D01*
X95910000Y-17569721D01*
X136785000Y-17569721D01*
X136785000Y-17990279D01*
X136867047Y-18402756D01*
X137027988Y-18791302D01*
X137261637Y-19140983D01*
X137559017Y-19438363D01*
X137908698Y-19672012D01*
X138297244Y-19832953D01*
X138709721Y-19915000D01*
X139130279Y-19915000D01*
X139542756Y-19832953D01*
X139931302Y-19672012D01*
X140280983Y-19438363D01*
X140578363Y-19140983D01*
X140812012Y-18791302D01*
X140972953Y-18402756D01*
X141055000Y-17990279D01*
X141055000Y-17569721D01*
X145185000Y-17569721D01*
X145185000Y-17990279D01*
X145267047Y-18402756D01*
X145427988Y-18791302D01*
X145661637Y-19140983D01*
X145959017Y-19438363D01*
X146308698Y-19672012D01*
X146697244Y-19832953D01*
X147109721Y-19915000D01*
X147530279Y-19915000D01*
X147942756Y-19832953D01*
X148331302Y-19672012D01*
X148680983Y-19438363D01*
X148978363Y-19140983D01*
X149212012Y-18791302D01*
X149372953Y-18402756D01*
X149455000Y-17990279D01*
X149455000Y-17569721D01*
X149372953Y-17157244D01*
X149212012Y-16768698D01*
X148978363Y-16419017D01*
X148680983Y-16121637D01*
X148331302Y-15887988D01*
X147942756Y-15727047D01*
X147530279Y-15645000D01*
X147109721Y-15645000D01*
X146697244Y-15727047D01*
X146308698Y-15887988D01*
X145959017Y-16121637D01*
X145661637Y-16419017D01*
X145427988Y-16768698D01*
X145267047Y-17157244D01*
X145185000Y-17569721D01*
X141055000Y-17569721D01*
X140972953Y-17157244D01*
X140812012Y-16768698D01*
X140578363Y-16419017D01*
X140280983Y-16121637D01*
X139931302Y-15887988D01*
X139542756Y-15727047D01*
X139130279Y-15645000D01*
X138709721Y-15645000D01*
X138297244Y-15727047D01*
X137908698Y-15887988D01*
X137559017Y-16121637D01*
X137261637Y-16419017D01*
X137027988Y-16768698D01*
X136867047Y-17157244D01*
X136785000Y-17569721D01*
X95910000Y-17569721D01*
X95910000Y-14630000D01*
X160630001Y-14630000D01*
X160630000Y-188570000D01*
%TD*%
M02*
