%TF.GenerationSoftware,KiCad,Pcbnew,(5.1.6-0-10_14)*%
%TF.CreationDate,2020-06-11T07:37:50+09:00*%
%TF.ProjectId,QSPIRadiationBoard,51535049-5261-4646-9961-74696f6e426f,rev?*%
%TF.SameCoordinates,Original*%
%TF.FileFunction,Legend,Top*%
%TF.FilePolarity,Positive*%
%FSLAX46Y46*%
G04 Gerber Fmt 4.6, Leading zero omitted, Abs format (unit mm)*
G04 Created by KiCad (PCBNEW (5.1.6-0-10_14)) date 2020-06-11 07:37:50*
%MOMM*%
%LPD*%
G01*
G04 APERTURE LIST*
%ADD10C,0.150000*%
%ADD11C,0.120000*%
G04 APERTURE END LIST*
D10*
X113031904Y-45354761D02*
X113031904Y-43354761D01*
X113698571Y-44783333D01*
X114365238Y-43354761D01*
X114365238Y-45354761D01*
X116174761Y-45354761D02*
X116174761Y-44307142D01*
X116079523Y-44116666D01*
X115889047Y-44021428D01*
X115508095Y-44021428D01*
X115317619Y-44116666D01*
X116174761Y-45259523D02*
X115984285Y-45354761D01*
X115508095Y-45354761D01*
X115317619Y-45259523D01*
X115222380Y-45069047D01*
X115222380Y-44878571D01*
X115317619Y-44688095D01*
X115508095Y-44592857D01*
X115984285Y-44592857D01*
X116174761Y-44497619D01*
X117984285Y-45354761D02*
X117984285Y-43354761D01*
X117984285Y-45259523D02*
X117793809Y-45354761D01*
X117412857Y-45354761D01*
X117222380Y-45259523D01*
X117127142Y-45164285D01*
X117031904Y-44973809D01*
X117031904Y-44402380D01*
X117127142Y-44211904D01*
X117222380Y-44116666D01*
X117412857Y-44021428D01*
X117793809Y-44021428D01*
X117984285Y-44116666D01*
X119698571Y-45259523D02*
X119508095Y-45354761D01*
X119127142Y-45354761D01*
X118936666Y-45259523D01*
X118841428Y-45069047D01*
X118841428Y-44307142D01*
X118936666Y-44116666D01*
X119127142Y-44021428D01*
X119508095Y-44021428D01*
X119698571Y-44116666D01*
X119793809Y-44307142D01*
X119793809Y-44497619D01*
X118841428Y-44688095D01*
X122174761Y-45354761D02*
X122174761Y-43354761D01*
X122174761Y-44116666D02*
X122365238Y-44021428D01*
X122746190Y-44021428D01*
X122936666Y-44116666D01*
X123031904Y-44211904D01*
X123127142Y-44402380D01*
X123127142Y-44973809D01*
X123031904Y-45164285D01*
X122936666Y-45259523D01*
X122746190Y-45354761D01*
X122365238Y-45354761D01*
X122174761Y-45259523D01*
X123793809Y-44021428D02*
X124270000Y-45354761D01*
X124746190Y-44021428D02*
X124270000Y-45354761D01*
X124079523Y-45830952D01*
X123984285Y-45926190D01*
X123793809Y-46021428D01*
X127603333Y-43354761D02*
X127603333Y-44783333D01*
X127508095Y-45069047D01*
X127317619Y-45259523D01*
X127031904Y-45354761D01*
X126841428Y-45354761D01*
X129412857Y-45354761D02*
X129412857Y-44307142D01*
X129317619Y-44116666D01*
X129127142Y-44021428D01*
X128746190Y-44021428D01*
X128555714Y-44116666D01*
X129412857Y-45259523D02*
X129222380Y-45354761D01*
X128746190Y-45354761D01*
X128555714Y-45259523D01*
X128460476Y-45069047D01*
X128460476Y-44878571D01*
X128555714Y-44688095D01*
X128746190Y-44592857D01*
X129222380Y-44592857D01*
X129412857Y-44497619D01*
X131127142Y-45259523D02*
X130936666Y-45354761D01*
X130555714Y-45354761D01*
X130365238Y-45259523D01*
X130270000Y-45069047D01*
X130270000Y-44307142D01*
X130365238Y-44116666D01*
X130555714Y-44021428D01*
X130936666Y-44021428D01*
X131127142Y-44116666D01*
X131222380Y-44307142D01*
X131222380Y-44497619D01*
X130270000Y-44688095D01*
X132079523Y-45354761D02*
X132079523Y-43354761D01*
X132079523Y-44116666D02*
X132270000Y-44021428D01*
X132650952Y-44021428D01*
X132841428Y-44116666D01*
X132936666Y-44211904D01*
X133031904Y-44402380D01*
X133031904Y-44973809D01*
X132936666Y-45164285D01*
X132841428Y-45259523D01*
X132650952Y-45354761D01*
X132270000Y-45354761D01*
X132079523Y-45259523D01*
X134746190Y-45354761D02*
X134746190Y-44307142D01*
X134650952Y-44116666D01*
X134460476Y-44021428D01*
X134079523Y-44021428D01*
X133889047Y-44116666D01*
X134746190Y-45259523D02*
X134555714Y-45354761D01*
X134079523Y-45354761D01*
X133889047Y-45259523D01*
X133793809Y-45069047D01*
X133793809Y-44878571D01*
X133889047Y-44688095D01*
X134079523Y-44592857D01*
X134555714Y-44592857D01*
X134746190Y-44497619D01*
X135698571Y-45354761D02*
X135698571Y-43354761D01*
X135889047Y-44592857D02*
X136460476Y-45354761D01*
X136460476Y-44021428D02*
X135698571Y-44783333D01*
X138841428Y-45354761D02*
X138841428Y-43354761D01*
X139984285Y-45354761D02*
X139127142Y-44211904D01*
X139984285Y-43354761D02*
X138841428Y-44497619D01*
X140841428Y-45354761D02*
X140841428Y-44021428D01*
X140841428Y-43354761D02*
X140746190Y-43450000D01*
X140841428Y-43545238D01*
X140936666Y-43450000D01*
X140841428Y-43354761D01*
X140841428Y-43545238D01*
X141793809Y-45354761D02*
X141793809Y-44021428D01*
X141793809Y-44211904D02*
X141889047Y-44116666D01*
X142079523Y-44021428D01*
X142365238Y-44021428D01*
X142555714Y-44116666D01*
X142650952Y-44307142D01*
X142650952Y-45354761D01*
X142650952Y-44307142D02*
X142746190Y-44116666D01*
X142936666Y-44021428D01*
X143222380Y-44021428D01*
X143412857Y-44116666D01*
X143508095Y-44307142D01*
X143508095Y-45354761D01*
X106793809Y-40465238D02*
X106603333Y-40370000D01*
X106412857Y-40179523D01*
X106127142Y-39893809D01*
X105936666Y-39798571D01*
X105746190Y-39798571D01*
X105841428Y-40274761D02*
X105650952Y-40179523D01*
X105460476Y-39989047D01*
X105365238Y-39608095D01*
X105365238Y-38941428D01*
X105460476Y-38560476D01*
X105650952Y-38370000D01*
X105841428Y-38274761D01*
X106222380Y-38274761D01*
X106412857Y-38370000D01*
X106603333Y-38560476D01*
X106698571Y-38941428D01*
X106698571Y-39608095D01*
X106603333Y-39989047D01*
X106412857Y-40179523D01*
X106222380Y-40274761D01*
X105841428Y-40274761D01*
X107460476Y-40179523D02*
X107746190Y-40274761D01*
X108222380Y-40274761D01*
X108412857Y-40179523D01*
X108508095Y-40084285D01*
X108603333Y-39893809D01*
X108603333Y-39703333D01*
X108508095Y-39512857D01*
X108412857Y-39417619D01*
X108222380Y-39322380D01*
X107841428Y-39227142D01*
X107650952Y-39131904D01*
X107555714Y-39036666D01*
X107460476Y-38846190D01*
X107460476Y-38655714D01*
X107555714Y-38465238D01*
X107650952Y-38370000D01*
X107841428Y-38274761D01*
X108317619Y-38274761D01*
X108603333Y-38370000D01*
X109460476Y-40274761D02*
X109460476Y-38274761D01*
X110222380Y-38274761D01*
X110412857Y-38370000D01*
X110508095Y-38465238D01*
X110603333Y-38655714D01*
X110603333Y-38941428D01*
X110508095Y-39131904D01*
X110412857Y-39227142D01*
X110222380Y-39322380D01*
X109460476Y-39322380D01*
X111460476Y-40274761D02*
X111460476Y-38274761D01*
X115079523Y-40274761D02*
X114412857Y-39322380D01*
X113936666Y-40274761D02*
X113936666Y-38274761D01*
X114698571Y-38274761D01*
X114889047Y-38370000D01*
X114984285Y-38465238D01*
X115079523Y-38655714D01*
X115079523Y-38941428D01*
X114984285Y-39131904D01*
X114889047Y-39227142D01*
X114698571Y-39322380D01*
X113936666Y-39322380D01*
X116793809Y-40274761D02*
X116793809Y-39227142D01*
X116698571Y-39036666D01*
X116508095Y-38941428D01*
X116127142Y-38941428D01*
X115936666Y-39036666D01*
X116793809Y-40179523D02*
X116603333Y-40274761D01*
X116127142Y-40274761D01*
X115936666Y-40179523D01*
X115841428Y-39989047D01*
X115841428Y-39798571D01*
X115936666Y-39608095D01*
X116127142Y-39512857D01*
X116603333Y-39512857D01*
X116793809Y-39417619D01*
X118603333Y-40274761D02*
X118603333Y-38274761D01*
X118603333Y-40179523D02*
X118412857Y-40274761D01*
X118031904Y-40274761D01*
X117841428Y-40179523D01*
X117746190Y-40084285D01*
X117650952Y-39893809D01*
X117650952Y-39322380D01*
X117746190Y-39131904D01*
X117841428Y-39036666D01*
X118031904Y-38941428D01*
X118412857Y-38941428D01*
X118603333Y-39036666D01*
X119555714Y-40274761D02*
X119555714Y-38941428D01*
X119555714Y-38274761D02*
X119460476Y-38370000D01*
X119555714Y-38465238D01*
X119650952Y-38370000D01*
X119555714Y-38274761D01*
X119555714Y-38465238D01*
X121365238Y-40274761D02*
X121365238Y-39227142D01*
X121270000Y-39036666D01*
X121079523Y-38941428D01*
X120698571Y-38941428D01*
X120508095Y-39036666D01*
X121365238Y-40179523D02*
X121174761Y-40274761D01*
X120698571Y-40274761D01*
X120508095Y-40179523D01*
X120412857Y-39989047D01*
X120412857Y-39798571D01*
X120508095Y-39608095D01*
X120698571Y-39512857D01*
X121174761Y-39512857D01*
X121365238Y-39417619D01*
X122031904Y-38941428D02*
X122793809Y-38941428D01*
X122317619Y-38274761D02*
X122317619Y-39989047D01*
X122412857Y-40179523D01*
X122603333Y-40274761D01*
X122793809Y-40274761D01*
X123460476Y-40274761D02*
X123460476Y-38941428D01*
X123460476Y-38274761D02*
X123365238Y-38370000D01*
X123460476Y-38465238D01*
X123555714Y-38370000D01*
X123460476Y-38274761D01*
X123460476Y-38465238D01*
X124698571Y-40274761D02*
X124508095Y-40179523D01*
X124412857Y-40084285D01*
X124317619Y-39893809D01*
X124317619Y-39322380D01*
X124412857Y-39131904D01*
X124508095Y-39036666D01*
X124698571Y-38941428D01*
X124984285Y-38941428D01*
X125174761Y-39036666D01*
X125270000Y-39131904D01*
X125365238Y-39322380D01*
X125365238Y-39893809D01*
X125270000Y-40084285D01*
X125174761Y-40179523D01*
X124984285Y-40274761D01*
X124698571Y-40274761D01*
X126222380Y-38941428D02*
X126222380Y-40274761D01*
X126222380Y-39131904D02*
X126317619Y-39036666D01*
X126508095Y-38941428D01*
X126793809Y-38941428D01*
X126984285Y-39036666D01*
X127079523Y-39227142D01*
X127079523Y-40274761D01*
X129270000Y-38274761D02*
X130412857Y-38274761D01*
X129841428Y-40274761D02*
X129841428Y-38274761D01*
X131841428Y-40179523D02*
X131650952Y-40274761D01*
X131270000Y-40274761D01*
X131079523Y-40179523D01*
X130984285Y-39989047D01*
X130984285Y-39227142D01*
X131079523Y-39036666D01*
X131270000Y-38941428D01*
X131650952Y-38941428D01*
X131841428Y-39036666D01*
X131936666Y-39227142D01*
X131936666Y-39417619D01*
X130984285Y-39608095D01*
X132698571Y-40179523D02*
X132889047Y-40274761D01*
X133270000Y-40274761D01*
X133460476Y-40179523D01*
X133555714Y-39989047D01*
X133555714Y-39893809D01*
X133460476Y-39703333D01*
X133270000Y-39608095D01*
X132984285Y-39608095D01*
X132793809Y-39512857D01*
X132698571Y-39322380D01*
X132698571Y-39227142D01*
X132793809Y-39036666D01*
X132984285Y-38941428D01*
X133270000Y-38941428D01*
X133460476Y-39036666D01*
X134127142Y-38941428D02*
X134889047Y-38941428D01*
X134412857Y-38274761D02*
X134412857Y-39989047D01*
X134508095Y-40179523D01*
X134698571Y-40274761D01*
X134889047Y-40274761D01*
X137746190Y-39227142D02*
X138031904Y-39322380D01*
X138127142Y-39417619D01*
X138222380Y-39608095D01*
X138222380Y-39893809D01*
X138127142Y-40084285D01*
X138031904Y-40179523D01*
X137841428Y-40274761D01*
X137079523Y-40274761D01*
X137079523Y-38274761D01*
X137746190Y-38274761D01*
X137936666Y-38370000D01*
X138031904Y-38465238D01*
X138127142Y-38655714D01*
X138127142Y-38846190D01*
X138031904Y-39036666D01*
X137936666Y-39131904D01*
X137746190Y-39227142D01*
X137079523Y-39227142D01*
X139365238Y-40274761D02*
X139174761Y-40179523D01*
X139079523Y-40084285D01*
X138984285Y-39893809D01*
X138984285Y-39322380D01*
X139079523Y-39131904D01*
X139174761Y-39036666D01*
X139365238Y-38941428D01*
X139650952Y-38941428D01*
X139841428Y-39036666D01*
X139936666Y-39131904D01*
X140031904Y-39322380D01*
X140031904Y-39893809D01*
X139936666Y-40084285D01*
X139841428Y-40179523D01*
X139650952Y-40274761D01*
X139365238Y-40274761D01*
X141746190Y-40274761D02*
X141746190Y-39227142D01*
X141650952Y-39036666D01*
X141460476Y-38941428D01*
X141079523Y-38941428D01*
X140889047Y-39036666D01*
X141746190Y-40179523D02*
X141555714Y-40274761D01*
X141079523Y-40274761D01*
X140889047Y-40179523D01*
X140793809Y-39989047D01*
X140793809Y-39798571D01*
X140889047Y-39608095D01*
X141079523Y-39512857D01*
X141555714Y-39512857D01*
X141746190Y-39417619D01*
X142698571Y-40274761D02*
X142698571Y-38941428D01*
X142698571Y-39322380D02*
X142793809Y-39131904D01*
X142889047Y-39036666D01*
X143079523Y-38941428D01*
X143269999Y-38941428D01*
X144793809Y-40274761D02*
X144793809Y-38274761D01*
X144793809Y-40179523D02*
X144603333Y-40274761D01*
X144222380Y-40274761D01*
X144031904Y-40179523D01*
X143936666Y-40084285D01*
X143841428Y-39893809D01*
X143841428Y-39322380D01*
X143936666Y-39131904D01*
X144031904Y-39036666D01*
X144222380Y-38941428D01*
X144603333Y-38941428D01*
X144793809Y-39036666D01*
X148317619Y-40274761D02*
X147174761Y-40274761D01*
X147746190Y-40274761D02*
X147746190Y-38274761D01*
X147555714Y-38560476D01*
X147365238Y-38750952D01*
X147174761Y-38846190D01*
X149174761Y-40084285D02*
X149269999Y-40179523D01*
X149174761Y-40274761D01*
X149079523Y-40179523D01*
X149174761Y-40084285D01*
X149174761Y-40274761D01*
X151174761Y-40274761D02*
X150031904Y-40274761D01*
X150603333Y-40274761D02*
X150603333Y-38274761D01*
X150412857Y-38560476D01*
X150222380Y-38750952D01*
X150031904Y-38846190D01*
D11*
%TO.C,U1*%
X100470000Y-14010000D02*
X100470000Y-31155000D01*
X100470000Y-31155000D02*
X158890000Y-31155000D01*
X158890000Y-31155000D02*
X158890000Y-14010000D01*
X158890000Y-14010000D02*
X100470000Y-14010000D01*
%TO.C,U4*%
X117191000Y-21820000D02*
X117191000Y-23330000D01*
X113490000Y-21820000D02*
X113490000Y-23330000D01*
X110220000Y-23330000D02*
X120460000Y-23330000D01*
X120460000Y-21820000D02*
X120460000Y-26461000D01*
X110220000Y-21820000D02*
X110220000Y-26461000D01*
X110220000Y-26461000D02*
X120460000Y-26461000D01*
X110220000Y-21820000D02*
X120460000Y-21820000D01*
%TO.C,C2*%
X126370000Y-24017712D02*
X125920000Y-24017712D01*
X126145000Y-23792712D02*
X126145000Y-24242712D01*
X123750000Y-24210260D02*
G75*
G03*
X125870000Y-24210259I1060000J-2119740D01*
G01*
%TO.C,C1*%
X116402288Y-33080000D02*
X116402288Y-32630000D01*
X116627288Y-32855000D02*
X116177288Y-32855000D01*
X116209740Y-30460000D02*
G75*
G03*
X116209741Y-32580000I-2119740J-1060000D01*
G01*
%TO.C,U2*%
X142065000Y-53330000D02*
X117935000Y-53330000D01*
X142065000Y-111750000D02*
X142065000Y-53330000D01*
X117935000Y-111750000D02*
X142065000Y-111750000D01*
X117935000Y-53330000D02*
X117935000Y-111750000D01*
%TO.C,R1*%
X111860000Y-91980000D02*
X111530000Y-91980000D01*
X111860000Y-98520000D02*
X111860000Y-91980000D01*
X111530000Y-98520000D02*
X111860000Y-98520000D01*
X109120000Y-91980000D02*
X109450000Y-91980000D01*
X109120000Y-98520000D02*
X109120000Y-91980000D01*
X109450000Y-98520000D02*
X109120000Y-98520000D01*
%TO.C,U3*%
D10*
X129238095Y-187072380D02*
X129238095Y-187881904D01*
X129285714Y-187977142D01*
X129333333Y-188024761D01*
X129428571Y-188072380D01*
X129619047Y-188072380D01*
X129714285Y-188024761D01*
X129761904Y-187977142D01*
X129809523Y-187881904D01*
X129809523Y-187072380D01*
X130190476Y-187072380D02*
X130809523Y-187072380D01*
X130476190Y-187453333D01*
X130619047Y-187453333D01*
X130714285Y-187500952D01*
X130761904Y-187548571D01*
X130809523Y-187643809D01*
X130809523Y-187881904D01*
X130761904Y-187977142D01*
X130714285Y-188024761D01*
X130619047Y-188072380D01*
X130333333Y-188072380D01*
X130238095Y-188024761D01*
X130190476Y-187977142D01*
%TO.C,U1*%
X104788095Y-36322380D02*
X104788095Y-37131904D01*
X104835714Y-37227142D01*
X104883333Y-37274761D01*
X104978571Y-37322380D01*
X105169047Y-37322380D01*
X105264285Y-37274761D01*
X105311904Y-37227142D01*
X105359523Y-37131904D01*
X105359523Y-36322380D01*
X106359523Y-37322380D02*
X105788095Y-37322380D01*
X106073809Y-37322380D02*
X106073809Y-36322380D01*
X105978571Y-36465238D01*
X105883333Y-36560476D01*
X105788095Y-36608095D01*
%TO.C,U4*%
X114578095Y-20272380D02*
X114578095Y-21081904D01*
X114625714Y-21177142D01*
X114673333Y-21224761D01*
X114768571Y-21272380D01*
X114959047Y-21272380D01*
X115054285Y-21224761D01*
X115101904Y-21177142D01*
X115149523Y-21081904D01*
X115149523Y-20272380D01*
X116054285Y-20605714D02*
X116054285Y-21272380D01*
X115816190Y-20224761D02*
X115578095Y-20939047D01*
X116197142Y-20939047D01*
%TO.C,C2*%
X128667142Y-26496666D02*
X128714761Y-26544285D01*
X128762380Y-26687142D01*
X128762380Y-26782380D01*
X128714761Y-26925238D01*
X128619523Y-27020476D01*
X128524285Y-27068095D01*
X128333809Y-27115714D01*
X128190952Y-27115714D01*
X128000476Y-27068095D01*
X127905238Y-27020476D01*
X127810000Y-26925238D01*
X127762380Y-26782380D01*
X127762380Y-26687142D01*
X127810000Y-26544285D01*
X127857619Y-26496666D01*
X127857619Y-26115714D02*
X127810000Y-26068095D01*
X127762380Y-25972857D01*
X127762380Y-25734761D01*
X127810000Y-25639523D01*
X127857619Y-25591904D01*
X127952857Y-25544285D01*
X128048095Y-25544285D01*
X128190952Y-25591904D01*
X128762380Y-26163333D01*
X128762380Y-25544285D01*
%TO.C,C1*%
X113923333Y-35377142D02*
X113875714Y-35424761D01*
X113732857Y-35472380D01*
X113637619Y-35472380D01*
X113494761Y-35424761D01*
X113399523Y-35329523D01*
X113351904Y-35234285D01*
X113304285Y-35043809D01*
X113304285Y-34900952D01*
X113351904Y-34710476D01*
X113399523Y-34615238D01*
X113494761Y-34520000D01*
X113637619Y-34472380D01*
X113732857Y-34472380D01*
X113875714Y-34520000D01*
X113923333Y-34567619D01*
X114875714Y-35472380D02*
X114304285Y-35472380D01*
X114590000Y-35472380D02*
X114590000Y-34472380D01*
X114494761Y-34615238D01*
X114399523Y-34710476D01*
X114304285Y-34758095D01*
%TO.C,J1*%
X143666666Y-36597380D02*
X143666666Y-37311666D01*
X143619047Y-37454523D01*
X143523809Y-37549761D01*
X143380952Y-37597380D01*
X143285714Y-37597380D01*
X144666666Y-37597380D02*
X144095238Y-37597380D01*
X144380952Y-37597380D02*
X144380952Y-36597380D01*
X144285714Y-36740238D01*
X144190476Y-36835476D01*
X144095238Y-36883095D01*
%TO.C,U2*%
X129238095Y-97232380D02*
X129238095Y-98041904D01*
X129285714Y-98137142D01*
X129333333Y-98184761D01*
X129428571Y-98232380D01*
X129619047Y-98232380D01*
X129714285Y-98184761D01*
X129761904Y-98137142D01*
X129809523Y-98041904D01*
X129809523Y-97232380D01*
X130238095Y-97327619D02*
X130285714Y-97280000D01*
X130380952Y-97232380D01*
X130619047Y-97232380D01*
X130714285Y-97280000D01*
X130761904Y-97327619D01*
X130809523Y-97422857D01*
X130809523Y-97518095D01*
X130761904Y-97660952D01*
X130190476Y-98232380D01*
X130809523Y-98232380D01*
%TO.C,R1*%
X108572380Y-95416666D02*
X108096190Y-95750000D01*
X108572380Y-95988095D02*
X107572380Y-95988095D01*
X107572380Y-95607142D01*
X107620000Y-95511904D01*
X107667619Y-95464285D01*
X107762857Y-95416666D01*
X107905714Y-95416666D01*
X108000952Y-95464285D01*
X108048571Y-95511904D01*
X108096190Y-95607142D01*
X108096190Y-95988095D01*
X108572380Y-94464285D02*
X108572380Y-95035714D01*
X108572380Y-94750000D02*
X107572380Y-94750000D01*
X107715238Y-94845238D01*
X107810476Y-94940476D01*
X107858095Y-95035714D01*
%TD*%
M02*
