%TF.GenerationSoftware,KiCad,Pcbnew,(5.1.6-0-10_14)*%
%TF.CreationDate,2020-06-11T07:37:50+09:00*%
%TF.ProjectId,QSPIRadiationBoard,51535049-5261-4646-9961-74696f6e426f,rev?*%
%TF.SameCoordinates,Original*%
%TF.FileFunction,Copper,L1,Top*%
%TF.FilePolarity,Positive*%
%FSLAX46Y46*%
G04 Gerber Fmt 4.6, Leading zero omitted, Abs format (unit mm)*
G04 Created by KiCad (PCBNEW (5.1.6-0-10_14)) date 2020-06-11 07:37:50*
%MOMM*%
%LPD*%
G01*
G04 APERTURE LIST*
%TA.AperFunction,SMDPad,CuDef*%
%ADD10R,2.390000X0.558000*%
%TD*%
%TA.AperFunction,ComponentPad*%
%ADD11C,1.600000*%
%TD*%
%TA.AperFunction,ComponentPad*%
%ADD12O,1.905000X2.000000*%
%TD*%
%TA.AperFunction,ComponentPad*%
%ADD13R,1.905000X2.000000*%
%TD*%
%TA.AperFunction,ComponentPad*%
%ADD14R,1.600000X1.600000*%
%TD*%
%TA.AperFunction,ComponentPad*%
%ADD15C,2.600000*%
%TD*%
%TA.AperFunction,ComponentPad*%
%ADD16O,1.600000X1.600000*%
%TD*%
%TA.AperFunction,ViaPad*%
%ADD17C,0.800000*%
%TD*%
%TA.AperFunction,Conductor*%
%ADD18C,0.250000*%
%TD*%
%TA.AperFunction,Conductor*%
%ADD19C,0.500000*%
%TD*%
%TA.AperFunction,Conductor*%
%ADD20C,0.254000*%
%TD*%
G04 APERTURE END LIST*
D10*
%TO.P,U3,16*%
%TO.N,Net-(U2-Pad21)*%
X135450000Y-176190000D03*
%TO.P,U3,15*%
%TO.N,Net-(U2-Pad19)*%
X135450000Y-177460000D03*
%TO.P,U3,14*%
%TO.N,Net-(U3-Pad14)*%
X135450000Y-178730000D03*
%TO.P,U3,13*%
%TO.N,Net-(U3-Pad13)*%
X135450000Y-180000000D03*
%TO.P,U3,12*%
%TO.N,Net-(U3-Pad12)*%
X135450000Y-181270000D03*
%TO.P,U3,11*%
%TO.N,Net-(U3-Pad11)*%
X135450000Y-182540000D03*
%TO.P,U3,10*%
%TO.N,Net-(C1-Pad2)*%
X135450000Y-183810000D03*
%TO.P,U3,1*%
%TO.N,Net-(U2-Pad16)*%
X126190000Y-176190000D03*
%TO.P,U3,2*%
%TO.N,Net-(C1-Pad1)*%
X126190000Y-177460000D03*
%TO.P,U3,3*%
%TO.N,Net-(U2-Pad4)*%
X126190000Y-178730000D03*
%TO.P,U3,4*%
%TO.N,Net-(U3-Pad4)*%
X126190000Y-180000000D03*
%TO.P,U3,5*%
%TO.N,Net-(U3-Pad5)*%
X126190000Y-181270000D03*
%TO.P,U3,6*%
%TO.N,Net-(U3-Pad6)*%
X126190000Y-182540000D03*
%TO.P,U3,7*%
%TO.N,Net-(U2-Pad9)*%
X126190000Y-183810000D03*
%TO.P,U3,9*%
%TO.N,Net-(U2-Pad17)*%
X135450000Y-185080000D03*
%TO.P,U3,8*%
%TO.N,Net-(U2-Pad20)*%
X126190000Y-185080000D03*
%TD*%
D11*
%TO.P,U1,5*%
%TO.N,Net-(C1-Pad1)*%
X150610000Y-26710000D03*
%TO.P,U1,8*%
%TO.N,Net-(C1-Pad2)*%
X153150000Y-29250000D03*
%TO.P,U1,6*%
%TO.N,Net-(C1-Pad1)*%
X150610000Y-29250000D03*
%TO.P,U1,7*%
%TO.N,Net-(C1-Pad2)*%
X153150000Y-26710000D03*
%TO.P,U1,4*%
X108090000Y-29250000D03*
%TO.P,U1,2*%
%TO.N,Net-(C1-Pad1)*%
X105550000Y-29250000D03*
%TO.P,U1,3*%
%TO.N,Net-(C1-Pad2)*%
X108090000Y-26710000D03*
%TO.P,U1,1*%
%TO.N,Net-(C1-Pad1)*%
X105550000Y-26710000D03*
%TD*%
D12*
%TO.P,U4,3*%
%TO.N,Net-(C2-Pad1)*%
X117880000Y-25090000D03*
%TO.P,U4,2*%
%TO.N,Net-(C1-Pad1)*%
X115340000Y-25090000D03*
D13*
%TO.P,U4,1*%
%TO.N,Net-(C1-Pad2)*%
X112800000Y-25090000D03*
%TD*%
D11*
%TO.P,C2,2*%
%TO.N,Net-(C1-Pad2)*%
X124810000Y-27580000D03*
D14*
%TO.P,C2,1*%
%TO.N,Net-(C2-Pad1)*%
X124810000Y-25080000D03*
%TD*%
D11*
%TO.P,C1,2*%
%TO.N,Net-(C1-Pad2)*%
X112840000Y-31520000D03*
D14*
%TO.P,C1,1*%
%TO.N,Net-(C1-Pad1)*%
X115340000Y-31520000D03*
%TD*%
D15*
%TO.P,J1,6*%
%TO.N,Net-(J1-Pad6)*%
X147320000Y-30580000D03*
%TO.P,J1,5*%
%TO.N,Net-(C1-Pad2)*%
X143120000Y-30580000D03*
%TO.P,J1,4*%
%TO.N,Net-(J1-Pad4)*%
X138920000Y-30580000D03*
%TO.P,J1,3*%
%TO.N,Net-(J1-Pad3)*%
X147320000Y-25080000D03*
%TO.P,J1,2*%
%TO.N,Net-(C1-Pad2)*%
X143120000Y-25080000D03*
%TO.P,J1,1*%
%TO.N,Net-(C2-Pad1)*%
X138920000Y-25080000D03*
%TD*%
D11*
%TO.P,U2,24*%
%TO.N,Net-(C1-Pad2)*%
X140160000Y-93970000D03*
%TO.P,U2,23*%
%TO.N,Net-(J1-Pad6)*%
X140160000Y-91430000D03*
%TO.P,U2,22*%
%TO.N,Net-(C1-Pad2)*%
X140160000Y-88890000D03*
%TO.P,U2,21*%
%TO.N,Net-(U2-Pad21)*%
X140160000Y-86350000D03*
%TO.P,U2,20*%
%TO.N,Net-(U2-Pad20)*%
X140160000Y-83810000D03*
%TO.P,U2,19*%
%TO.N,Net-(U2-Pad19)*%
X140160000Y-81270000D03*
%TO.P,U2,18*%
%TO.N,Net-(C1-Pad2)*%
X140160000Y-78730000D03*
%TO.P,U2,17*%
%TO.N,Net-(U2-Pad17)*%
X140160000Y-76190000D03*
%TO.P,U2,16*%
%TO.N,Net-(U2-Pad16)*%
X140160000Y-73650000D03*
%TO.P,U2,15*%
%TO.N,Net-(C1-Pad2)*%
X140160000Y-71110000D03*
%TO.P,U2,14*%
%TO.N,Net-(U2-Pad14)*%
X140160000Y-68570000D03*
%TO.P,U2,13*%
%TO.N,Net-(C1-Pad1)*%
X140160000Y-66030000D03*
%TO.P,U2,12*%
%TO.N,Net-(C1-Pad2)*%
X119840000Y-93970000D03*
%TO.P,U2,11*%
%TO.N,Net-(R1-Pad2)*%
X119840000Y-91430000D03*
%TO.P,U2,10*%
%TO.N,Net-(U2-Pad10)*%
X119840000Y-88890000D03*
%TO.P,U2,9*%
%TO.N,Net-(U2-Pad9)*%
X119840000Y-86350000D03*
%TO.P,U2,8*%
%TO.N,Net-(C1-Pad2)*%
X119840000Y-83810000D03*
%TO.P,U2,7*%
%TO.N,Net-(U2-Pad7)*%
X119840000Y-81270000D03*
%TO.P,U2,6*%
%TO.N,Net-(U2-Pad6)*%
X119840000Y-78730000D03*
%TO.P,U2,5*%
%TO.N,Net-(U2-Pad5)*%
X119840000Y-76190000D03*
%TO.P,U2,4*%
%TO.N,Net-(U2-Pad4)*%
X119840000Y-73650000D03*
%TO.P,U2,3*%
%TO.N,Net-(C1-Pad2)*%
X119840000Y-71110000D03*
%TO.P,U2,2*%
%TO.N,Net-(U2-Pad2)*%
X119840000Y-68570000D03*
%TO.P,U2,1*%
%TO.N,Net-(U2-Pad1)*%
X119840000Y-66030000D03*
%TD*%
D16*
%TO.P,R1,2*%
%TO.N,Net-(R1-Pad2)*%
X110490000Y-91440000D03*
D11*
%TO.P,R1,1*%
%TO.N,Net-(C1-Pad1)*%
X110490000Y-99060000D03*
%TD*%
D17*
%TO.N,Net-(U2-Pad4)*%
X115580006Y-73650000D03*
X115570000Y-169555018D03*
%TO.N,Net-(J1-Pad6)*%
X147320000Y-35560000D03*
X134620000Y-91440000D03*
%TO.N,Net-(C1-Pad2)*%
X131710000Y-183820000D03*
%TD*%
D18*
%TO.N,Net-(R1-Pad2)*%
X110500000Y-91430000D02*
X110490000Y-91440000D01*
X119840000Y-91430000D02*
X110500000Y-91430000D01*
%TO.N,Net-(U2-Pad21)*%
X142610000Y-169030000D02*
X135450000Y-176190000D01*
X142610000Y-135000000D02*
X142610000Y-169030000D01*
X143360000Y-134250000D02*
X143193110Y-134268804D01*
X146162895Y-134250000D02*
X143360000Y-134250000D01*
X146329786Y-134231195D02*
X146162895Y-134250000D01*
X146488308Y-134175726D02*
X146329786Y-134231195D01*
X146838622Y-133825412D02*
X146749269Y-133967617D01*
X146894091Y-133666890D02*
X146838622Y-133825412D01*
X146894091Y-133333109D02*
X146912895Y-133500000D01*
X146838622Y-133174587D02*
X146894091Y-133333109D01*
X146630513Y-132913626D02*
X146749269Y-133032382D01*
X146488308Y-132824273D02*
X146630513Y-132913626D01*
X139057105Y-132750000D02*
X146162895Y-132750000D01*
X138890214Y-132731195D02*
X139057105Y-132750000D01*
X146749269Y-133967617D02*
X146630513Y-134086373D01*
X138589487Y-132586373D02*
X138731692Y-132675726D01*
X142773627Y-134532382D02*
X142684274Y-134674587D01*
X138307105Y-132000000D02*
X138325909Y-132166890D01*
X138325909Y-131833109D02*
X138307105Y-132000000D01*
X146488308Y-131175726D02*
X146329786Y-131231195D01*
X138381378Y-131674587D02*
X138325909Y-131833109D01*
X138731692Y-132675726D02*
X138890214Y-132731195D01*
X138731692Y-131324273D02*
X138589487Y-131413626D01*
X138307105Y-129000000D02*
X138325909Y-129166890D01*
X138589487Y-131413626D02*
X138470731Y-131532382D01*
X138890214Y-131268804D02*
X138731692Y-131324273D01*
X139057105Y-131250000D02*
X138890214Y-131268804D01*
X138470731Y-131532382D02*
X138381378Y-131674587D01*
X139057105Y-129750000D02*
X146162895Y-129750000D01*
X146162895Y-131250000D02*
X139057105Y-131250000D01*
X142628805Y-134833109D02*
X142610000Y-135000000D01*
X146329786Y-131231195D02*
X146162895Y-131250000D01*
X142535726Y-127825412D02*
X142446373Y-127967617D01*
X146749269Y-130967617D02*
X146630513Y-131086373D01*
X146894091Y-130666890D02*
X146838622Y-130825412D01*
X146630513Y-134086373D02*
X146488308Y-134175726D01*
X146894091Y-130333109D02*
X146912895Y-130500000D01*
X146749269Y-130032382D02*
X146838622Y-130174587D01*
X142892383Y-134413626D02*
X142773627Y-134532382D01*
X143034588Y-134324273D02*
X142892383Y-134413626D01*
X146630513Y-129913626D02*
X146749269Y-130032382D01*
X146912895Y-133500000D02*
X146894091Y-133666890D01*
X146749269Y-133032382D02*
X146838622Y-133174587D01*
X138890214Y-129731195D02*
X139057105Y-129750000D01*
X138470731Y-132467617D02*
X138589487Y-132586373D01*
X146838622Y-130174587D02*
X146894091Y-130333109D01*
X138325909Y-129166890D02*
X138381378Y-129325412D01*
X138731692Y-129675726D02*
X138890214Y-129731195D01*
X142185412Y-128175726D02*
X142026890Y-128231195D01*
X138589487Y-129586373D02*
X138731692Y-129675726D01*
X146162895Y-132750000D02*
X146329786Y-132768804D01*
X138470731Y-129467617D02*
X138589487Y-129586373D01*
X146329786Y-129768804D02*
X146488308Y-129824273D01*
X146838622Y-130825412D02*
X146749269Y-130967617D01*
X138325909Y-128833109D02*
X138307105Y-129000000D01*
X138589487Y-128413626D02*
X138470731Y-128532382D01*
X138470731Y-128532382D02*
X138381378Y-128674587D01*
X138890214Y-128268804D02*
X138731692Y-128324273D01*
X139057105Y-128250000D02*
X138890214Y-128268804D01*
X142327617Y-128086373D02*
X142185412Y-128175726D01*
X146329786Y-132768804D02*
X146488308Y-132824273D01*
X138381378Y-129325412D02*
X138470731Y-129467617D01*
X138381378Y-132325412D02*
X138470731Y-132467617D01*
X142446373Y-127967617D02*
X142327617Y-128086373D01*
X142684274Y-134674587D02*
X142628805Y-134833109D01*
X146630513Y-131086373D02*
X146488308Y-131175726D01*
X142026890Y-128231195D02*
X141860000Y-128250000D01*
X141860000Y-128250000D02*
X139057105Y-128250000D01*
X146488308Y-129824273D02*
X146630513Y-129913626D01*
X142591195Y-127666890D02*
X142535726Y-127825412D01*
X143193110Y-134268804D02*
X143034588Y-134324273D01*
X142610000Y-88800000D02*
X142610000Y-127500000D01*
X146162895Y-129750000D02*
X146329786Y-129768804D01*
X140160000Y-86350000D02*
X142610000Y-88800000D01*
X146912895Y-130500000D02*
X146894091Y-130666890D01*
X138731692Y-128324273D02*
X138589487Y-128413626D01*
X138325909Y-132166890D02*
X138381378Y-132325412D01*
X142610000Y-127500000D02*
X142591195Y-127666890D01*
X138381378Y-128674587D02*
X138325909Y-128833109D01*
%TO.N,Net-(U2-Pad20)*%
X131461195Y-146363109D02*
X131480000Y-146530000D01*
X131316373Y-146062382D02*
X131405726Y-146204587D01*
X131055412Y-145854273D02*
X131197617Y-145943626D01*
X130896890Y-145798804D02*
X131055412Y-145854273D01*
X130730000Y-145780000D02*
X130896890Y-145798804D01*
X129926227Y-145780000D02*
X130730000Y-145780000D01*
X129600814Y-145705726D02*
X129759336Y-145761195D01*
X129458609Y-145616373D02*
X129600814Y-145705726D01*
X131405726Y-146204587D02*
X131461195Y-146363109D01*
X129339853Y-145497617D02*
X129458609Y-145616373D01*
X129250500Y-145355412D02*
X129339853Y-145497617D01*
X129195031Y-145196890D02*
X129250500Y-145355412D01*
X129176227Y-145030000D02*
X129195031Y-145196890D01*
X129195031Y-144863109D02*
X129176227Y-145030000D01*
X129600814Y-141354273D02*
X129458609Y-141443626D01*
X129250500Y-144704587D02*
X129195031Y-144863109D01*
X134833773Y-144280000D02*
X129926227Y-144280000D01*
X135301391Y-144116373D02*
X135159186Y-144205726D01*
X129759336Y-145761195D02*
X129926227Y-145780000D01*
X135000664Y-144261195D02*
X134833773Y-144280000D01*
X135420147Y-143997617D02*
X135301391Y-144116373D01*
X135509500Y-143855412D02*
X135420147Y-143997617D01*
X129250500Y-142355412D02*
X129339853Y-142497617D01*
X129600814Y-142705726D02*
X129759336Y-142761195D01*
X129458609Y-144443626D02*
X129339853Y-144562382D01*
X129339853Y-141562382D02*
X129250500Y-141704587D01*
X135583773Y-143530000D02*
X135564969Y-143696890D01*
X129759336Y-144298804D02*
X129600814Y-144354273D01*
X129759336Y-141298804D02*
X129600814Y-141354273D01*
X135564969Y-143363109D02*
X135583773Y-143530000D01*
X129926227Y-144280000D02*
X129759336Y-144298804D01*
X135420147Y-143062382D02*
X135509500Y-143204587D01*
X129176227Y-142030000D02*
X129195031Y-142196890D01*
X135159186Y-142854273D02*
X135301391Y-142943626D01*
X129926227Y-142780000D02*
X134833773Y-142780000D01*
X135159186Y-144205726D02*
X135000664Y-144261195D01*
X129759336Y-142761195D02*
X129926227Y-142780000D01*
X131461195Y-140696890D02*
X131405726Y-140855412D01*
X134833773Y-142780000D02*
X135000664Y-142798804D01*
X135564969Y-143696890D02*
X135509500Y-143855412D01*
X131197617Y-141116373D02*
X131055412Y-141205726D01*
X131316373Y-140997617D02*
X131197617Y-141116373D01*
X129458609Y-142616373D02*
X129600814Y-142705726D01*
X131480000Y-180669002D02*
X127069002Y-185080000D01*
X129339853Y-142497617D02*
X129458609Y-142616373D01*
X129195031Y-142196890D02*
X129250500Y-142355412D01*
X129600814Y-144354273D02*
X129458609Y-144443626D01*
X135509500Y-143204587D02*
X135564969Y-143363109D01*
X129458609Y-141443626D02*
X129339853Y-141562382D01*
X129339853Y-144562382D02*
X129250500Y-144704587D01*
X135000664Y-142798804D02*
X135159186Y-142854273D01*
X127069002Y-185080000D02*
X126190000Y-185080000D01*
X129926227Y-141280000D02*
X129759336Y-141298804D01*
X130730000Y-141280000D02*
X129926227Y-141280000D01*
X129195031Y-141863109D02*
X129176227Y-142030000D01*
X131405726Y-140855412D02*
X131316373Y-140997617D01*
X130896890Y-141261195D02*
X130730000Y-141280000D01*
X129250500Y-141704587D02*
X129195031Y-141863109D01*
X131055412Y-141205726D02*
X130896890Y-141261195D01*
X131197617Y-145943626D02*
X131316373Y-146062382D01*
X131480000Y-140530000D02*
X131461195Y-140696890D01*
X135301391Y-142943626D02*
X135420147Y-143062382D01*
X135720000Y-83810000D02*
X131480000Y-88050000D01*
X131480000Y-88050000D02*
X131480000Y-140530000D01*
X131480000Y-146530000D02*
X131480000Y-180669002D01*
X140160000Y-83810000D02*
X135720000Y-83810000D01*
%TO.N,Net-(U2-Pad19)*%
X136895000Y-177460000D02*
X135450000Y-177460000D01*
X148421195Y-121573109D02*
X148440000Y-121740000D01*
X148365726Y-121414587D02*
X148421195Y-121573109D01*
X148276373Y-121272382D02*
X148365726Y-121414587D01*
X148157617Y-121153626D02*
X148276373Y-121272382D01*
X148015412Y-121064273D02*
X148157617Y-121153626D01*
X145565297Y-120990000D02*
X147690000Y-120990000D01*
X145398406Y-120971195D02*
X145565297Y-120990000D01*
X145239884Y-120915726D02*
X145398406Y-120971195D01*
X145097679Y-120826373D02*
X145239884Y-120915726D01*
X144978923Y-120707617D02*
X145097679Y-120826373D01*
X144889570Y-120565412D02*
X144978923Y-120707617D01*
X144815297Y-120240000D02*
X144834101Y-120406890D01*
X144889570Y-119914587D02*
X144834101Y-120073109D01*
X145398406Y-119508804D02*
X145239884Y-119564273D01*
X145239884Y-119564273D02*
X145097679Y-119653626D01*
X151640116Y-119415726D02*
X151481594Y-119471195D01*
X144978923Y-119772382D02*
X144889570Y-119914587D01*
X148421195Y-115906890D02*
X148365726Y-116065412D01*
X151782321Y-119326373D02*
X151640116Y-119415726D01*
X145097679Y-116653626D02*
X144978923Y-116772382D01*
X151990430Y-119065412D02*
X151901077Y-119207617D01*
X144889570Y-116914587D02*
X144834101Y-117073109D01*
X152045899Y-118906890D02*
X151990430Y-119065412D01*
X148440000Y-165915000D02*
X136895000Y-177460000D01*
X144834101Y-120073109D02*
X144815297Y-120240000D01*
X152064703Y-118740000D02*
X152045899Y-118906890D01*
X152045899Y-118573109D02*
X152064703Y-118740000D01*
X151990430Y-118414587D02*
X152045899Y-118573109D01*
X148440000Y-115740000D02*
X148421195Y-115906890D01*
X151901077Y-118272382D02*
X151990430Y-118414587D01*
X151481594Y-118008804D02*
X151640116Y-118064273D01*
X148365726Y-116065412D02*
X148276373Y-116207617D01*
X145565297Y-117990000D02*
X151314703Y-117990000D01*
X145239884Y-117915726D02*
X145398406Y-117971195D01*
X145097679Y-117826373D02*
X145239884Y-117915726D01*
X148157617Y-116326373D02*
X148015412Y-116415726D01*
X151314703Y-117990000D02*
X151481594Y-118008804D01*
X144978923Y-117707617D02*
X145097679Y-117826373D01*
X147690000Y-120990000D02*
X147856890Y-121008804D01*
X145565297Y-119490000D02*
X145398406Y-119508804D01*
X144834101Y-117073109D02*
X144815297Y-117240000D01*
X144834101Y-120406890D02*
X144889570Y-120565412D01*
X144889570Y-117565412D02*
X144978923Y-117707617D01*
X145398406Y-117971195D02*
X145565297Y-117990000D01*
X148440000Y-121740000D02*
X148440000Y-165915000D01*
X151481594Y-119471195D02*
X151314703Y-119490000D01*
X151314703Y-119490000D02*
X145565297Y-119490000D01*
X147690000Y-116490000D02*
X145565297Y-116490000D01*
X144815297Y-117240000D02*
X144834101Y-117406890D01*
X144978923Y-116772382D02*
X144889570Y-116914587D01*
X145398406Y-116508804D02*
X145239884Y-116564273D01*
X145239884Y-116564273D02*
X145097679Y-116653626D01*
X144834101Y-117406890D02*
X144889570Y-117565412D01*
X151640116Y-118064273D02*
X151782321Y-118153626D01*
X151901077Y-119207617D02*
X151782321Y-119326373D01*
X147856890Y-121008804D02*
X148015412Y-121064273D01*
X147856890Y-116471195D02*
X147690000Y-116490000D01*
X148015412Y-116415726D02*
X147856890Y-116471195D01*
X151782321Y-118153626D02*
X151901077Y-118272382D01*
X145097679Y-119653626D02*
X144978923Y-119772382D01*
X145565297Y-116490000D02*
X145398406Y-116508804D01*
X148276373Y-116207617D02*
X148157617Y-116326373D01*
X148440000Y-89550000D02*
X148440000Y-115740000D01*
X140160000Y-81270000D02*
X148440000Y-89550000D01*
%TO.N,Net-(U2-Pad17)*%
X154360000Y-90390000D02*
X140160000Y-76190000D01*
X154434273Y-110885412D02*
X154378804Y-110726890D01*
X154523626Y-111027617D02*
X154434273Y-110885412D01*
X154642382Y-111146373D02*
X154523626Y-111027617D01*
X154943109Y-111291195D02*
X154784587Y-111235726D01*
X155110000Y-111310000D02*
X154943109Y-111291195D01*
X155198992Y-111310000D02*
X155110000Y-111310000D01*
X155365882Y-111328804D02*
X155198992Y-111310000D01*
X155524404Y-111384273D02*
X155365882Y-111328804D01*
X155785365Y-111592382D02*
X155666609Y-111473626D01*
X154360000Y-113560000D02*
X154378804Y-113393109D01*
X155198992Y-112810000D02*
X155365882Y-112791195D01*
X155785365Y-112527617D02*
X155874718Y-112385412D01*
X155874718Y-111734587D02*
X155785365Y-111592382D01*
X155930187Y-112226890D02*
X155948992Y-112060000D01*
X155666609Y-112646373D02*
X155785365Y-112527617D01*
X155874718Y-112385412D02*
X155930187Y-112226890D01*
X155110000Y-112810000D02*
X155198992Y-112810000D01*
X154378804Y-110726890D02*
X154360000Y-110560000D01*
X155524404Y-112735726D02*
X155666609Y-112646373D01*
X155365882Y-112791195D02*
X155524404Y-112735726D01*
X154943109Y-112828804D02*
X155110000Y-112810000D01*
X154360000Y-110560000D02*
X154360000Y-90390000D01*
X154784587Y-111235726D02*
X154642382Y-111146373D01*
X154784587Y-112884273D02*
X154943109Y-112828804D01*
X154642382Y-112973626D02*
X154784587Y-112884273D01*
X154360000Y-167049002D02*
X154360000Y-113560000D01*
X155666609Y-111473626D02*
X155524404Y-111384273D01*
X154523626Y-113092382D02*
X154642382Y-112973626D01*
X135450000Y-185080000D02*
X136329002Y-185080000D01*
X154378804Y-113393109D02*
X154434273Y-113234587D01*
X136329002Y-185080000D02*
X154360000Y-167049002D01*
X154434273Y-113234587D02*
X154523626Y-113092382D01*
X155930187Y-111893109D02*
X155874718Y-111734587D01*
X155948992Y-112060000D02*
X155930187Y-111893109D01*
%TO.N,Net-(U2-Pad16)*%
X124619999Y-174619999D02*
X126190000Y-176190000D01*
X124619999Y-122949999D02*
X124619999Y-174619999D01*
X124783626Y-122482381D02*
X124694273Y-122624586D01*
X125203109Y-122218803D02*
X125044587Y-122274272D01*
X124545725Y-118775411D02*
X124456372Y-118917616D01*
X128667381Y-122036372D02*
X128525176Y-122125725D01*
X128949763Y-121449999D02*
X128930959Y-121616889D01*
X125044587Y-122274272D02*
X124902382Y-122363625D01*
X128930959Y-121283108D02*
X128949763Y-121449999D01*
X120453861Y-119482381D02*
X120364508Y-119624586D01*
X128875490Y-121775411D02*
X128786137Y-121917616D01*
X128525176Y-120774272D02*
X128667381Y-120863625D01*
X128786137Y-120982381D02*
X128875490Y-121124586D01*
X125369999Y-122199999D02*
X125203109Y-122218803D01*
X120309039Y-120116889D02*
X120364508Y-120275411D01*
X128667381Y-120863625D02*
X128786137Y-120982381D01*
X124638804Y-122783108D02*
X124619999Y-122949999D01*
X128366654Y-120718803D02*
X128525176Y-120774272D01*
X124601194Y-118616889D02*
X124545725Y-118775411D01*
X120873344Y-120681194D02*
X121040235Y-120699999D01*
X121040235Y-120699999D02*
X128199763Y-120699999D01*
X124337616Y-119036372D02*
X124195411Y-119125725D01*
X120453861Y-120417616D02*
X120572617Y-120536372D01*
X121040235Y-119199999D02*
X120873344Y-119218803D01*
X128199763Y-120699999D02*
X128366654Y-120718803D01*
X120364508Y-120275411D02*
X120453861Y-120417616D01*
X128875490Y-121124586D02*
X128930959Y-121283108D01*
X128930959Y-121616889D02*
X128875490Y-121775411D01*
X120873344Y-119218803D02*
X120714822Y-119274272D01*
X120290235Y-119949999D02*
X120309039Y-120116889D01*
X120572617Y-119363625D02*
X120453861Y-119482381D01*
X124694273Y-122624586D02*
X124638804Y-122783108D01*
X120309039Y-119783108D02*
X120290235Y-119949999D01*
X120714822Y-120625725D02*
X120873344Y-120681194D01*
X124619999Y-118449999D02*
X124601194Y-118616889D01*
X128366654Y-122181194D02*
X128199763Y-122199999D01*
X124619999Y-89190001D02*
X124619999Y-118449999D01*
X128199763Y-122199999D02*
X125369999Y-122199999D01*
X120714822Y-119274272D02*
X120572617Y-119363625D01*
X124036889Y-119181194D02*
X123869999Y-119199999D01*
X124902382Y-122363625D02*
X124783626Y-122482381D01*
X128525176Y-122125725D02*
X128366654Y-122181194D01*
X140160000Y-73650000D02*
X124619999Y-89190001D01*
X124456372Y-118917616D02*
X124337616Y-119036372D01*
X123869999Y-119199999D02*
X121040235Y-119199999D01*
X124195411Y-119125725D02*
X124036889Y-119181194D01*
X128786137Y-121917616D02*
X128667381Y-122036372D01*
X120572617Y-120536372D02*
X120714822Y-120625725D01*
X120364508Y-119624586D02*
X120309039Y-119783108D01*
%TO.N,Net-(U2-Pad9)*%
X106880000Y-171280000D02*
X119410000Y-183810000D01*
X106880000Y-131190000D02*
X106880000Y-171280000D01*
X106805726Y-130864587D02*
X106861195Y-131023109D01*
X106455412Y-130514273D02*
X106597617Y-130603626D01*
X106296890Y-130458804D02*
X106455412Y-130514273D01*
X104393483Y-130421195D02*
X104560374Y-130440000D01*
X104560374Y-130440000D02*
X106130000Y-130440000D01*
X103884647Y-130015412D02*
X103974000Y-130157617D01*
X103810374Y-129690000D02*
X103829178Y-129856890D01*
X103974000Y-129222382D02*
X103884647Y-129364587D01*
X103829178Y-129523109D02*
X103810374Y-129690000D01*
X104092756Y-129103626D02*
X103974000Y-129222382D01*
X106716373Y-130722382D02*
X106805726Y-130864587D01*
X104234961Y-130365726D02*
X104393483Y-130421195D01*
X104560374Y-128940000D02*
X104393483Y-128958804D01*
X104092756Y-130276373D02*
X104234961Y-130365726D01*
X106716373Y-128657617D02*
X106597617Y-128776373D01*
X103829178Y-129856890D02*
X103884647Y-130015412D01*
X106597617Y-130603626D02*
X106716373Y-130722382D01*
X106597617Y-128776373D02*
X106455412Y-128865726D01*
X106805726Y-128515412D02*
X106716373Y-128657617D01*
X106861195Y-131023109D02*
X106880000Y-131190000D01*
X103974000Y-130157617D02*
X104092756Y-130276373D01*
X104393483Y-128958804D02*
X104234961Y-129014273D01*
X106455412Y-128865726D02*
X106296890Y-128921195D01*
X119840000Y-86350000D02*
X110690000Y-86350000D01*
X106880000Y-90160000D02*
X106880000Y-128190000D01*
X104234961Y-129014273D02*
X104092756Y-129103626D01*
X119410000Y-183810000D02*
X126190000Y-183810000D01*
X106861195Y-128356890D02*
X106805726Y-128515412D01*
X106130000Y-130440000D02*
X106296890Y-130458804D01*
X106880000Y-128190000D02*
X106861195Y-128356890D01*
X106130000Y-128940000D02*
X104560374Y-128940000D01*
X103884647Y-129364587D02*
X103829178Y-129523109D01*
X110690000Y-86350000D02*
X106880000Y-90160000D01*
X106296890Y-128921195D02*
X106130000Y-128940000D01*
%TO.N,Net-(U2-Pad4)*%
X119840000Y-73650000D02*
X115580006Y-73650000D01*
X121580000Y-178730000D02*
X115570000Y-172720000D01*
X115570000Y-172720000D02*
X115570000Y-169555018D01*
X126190000Y-178730000D02*
X121580000Y-178730000D01*
%TO.N,Net-(J1-Pad6)*%
X147320000Y-30580000D02*
X147320000Y-35560000D01*
X140150000Y-91440000D02*
X140160000Y-91430000D01*
X134620000Y-91440000D02*
X140150000Y-91440000D01*
%TO.N,Net-(C1-Pad2)*%
X131720000Y-183810000D02*
X131710000Y-183820000D01*
X135450000Y-183810000D02*
X131720000Y-183810000D01*
D19*
%TO.N,Net-(C2-Pad1)*%
X138920000Y-25080000D02*
X124810000Y-25080000D01*
D18*
X117890000Y-25080000D02*
X117880000Y-25090000D01*
D19*
X124810000Y-25080000D02*
X117890000Y-25080000D01*
%TD*%
D20*
%TO.N,Net-(C1-Pad1)*%
G36*
X160630000Y-188570000D02*
G01*
X95910000Y-188570000D01*
X95910000Y-129625813D01*
X103049400Y-129625813D01*
X103050300Y-129690000D01*
X103049400Y-129754187D01*
X103058137Y-129801574D01*
X103070973Y-129915496D01*
X103073000Y-129963643D01*
X103088158Y-130026008D01*
X103101566Y-130088800D01*
X103120632Y-130133063D01*
X103158494Y-130241267D01*
X103171183Y-130287754D01*
X103199845Y-130345196D01*
X103226883Y-130403416D01*
X103255315Y-130442320D01*
X103316305Y-130539386D01*
X103339026Y-130581893D01*
X103379754Y-130631519D01*
X103419066Y-130682259D01*
X103455447Y-130713865D01*
X103536508Y-130794926D01*
X103568114Y-130831307D01*
X103618863Y-130870626D01*
X103668480Y-130911346D01*
X103710977Y-130934061D01*
X103808047Y-130995054D01*
X103846957Y-131023491D01*
X103905189Y-131050535D01*
X103962619Y-131079190D01*
X104009104Y-131091879D01*
X104117311Y-131129742D01*
X104161569Y-131148806D01*
X104224342Y-131162210D01*
X104286729Y-131177373D01*
X104334881Y-131179400D01*
X104406238Y-131187441D01*
X104411388Y-131189003D01*
X104480613Y-131195821D01*
X104512375Y-131199400D01*
X104517709Y-131199475D01*
X104523041Y-131200000D01*
X104555138Y-131200000D01*
X104624557Y-131200974D01*
X104629840Y-131200000D01*
X106087322Y-131200000D01*
X106116691Y-131203309D01*
X106120000Y-131232675D01*
X106120001Y-171242667D01*
X106116324Y-171280000D01*
X106130998Y-171428985D01*
X106174454Y-171572246D01*
X106245026Y-171704276D01*
X106316201Y-171791002D01*
X106340000Y-171820001D01*
X106368998Y-171843799D01*
X118846200Y-184321002D01*
X118869999Y-184350001D01*
X118898997Y-184373799D01*
X118985723Y-184444974D01*
X119004432Y-184454974D01*
X119117753Y-184515546D01*
X119261014Y-184559003D01*
X119372667Y-184570000D01*
X119372677Y-184570000D01*
X119410000Y-184573676D01*
X119447323Y-184570000D01*
X124401500Y-184570000D01*
X124369188Y-184676518D01*
X124356928Y-184801000D01*
X124356928Y-185359000D01*
X124369188Y-185483482D01*
X124405498Y-185603180D01*
X124464463Y-185713494D01*
X124543815Y-185810185D01*
X124640506Y-185889537D01*
X124750820Y-185948502D01*
X124870518Y-185984812D01*
X124995000Y-185997072D01*
X127385000Y-185997072D01*
X127509482Y-185984812D01*
X127629180Y-185948502D01*
X127739494Y-185889537D01*
X127836185Y-185810185D01*
X127915537Y-185713494D01*
X127974502Y-185603180D01*
X128010812Y-185483482D01*
X128023072Y-185359000D01*
X128023072Y-185200731D01*
X131991003Y-181232801D01*
X132020001Y-181209003D01*
X132114974Y-181093278D01*
X132185546Y-180961249D01*
X132229003Y-180817988D01*
X132240000Y-180706335D01*
X132240000Y-180706326D01*
X132243676Y-180669003D01*
X132240000Y-180631680D01*
X132240000Y-146599466D01*
X132240974Y-146594183D01*
X132240000Y-146524764D01*
X132240000Y-146492667D01*
X132239475Y-146487335D01*
X132239400Y-146482001D01*
X132235821Y-146450239D01*
X132229003Y-146381014D01*
X132227441Y-146375864D01*
X132219400Y-146304507D01*
X132217373Y-146256355D01*
X132202210Y-146193968D01*
X132188806Y-146131195D01*
X132169742Y-146086937D01*
X132131879Y-145978730D01*
X132119190Y-145932245D01*
X132090535Y-145874815D01*
X132063491Y-145816583D01*
X132035054Y-145777673D01*
X131974061Y-145680603D01*
X131951346Y-145638106D01*
X131910626Y-145588489D01*
X131871307Y-145537740D01*
X131834926Y-145506134D01*
X131753865Y-145425073D01*
X131722259Y-145388692D01*
X131671519Y-145349380D01*
X131621893Y-145308652D01*
X131579386Y-145285931D01*
X131482320Y-145224941D01*
X131443416Y-145196509D01*
X131385196Y-145169471D01*
X131327754Y-145140809D01*
X131281267Y-145128120D01*
X131173063Y-145090258D01*
X131128800Y-145071192D01*
X131066008Y-145057784D01*
X131003643Y-145042626D01*
X130955496Y-145040599D01*
X130950183Y-145040000D01*
X134764307Y-145040000D01*
X134769590Y-145040974D01*
X134839008Y-145040000D01*
X134871106Y-145040000D01*
X134876438Y-145039475D01*
X134881771Y-145039400D01*
X134913527Y-145035822D01*
X134982759Y-145029003D01*
X134987909Y-145027441D01*
X135059266Y-145019400D01*
X135107417Y-145017373D01*
X135169787Y-145002214D01*
X135232578Y-144988806D01*
X135276840Y-144969740D01*
X135385041Y-144931879D01*
X135431528Y-144919190D01*
X135488970Y-144890528D01*
X135547190Y-144863490D01*
X135586094Y-144835058D01*
X135683160Y-144774068D01*
X135725667Y-144751347D01*
X135775293Y-144710619D01*
X135826033Y-144671307D01*
X135857639Y-144634926D01*
X135938700Y-144553865D01*
X135975081Y-144522259D01*
X136014400Y-144471510D01*
X136055120Y-144421893D01*
X136077835Y-144379396D01*
X136138828Y-144282326D01*
X136167265Y-144243416D01*
X136194309Y-144185184D01*
X136222964Y-144127754D01*
X136235653Y-144081269D01*
X136273518Y-143973057D01*
X136292581Y-143928800D01*
X136305986Y-143866026D01*
X136321147Y-143803644D01*
X136323174Y-143755496D01*
X136336010Y-143641573D01*
X136344747Y-143594187D01*
X136343847Y-143530000D01*
X136344747Y-143465813D01*
X136336010Y-143418427D01*
X136323174Y-143304504D01*
X136321147Y-143256355D01*
X136305985Y-143193969D01*
X136292581Y-143131199D01*
X136273518Y-143086942D01*
X136235653Y-142978730D01*
X136222964Y-142932245D01*
X136194309Y-142874815D01*
X136167265Y-142816583D01*
X136138828Y-142777673D01*
X136077835Y-142680603D01*
X136055120Y-142638106D01*
X136014400Y-142588489D01*
X135975081Y-142537740D01*
X135938700Y-142506134D01*
X135857639Y-142425073D01*
X135826033Y-142388692D01*
X135775293Y-142349380D01*
X135725667Y-142308652D01*
X135683160Y-142285931D01*
X135586094Y-142224941D01*
X135547190Y-142196509D01*
X135488970Y-142169471D01*
X135431528Y-142140809D01*
X135385041Y-142128120D01*
X135276837Y-142090258D01*
X135232574Y-142071192D01*
X135169786Y-142057785D01*
X135107417Y-142042626D01*
X135059269Y-142040599D01*
X134987904Y-142032558D01*
X134982759Y-142030997D01*
X134913574Y-142024183D01*
X134881767Y-142020599D01*
X134876428Y-142020524D01*
X134871106Y-142020000D01*
X134839048Y-142020000D01*
X134769586Y-142019026D01*
X134764303Y-142020000D01*
X130950172Y-142020000D01*
X130955493Y-142019400D01*
X131003643Y-142017373D01*
X131066024Y-142002211D01*
X131128805Y-141988805D01*
X131173063Y-141969741D01*
X131281267Y-141931879D01*
X131327754Y-141919190D01*
X131385196Y-141890528D01*
X131443416Y-141863490D01*
X131482320Y-141835058D01*
X131579386Y-141774068D01*
X131621893Y-141751347D01*
X131671519Y-141710619D01*
X131722259Y-141671307D01*
X131753865Y-141634926D01*
X131834926Y-141553865D01*
X131871307Y-141522259D01*
X131910626Y-141471510D01*
X131951346Y-141421893D01*
X131974061Y-141379396D01*
X132035054Y-141282326D01*
X132063491Y-141243416D01*
X132090535Y-141185184D01*
X132119190Y-141127754D01*
X132131879Y-141081269D01*
X132169744Y-140973057D01*
X132188805Y-140928805D01*
X132202208Y-140866042D01*
X132217373Y-140803644D01*
X132219400Y-140755493D01*
X132227441Y-140684136D01*
X132229003Y-140678986D01*
X132235823Y-140609744D01*
X132239400Y-140578000D01*
X132239475Y-140572665D01*
X132240000Y-140567333D01*
X132240000Y-140535237D01*
X132240974Y-140465818D01*
X132240000Y-140460535D01*
X132240000Y-88364801D01*
X136034802Y-84570000D01*
X138941957Y-84570000D01*
X139045363Y-84724759D01*
X139245241Y-84924637D01*
X139477759Y-85080000D01*
X139245241Y-85235363D01*
X139045363Y-85435241D01*
X138888320Y-85670273D01*
X138780147Y-85931426D01*
X138725000Y-86208665D01*
X138725000Y-86491335D01*
X138780147Y-86768574D01*
X138888320Y-87029727D01*
X139045363Y-87264759D01*
X139245241Y-87464637D01*
X139477759Y-87620000D01*
X139245241Y-87775363D01*
X139045363Y-87975241D01*
X138888320Y-88210273D01*
X138780147Y-88471426D01*
X138725000Y-88748665D01*
X138725000Y-89031335D01*
X138780147Y-89308574D01*
X138888320Y-89569727D01*
X139045363Y-89804759D01*
X139245241Y-90004637D01*
X139477759Y-90160000D01*
X139245241Y-90315363D01*
X139045363Y-90515241D01*
X138935275Y-90680000D01*
X135323711Y-90680000D01*
X135279774Y-90636063D01*
X135110256Y-90522795D01*
X134921898Y-90444774D01*
X134721939Y-90405000D01*
X134518061Y-90405000D01*
X134318102Y-90444774D01*
X134129744Y-90522795D01*
X133960226Y-90636063D01*
X133816063Y-90780226D01*
X133702795Y-90949744D01*
X133624774Y-91138102D01*
X133585000Y-91338061D01*
X133585000Y-91541939D01*
X133624774Y-91741898D01*
X133702795Y-91930256D01*
X133816063Y-92099774D01*
X133960226Y-92243937D01*
X134129744Y-92357205D01*
X134318102Y-92435226D01*
X134518061Y-92475000D01*
X134721939Y-92475000D01*
X134921898Y-92435226D01*
X135110256Y-92357205D01*
X135279774Y-92243937D01*
X135323711Y-92200000D01*
X138948638Y-92200000D01*
X139045363Y-92344759D01*
X139245241Y-92544637D01*
X139477759Y-92700000D01*
X139245241Y-92855363D01*
X139045363Y-93055241D01*
X138888320Y-93290273D01*
X138780147Y-93551426D01*
X138725000Y-93828665D01*
X138725000Y-94111335D01*
X138780147Y-94388574D01*
X138888320Y-94649727D01*
X139045363Y-94884759D01*
X139245241Y-95084637D01*
X139480273Y-95241680D01*
X139741426Y-95349853D01*
X140018665Y-95405000D01*
X140301335Y-95405000D01*
X140578574Y-95349853D01*
X140839727Y-95241680D01*
X141074759Y-95084637D01*
X141274637Y-94884759D01*
X141431680Y-94649727D01*
X141539853Y-94388574D01*
X141595000Y-94111335D01*
X141595000Y-93828665D01*
X141539853Y-93551426D01*
X141431680Y-93290273D01*
X141274637Y-93055241D01*
X141074759Y-92855363D01*
X140842241Y-92700000D01*
X141074759Y-92544637D01*
X141274637Y-92344759D01*
X141431680Y-92109727D01*
X141539853Y-91848574D01*
X141595000Y-91571335D01*
X141595000Y-91288665D01*
X141539853Y-91011426D01*
X141431680Y-90750273D01*
X141274637Y-90515241D01*
X141074759Y-90315363D01*
X140842241Y-90160000D01*
X141074759Y-90004637D01*
X141274637Y-89804759D01*
X141431680Y-89569727D01*
X141539853Y-89308574D01*
X141595000Y-89031335D01*
X141595000Y-88859802D01*
X141850000Y-89114802D01*
X141850001Y-127457315D01*
X141846691Y-127486691D01*
X141817324Y-127490000D01*
X139126575Y-127490000D01*
X139121292Y-127489026D01*
X139051829Y-127490000D01*
X139019772Y-127490000D01*
X139014451Y-127490524D01*
X139009110Y-127490599D01*
X138977297Y-127494183D01*
X138908119Y-127500997D01*
X138902974Y-127502558D01*
X138831609Y-127510599D01*
X138783460Y-127512626D01*
X138721074Y-127527788D01*
X138658304Y-127541192D01*
X138614047Y-127560255D01*
X138505835Y-127598120D01*
X138459350Y-127610809D01*
X138401920Y-127639464D01*
X138343688Y-127666508D01*
X138304778Y-127694945D01*
X138207708Y-127755938D01*
X138165211Y-127778653D01*
X138115594Y-127819373D01*
X138064845Y-127858692D01*
X138033239Y-127895073D01*
X137952178Y-127976134D01*
X137915797Y-128007740D01*
X137876485Y-128058480D01*
X137835757Y-128108106D01*
X137813036Y-128150613D01*
X137752046Y-128247679D01*
X137723614Y-128286583D01*
X137696576Y-128344803D01*
X137667914Y-128402245D01*
X137655225Y-128448732D01*
X137617363Y-128556936D01*
X137598297Y-128601199D01*
X137584890Y-128663987D01*
X137569731Y-128726356D01*
X137567704Y-128774504D01*
X137554868Y-128888426D01*
X137546131Y-128935813D01*
X137547031Y-129000000D01*
X137546131Y-129064187D01*
X137554868Y-129111574D01*
X137567704Y-129225496D01*
X137569731Y-129273643D01*
X137584889Y-129336008D01*
X137598297Y-129398800D01*
X137617363Y-129443063D01*
X137655225Y-129551267D01*
X137667914Y-129597754D01*
X137696576Y-129655196D01*
X137723614Y-129713416D01*
X137752046Y-129752320D01*
X137813036Y-129849386D01*
X137835757Y-129891893D01*
X137876485Y-129941519D01*
X137915797Y-129992259D01*
X137952178Y-130023865D01*
X138033239Y-130104926D01*
X138064845Y-130141307D01*
X138115594Y-130180626D01*
X138165211Y-130221346D01*
X138207708Y-130244061D01*
X138304778Y-130305054D01*
X138343688Y-130333491D01*
X138401920Y-130360535D01*
X138459350Y-130389190D01*
X138505835Y-130401879D01*
X138614042Y-130439742D01*
X138658300Y-130458806D01*
X138721073Y-130472210D01*
X138783460Y-130487373D01*
X138831612Y-130489400D01*
X138902969Y-130497441D01*
X138908119Y-130499003D01*
X138918242Y-130500000D01*
X138908119Y-130500997D01*
X138902974Y-130502558D01*
X138831609Y-130510599D01*
X138783460Y-130512626D01*
X138721074Y-130527788D01*
X138658304Y-130541192D01*
X138614047Y-130560255D01*
X138505835Y-130598120D01*
X138459350Y-130610809D01*
X138401920Y-130639464D01*
X138343688Y-130666508D01*
X138304778Y-130694945D01*
X138207708Y-130755938D01*
X138165211Y-130778653D01*
X138115594Y-130819373D01*
X138064845Y-130858692D01*
X138033239Y-130895073D01*
X137952178Y-130976134D01*
X137915797Y-131007740D01*
X137876485Y-131058480D01*
X137835757Y-131108106D01*
X137813036Y-131150613D01*
X137752046Y-131247679D01*
X137723614Y-131286583D01*
X137696576Y-131344803D01*
X137667914Y-131402245D01*
X137655225Y-131448732D01*
X137617363Y-131556936D01*
X137598297Y-131601199D01*
X137584890Y-131663987D01*
X137569731Y-131726356D01*
X137567704Y-131774504D01*
X137554868Y-131888426D01*
X137546131Y-131935813D01*
X137547031Y-132000000D01*
X137546131Y-132064187D01*
X137554868Y-132111574D01*
X137567704Y-132225496D01*
X137569731Y-132273643D01*
X137584889Y-132336008D01*
X137598297Y-132398800D01*
X137617363Y-132443063D01*
X137655225Y-132551267D01*
X137667914Y-132597754D01*
X137696576Y-132655196D01*
X137723614Y-132713416D01*
X137752046Y-132752320D01*
X137813036Y-132849386D01*
X137835757Y-132891893D01*
X137876485Y-132941519D01*
X137915797Y-132992259D01*
X137952178Y-133023865D01*
X138033239Y-133104926D01*
X138064845Y-133141307D01*
X138115594Y-133180626D01*
X138165211Y-133221346D01*
X138207708Y-133244061D01*
X138304778Y-133305054D01*
X138343688Y-133333491D01*
X138401920Y-133360535D01*
X138459350Y-133389190D01*
X138505835Y-133401879D01*
X138614042Y-133439742D01*
X138658300Y-133458806D01*
X138721073Y-133472210D01*
X138783460Y-133487373D01*
X138831612Y-133489400D01*
X138902969Y-133497441D01*
X138908119Y-133499003D01*
X138977344Y-133505821D01*
X139009106Y-133509400D01*
X139014440Y-133509475D01*
X139019772Y-133510000D01*
X139051869Y-133510000D01*
X139121288Y-133510974D01*
X139126571Y-133510000D01*
X143139817Y-133510000D01*
X143134504Y-133510599D01*
X143086356Y-133512626D01*
X143023974Y-133527787D01*
X142961200Y-133541192D01*
X142916943Y-133560255D01*
X142808731Y-133598120D01*
X142762246Y-133610809D01*
X142704816Y-133639464D01*
X142646584Y-133666508D01*
X142607674Y-133694945D01*
X142510604Y-133755938D01*
X142468107Y-133778653D01*
X142418490Y-133819373D01*
X142367741Y-133858692D01*
X142336135Y-133895073D01*
X142255074Y-133976134D01*
X142218693Y-134007740D01*
X142179381Y-134058480D01*
X142138653Y-134108106D01*
X142115932Y-134150613D01*
X142054942Y-134247679D01*
X142026510Y-134286583D01*
X141999472Y-134344803D01*
X141970810Y-134402245D01*
X141958121Y-134448732D01*
X141920260Y-134556933D01*
X141901194Y-134601195D01*
X141887786Y-134663986D01*
X141872627Y-134726356D01*
X141870600Y-134774507D01*
X141862559Y-134845865D01*
X141860997Y-134851015D01*
X141854179Y-134920239D01*
X141850600Y-134952002D01*
X141850525Y-134957336D01*
X141850000Y-134962668D01*
X141850000Y-134994765D01*
X141849026Y-135064183D01*
X141850000Y-135069466D01*
X141850001Y-168715197D01*
X135292271Y-175272928D01*
X134255000Y-175272928D01*
X134130518Y-175285188D01*
X134010820Y-175321498D01*
X133900506Y-175380463D01*
X133803815Y-175459815D01*
X133724463Y-175556506D01*
X133665498Y-175666820D01*
X133629188Y-175786518D01*
X133616928Y-175911000D01*
X133616928Y-176469000D01*
X133629188Y-176593482D01*
X133665498Y-176713180D01*
X133724463Y-176823494D01*
X133725699Y-176825000D01*
X133724463Y-176826506D01*
X133665498Y-176936820D01*
X133629188Y-177056518D01*
X133616928Y-177181000D01*
X133616928Y-177739000D01*
X133629188Y-177863482D01*
X133665498Y-177983180D01*
X133724463Y-178093494D01*
X133725699Y-178095000D01*
X133724463Y-178096506D01*
X133665498Y-178206820D01*
X133629188Y-178326518D01*
X133616928Y-178451000D01*
X133616928Y-179009000D01*
X133629188Y-179133482D01*
X133665498Y-179253180D01*
X133724463Y-179363494D01*
X133725699Y-179365000D01*
X133724463Y-179366506D01*
X133665498Y-179476820D01*
X133629188Y-179596518D01*
X133616928Y-179721000D01*
X133616928Y-180279000D01*
X133629188Y-180403482D01*
X133665498Y-180523180D01*
X133724463Y-180633494D01*
X133725699Y-180635000D01*
X133724463Y-180636506D01*
X133665498Y-180746820D01*
X133629188Y-180866518D01*
X133616928Y-180991000D01*
X133616928Y-181549000D01*
X133629188Y-181673482D01*
X133665498Y-181793180D01*
X133724463Y-181903494D01*
X133725699Y-181905000D01*
X133724463Y-181906506D01*
X133665498Y-182016820D01*
X133629188Y-182136518D01*
X133616928Y-182261000D01*
X133616928Y-182819000D01*
X133629188Y-182943482D01*
X133661500Y-183050000D01*
X132403711Y-183050000D01*
X132369774Y-183016063D01*
X132200256Y-182902795D01*
X132011898Y-182824774D01*
X131811939Y-182785000D01*
X131608061Y-182785000D01*
X131408102Y-182824774D01*
X131219744Y-182902795D01*
X131050226Y-183016063D01*
X130906063Y-183160226D01*
X130792795Y-183329744D01*
X130714774Y-183518102D01*
X130675000Y-183718061D01*
X130675000Y-183921939D01*
X130714774Y-184121898D01*
X130792795Y-184310256D01*
X130906063Y-184479774D01*
X131050226Y-184623937D01*
X131219744Y-184737205D01*
X131408102Y-184815226D01*
X131608061Y-184855000D01*
X131811939Y-184855000D01*
X132011898Y-184815226D01*
X132200256Y-184737205D01*
X132369774Y-184623937D01*
X132423711Y-184570000D01*
X133661500Y-184570000D01*
X133629188Y-184676518D01*
X133616928Y-184801000D01*
X133616928Y-185359000D01*
X133629188Y-185483482D01*
X133665498Y-185603180D01*
X133724463Y-185713494D01*
X133803815Y-185810185D01*
X133900506Y-185889537D01*
X134010820Y-185948502D01*
X134130518Y-185984812D01*
X134255000Y-185997072D01*
X136645000Y-185997072D01*
X136769482Y-185984812D01*
X136889180Y-185948502D01*
X136999494Y-185889537D01*
X137096185Y-185810185D01*
X137175537Y-185713494D01*
X137234502Y-185603180D01*
X137270812Y-185483482D01*
X137283072Y-185359000D01*
X137283072Y-185200731D01*
X154871004Y-167612800D01*
X154900001Y-167589003D01*
X154926332Y-167556919D01*
X154994974Y-167473279D01*
X155065546Y-167341249D01*
X155065546Y-167341248D01*
X155109003Y-167197988D01*
X155120000Y-167086335D01*
X155120000Y-167086325D01*
X155123676Y-167049002D01*
X155120000Y-167011679D01*
X155120000Y-113602677D01*
X155123309Y-113573309D01*
X155145344Y-113570826D01*
X155204228Y-113570000D01*
X155236325Y-113570000D01*
X155241657Y-113569475D01*
X155246991Y-113569400D01*
X155278752Y-113565821D01*
X155347978Y-113559003D01*
X155353128Y-113557441D01*
X155424485Y-113549400D01*
X155472635Y-113547373D01*
X155535016Y-113532211D01*
X155597797Y-113518805D01*
X155642055Y-113499741D01*
X155750259Y-113461879D01*
X155796746Y-113449190D01*
X155854188Y-113420528D01*
X155912408Y-113393490D01*
X155951312Y-113365058D01*
X156048378Y-113304068D01*
X156090885Y-113281347D01*
X156140511Y-113240619D01*
X156191251Y-113201307D01*
X156222857Y-113164926D01*
X156303918Y-113083865D01*
X156340299Y-113052259D01*
X156379618Y-113001510D01*
X156420338Y-112951893D01*
X156443053Y-112909396D01*
X156504046Y-112812326D01*
X156532483Y-112773416D01*
X156559527Y-112715184D01*
X156588182Y-112657754D01*
X156600871Y-112611269D01*
X156638736Y-112503057D01*
X156657797Y-112458805D01*
X156671200Y-112396042D01*
X156686365Y-112333644D01*
X156688392Y-112285493D01*
X156701228Y-112171582D01*
X156709966Y-112124183D01*
X156709065Y-112060001D01*
X156709966Y-111995818D01*
X156701228Y-111948420D01*
X156688392Y-111834507D01*
X156686365Y-111786355D01*
X156671202Y-111723968D01*
X156657798Y-111661195D01*
X156638734Y-111616937D01*
X156600871Y-111508730D01*
X156588182Y-111462245D01*
X156559527Y-111404815D01*
X156532483Y-111346583D01*
X156504046Y-111307673D01*
X156443053Y-111210603D01*
X156420338Y-111168106D01*
X156379618Y-111118489D01*
X156340299Y-111067740D01*
X156303918Y-111036134D01*
X156222857Y-110955073D01*
X156191251Y-110918692D01*
X156140511Y-110879380D01*
X156090885Y-110838652D01*
X156048378Y-110815931D01*
X155951312Y-110754941D01*
X155912408Y-110726509D01*
X155854188Y-110699471D01*
X155796746Y-110670809D01*
X155750259Y-110658120D01*
X155642055Y-110620258D01*
X155597792Y-110601192D01*
X155535000Y-110587784D01*
X155472635Y-110572626D01*
X155424488Y-110570599D01*
X155353123Y-110562558D01*
X155347978Y-110560997D01*
X155278793Y-110554183D01*
X155246986Y-110550599D01*
X155241647Y-110550524D01*
X155236325Y-110550000D01*
X155204267Y-110550000D01*
X155145343Y-110549174D01*
X155123309Y-110546691D01*
X155120000Y-110517322D01*
X155120000Y-90427333D01*
X155123677Y-90390000D01*
X155109003Y-90241014D01*
X155065546Y-90097753D01*
X154994974Y-89965724D01*
X154923799Y-89878997D01*
X154900001Y-89849999D01*
X154871003Y-89826201D01*
X143667087Y-78622285D01*
X149665000Y-78622285D01*
X149665000Y-79377715D01*
X149812377Y-80118628D01*
X150101467Y-80816554D01*
X150521161Y-81444670D01*
X151055330Y-81978839D01*
X151683446Y-82398533D01*
X152381372Y-82687623D01*
X153122285Y-82835000D01*
X153877715Y-82835000D01*
X154618628Y-82687623D01*
X155316554Y-82398533D01*
X155944670Y-81978839D01*
X156478839Y-81444670D01*
X156898533Y-80816554D01*
X157187623Y-80118628D01*
X157335000Y-79377715D01*
X157335000Y-78622285D01*
X157187623Y-77881372D01*
X156898533Y-77183446D01*
X156478839Y-76555330D01*
X155944670Y-76021161D01*
X155316554Y-75601467D01*
X154618628Y-75312377D01*
X153877715Y-75165000D01*
X153122285Y-75165000D01*
X152381372Y-75312377D01*
X151683446Y-75601467D01*
X151055330Y-76021161D01*
X150521161Y-76555330D01*
X150101467Y-77183446D01*
X149812377Y-77881372D01*
X149665000Y-78622285D01*
X143667087Y-78622285D01*
X141558688Y-76513887D01*
X141595000Y-76331335D01*
X141595000Y-76048665D01*
X141539853Y-75771426D01*
X141431680Y-75510273D01*
X141274637Y-75275241D01*
X141074759Y-75075363D01*
X140842241Y-74920000D01*
X141074759Y-74764637D01*
X141274637Y-74564759D01*
X141431680Y-74329727D01*
X141539853Y-74068574D01*
X141595000Y-73791335D01*
X141595000Y-73508665D01*
X141539853Y-73231426D01*
X141431680Y-72970273D01*
X141274637Y-72735241D01*
X141074759Y-72535363D01*
X140842241Y-72380000D01*
X141074759Y-72224637D01*
X141274637Y-72024759D01*
X141431680Y-71789727D01*
X141539853Y-71528574D01*
X141595000Y-71251335D01*
X141595000Y-70968665D01*
X141539853Y-70691426D01*
X141431680Y-70430273D01*
X141274637Y-70195241D01*
X141074759Y-69995363D01*
X140842241Y-69840000D01*
X141074759Y-69684637D01*
X141274637Y-69484759D01*
X141431680Y-69249727D01*
X141539853Y-68988574D01*
X141595000Y-68711335D01*
X141595000Y-68428665D01*
X141539853Y-68151426D01*
X141431680Y-67890273D01*
X141274637Y-67655241D01*
X141074759Y-67455363D01*
X140840872Y-67299085D01*
X140901514Y-67266671D01*
X140973097Y-67022702D01*
X140160000Y-66209605D01*
X139346903Y-67022702D01*
X139418486Y-67266671D01*
X139482992Y-67297194D01*
X139480273Y-67298320D01*
X139245241Y-67455363D01*
X139045363Y-67655241D01*
X138888320Y-67890273D01*
X138780147Y-68151426D01*
X138725000Y-68428665D01*
X138725000Y-68711335D01*
X138780147Y-68988574D01*
X138888320Y-69249727D01*
X139045363Y-69484759D01*
X139245241Y-69684637D01*
X139477759Y-69840000D01*
X139245241Y-69995363D01*
X139045363Y-70195241D01*
X138888320Y-70430273D01*
X138780147Y-70691426D01*
X138725000Y-70968665D01*
X138725000Y-71251335D01*
X138780147Y-71528574D01*
X138888320Y-71789727D01*
X139045363Y-72024759D01*
X139245241Y-72224637D01*
X139477759Y-72380000D01*
X139245241Y-72535363D01*
X139045363Y-72735241D01*
X138888320Y-72970273D01*
X138780147Y-73231426D01*
X138725000Y-73508665D01*
X138725000Y-73791335D01*
X138761312Y-73973886D01*
X124109002Y-88626197D01*
X124079998Y-88650000D01*
X124051296Y-88684974D01*
X123985025Y-88765725D01*
X123942943Y-88844454D01*
X123914453Y-88897755D01*
X123870996Y-89041016D01*
X123859999Y-89152669D01*
X123859999Y-89152679D01*
X123856323Y-89190001D01*
X123859999Y-89227323D01*
X123860000Y-118407314D01*
X123856690Y-118436690D01*
X123827323Y-118439999D01*
X121109705Y-118439999D01*
X121104422Y-118439025D01*
X121034959Y-118439999D01*
X121002902Y-118439999D01*
X120997581Y-118440523D01*
X120992240Y-118440598D01*
X120960427Y-118444182D01*
X120891249Y-118450996D01*
X120886104Y-118452557D01*
X120814739Y-118460598D01*
X120766590Y-118462625D01*
X120704204Y-118477787D01*
X120641434Y-118491191D01*
X120597177Y-118510254D01*
X120488965Y-118548119D01*
X120442480Y-118560808D01*
X120385050Y-118589463D01*
X120326818Y-118616507D01*
X120287908Y-118644944D01*
X120190838Y-118705937D01*
X120148341Y-118728652D01*
X120098724Y-118769372D01*
X120047975Y-118808691D01*
X120016369Y-118845072D01*
X119935308Y-118926133D01*
X119898927Y-118957739D01*
X119859615Y-119008479D01*
X119818887Y-119058105D01*
X119796166Y-119100612D01*
X119735176Y-119197678D01*
X119706744Y-119236582D01*
X119679706Y-119294802D01*
X119651044Y-119352244D01*
X119638355Y-119398731D01*
X119600493Y-119506935D01*
X119581427Y-119551198D01*
X119568020Y-119613986D01*
X119552861Y-119676355D01*
X119550834Y-119724503D01*
X119537998Y-119838425D01*
X119529261Y-119885812D01*
X119530161Y-119949999D01*
X119529261Y-120014186D01*
X119537998Y-120061573D01*
X119550834Y-120175495D01*
X119552861Y-120223642D01*
X119568019Y-120286007D01*
X119581427Y-120348799D01*
X119600493Y-120393062D01*
X119638355Y-120501266D01*
X119651044Y-120547753D01*
X119679706Y-120605195D01*
X119706744Y-120663415D01*
X119735176Y-120702319D01*
X119796166Y-120799385D01*
X119818887Y-120841892D01*
X119859615Y-120891518D01*
X119898927Y-120942258D01*
X119935308Y-120973864D01*
X120016369Y-121054925D01*
X120047975Y-121091306D01*
X120098724Y-121130625D01*
X120148341Y-121171345D01*
X120190838Y-121194060D01*
X120287908Y-121255053D01*
X120326818Y-121283490D01*
X120385050Y-121310534D01*
X120442480Y-121339189D01*
X120488965Y-121351878D01*
X120597172Y-121389741D01*
X120641430Y-121408805D01*
X120704203Y-121422209D01*
X120766590Y-121437372D01*
X120814742Y-121439399D01*
X120886099Y-121447440D01*
X120891249Y-121449002D01*
X120960474Y-121455820D01*
X120992236Y-121459399D01*
X120997570Y-121459474D01*
X121002902Y-121459999D01*
X121034999Y-121459999D01*
X121104418Y-121460973D01*
X121109701Y-121459999D01*
X125149816Y-121459999D01*
X125144503Y-121460598D01*
X125096355Y-121462625D01*
X125033973Y-121477786D01*
X124971199Y-121491191D01*
X124926942Y-121510254D01*
X124818730Y-121548119D01*
X124772245Y-121560808D01*
X124714815Y-121589463D01*
X124656583Y-121616507D01*
X124617673Y-121644944D01*
X124520603Y-121705937D01*
X124478106Y-121728652D01*
X124428489Y-121769372D01*
X124377740Y-121808691D01*
X124346134Y-121845072D01*
X124265073Y-121926133D01*
X124228692Y-121957739D01*
X124189380Y-122008479D01*
X124148652Y-122058105D01*
X124125931Y-122100612D01*
X124064941Y-122197678D01*
X124036509Y-122236582D01*
X124009471Y-122294802D01*
X123980809Y-122352244D01*
X123968120Y-122398731D01*
X123930259Y-122506932D01*
X123911193Y-122551194D01*
X123897785Y-122613985D01*
X123882626Y-122676355D01*
X123880599Y-122724506D01*
X123872558Y-122795864D01*
X123870996Y-122801014D01*
X123864178Y-122870238D01*
X123860599Y-122902001D01*
X123860524Y-122907335D01*
X123859999Y-122912667D01*
X123859999Y-122944764D01*
X123859025Y-123014182D01*
X123859999Y-123019465D01*
X123860000Y-174582666D01*
X123856323Y-174619999D01*
X123870997Y-174768984D01*
X123914453Y-174912245D01*
X123985025Y-175044275D01*
X124056200Y-175131001D01*
X124079999Y-175160000D01*
X124108997Y-175183798D01*
X124472235Y-175547036D01*
X124464463Y-175556506D01*
X124405498Y-175666820D01*
X124369188Y-175786518D01*
X124356928Y-175911000D01*
X124356928Y-176469000D01*
X124369188Y-176593482D01*
X124405498Y-176713180D01*
X124464463Y-176823494D01*
X124465610Y-176824892D01*
X124465255Y-176825323D01*
X124406045Y-176935506D01*
X124369468Y-177055122D01*
X124360000Y-177174250D01*
X124518750Y-177333000D01*
X126063000Y-177333000D01*
X126063000Y-177313000D01*
X126317000Y-177313000D01*
X126317000Y-177333000D01*
X127861250Y-177333000D01*
X128020000Y-177174250D01*
X128010532Y-177055122D01*
X127973955Y-176935506D01*
X127914745Y-176825323D01*
X127914390Y-176824892D01*
X127915537Y-176823494D01*
X127974502Y-176713180D01*
X128010812Y-176593482D01*
X128023072Y-176469000D01*
X128023072Y-175911000D01*
X128010812Y-175786518D01*
X127974502Y-175666820D01*
X127915537Y-175556506D01*
X127836185Y-175459815D01*
X127739494Y-175380463D01*
X127629180Y-175321498D01*
X127509482Y-175285188D01*
X127385000Y-175272928D01*
X126347730Y-175272928D01*
X125379999Y-174305198D01*
X125379999Y-122992675D01*
X125383308Y-122963308D01*
X125412677Y-122959999D01*
X128130297Y-122959999D01*
X128135580Y-122960973D01*
X128204998Y-122959999D01*
X128237096Y-122959999D01*
X128242428Y-122959474D01*
X128247761Y-122959399D01*
X128279517Y-122955821D01*
X128348749Y-122949002D01*
X128353899Y-122947440D01*
X128425256Y-122939399D01*
X128473407Y-122937372D01*
X128535777Y-122922213D01*
X128598568Y-122908805D01*
X128642830Y-122889739D01*
X128751031Y-122851878D01*
X128797518Y-122839189D01*
X128854960Y-122810527D01*
X128913180Y-122783489D01*
X128952084Y-122755057D01*
X129049150Y-122694067D01*
X129091657Y-122671346D01*
X129141283Y-122630618D01*
X129192023Y-122591306D01*
X129223629Y-122554925D01*
X129304690Y-122473864D01*
X129341071Y-122442258D01*
X129380390Y-122391509D01*
X129421110Y-122341892D01*
X129443825Y-122299395D01*
X129504818Y-122202325D01*
X129533255Y-122163415D01*
X129560299Y-122105183D01*
X129588954Y-122047753D01*
X129601643Y-122001268D01*
X129639508Y-121893056D01*
X129658571Y-121848799D01*
X129671976Y-121786025D01*
X129687137Y-121723643D01*
X129689164Y-121675495D01*
X129702000Y-121561572D01*
X129710737Y-121514186D01*
X129709837Y-121449999D01*
X129710737Y-121385812D01*
X129702000Y-121338426D01*
X129689164Y-121224503D01*
X129687137Y-121176354D01*
X129671975Y-121113968D01*
X129658571Y-121051198D01*
X129639508Y-121006941D01*
X129601643Y-120898729D01*
X129588954Y-120852244D01*
X129560299Y-120794814D01*
X129533255Y-120736582D01*
X129504818Y-120697672D01*
X129443825Y-120600602D01*
X129421110Y-120558105D01*
X129380390Y-120508488D01*
X129341071Y-120457739D01*
X129304690Y-120426133D01*
X129223629Y-120345072D01*
X129192023Y-120308691D01*
X129141283Y-120269379D01*
X129091657Y-120228651D01*
X129049150Y-120205930D01*
X128952084Y-120144940D01*
X128913180Y-120116508D01*
X128854960Y-120089470D01*
X128797518Y-120060808D01*
X128751031Y-120048119D01*
X128642827Y-120010257D01*
X128598564Y-119991191D01*
X128535776Y-119977784D01*
X128473407Y-119962625D01*
X128425259Y-119960598D01*
X128353894Y-119952557D01*
X128348749Y-119950996D01*
X128279564Y-119944182D01*
X128247757Y-119940598D01*
X128242418Y-119940523D01*
X128237096Y-119939999D01*
X128205038Y-119939999D01*
X128135576Y-119939025D01*
X128130293Y-119939999D01*
X124090171Y-119939999D01*
X124095492Y-119939399D01*
X124143642Y-119937372D01*
X124206023Y-119922210D01*
X124268804Y-119908804D01*
X124313062Y-119889740D01*
X124421266Y-119851878D01*
X124467753Y-119839189D01*
X124525195Y-119810527D01*
X124583415Y-119783489D01*
X124622319Y-119755057D01*
X124719385Y-119694067D01*
X124761892Y-119671346D01*
X124811518Y-119630618D01*
X124862258Y-119591306D01*
X124893864Y-119554925D01*
X124974925Y-119473864D01*
X125011306Y-119442258D01*
X125050625Y-119391509D01*
X125091345Y-119341892D01*
X125114060Y-119299395D01*
X125175053Y-119202325D01*
X125203490Y-119163415D01*
X125230534Y-119105183D01*
X125259189Y-119047753D01*
X125271878Y-119001268D01*
X125309743Y-118893056D01*
X125328804Y-118848804D01*
X125342207Y-118786041D01*
X125357372Y-118723643D01*
X125359399Y-118675492D01*
X125367440Y-118604135D01*
X125369002Y-118598985D01*
X125375822Y-118529743D01*
X125379399Y-118497999D01*
X125379474Y-118492664D01*
X125379999Y-118487332D01*
X125379999Y-118455236D01*
X125380973Y-118385817D01*
X125379999Y-118380534D01*
X125379999Y-89504802D01*
X138725000Y-76159802D01*
X138725000Y-76331335D01*
X138780147Y-76608574D01*
X138888320Y-76869727D01*
X139045363Y-77104759D01*
X139245241Y-77304637D01*
X139477759Y-77460000D01*
X139245241Y-77615363D01*
X139045363Y-77815241D01*
X138888320Y-78050273D01*
X138780147Y-78311426D01*
X138725000Y-78588665D01*
X138725000Y-78871335D01*
X138780147Y-79148574D01*
X138888320Y-79409727D01*
X139045363Y-79644759D01*
X139245241Y-79844637D01*
X139477759Y-80000000D01*
X139245241Y-80155363D01*
X139045363Y-80355241D01*
X138888320Y-80590273D01*
X138780147Y-80851426D01*
X138725000Y-81128665D01*
X138725000Y-81411335D01*
X138780147Y-81688574D01*
X138888320Y-81949727D01*
X139045363Y-82184759D01*
X139245241Y-82384637D01*
X139477759Y-82540000D01*
X139245241Y-82695363D01*
X139045363Y-82895241D01*
X138941957Y-83050000D01*
X135757333Y-83050000D01*
X135720000Y-83046323D01*
X135682667Y-83050000D01*
X135571014Y-83060997D01*
X135427753Y-83104454D01*
X135295724Y-83175026D01*
X135179999Y-83269999D01*
X135156201Y-83298997D01*
X130969003Y-87486196D01*
X130939999Y-87509999D01*
X130884871Y-87577174D01*
X130845026Y-87625724D01*
X130774455Y-87757753D01*
X130774454Y-87757754D01*
X130730997Y-87901015D01*
X130720000Y-88012668D01*
X130720000Y-88012678D01*
X130716324Y-88050000D01*
X130720000Y-88087322D01*
X130720001Y-140487315D01*
X130716691Y-140516691D01*
X130687324Y-140520000D01*
X129995697Y-140520000D01*
X129990414Y-140519026D01*
X129920951Y-140520000D01*
X129888894Y-140520000D01*
X129883573Y-140520524D01*
X129878232Y-140520599D01*
X129846419Y-140524183D01*
X129777241Y-140530997D01*
X129772096Y-140532558D01*
X129700731Y-140540599D01*
X129652582Y-140542626D01*
X129590196Y-140557788D01*
X129527426Y-140571192D01*
X129483169Y-140590255D01*
X129374957Y-140628120D01*
X129328472Y-140640809D01*
X129271042Y-140669464D01*
X129212810Y-140696508D01*
X129173900Y-140724945D01*
X129076830Y-140785938D01*
X129034333Y-140808653D01*
X128984716Y-140849373D01*
X128933967Y-140888692D01*
X128902361Y-140925073D01*
X128821300Y-141006134D01*
X128784919Y-141037740D01*
X128745607Y-141088480D01*
X128704879Y-141138106D01*
X128682158Y-141180613D01*
X128621168Y-141277679D01*
X128592736Y-141316583D01*
X128565698Y-141374803D01*
X128537036Y-141432245D01*
X128524347Y-141478732D01*
X128486485Y-141586936D01*
X128467419Y-141631199D01*
X128454012Y-141693987D01*
X128438853Y-141756356D01*
X128436826Y-141804504D01*
X128423990Y-141918426D01*
X128415253Y-141965813D01*
X128416153Y-142030000D01*
X128415253Y-142094187D01*
X128423990Y-142141574D01*
X128436826Y-142255496D01*
X128438853Y-142303643D01*
X128454011Y-142366008D01*
X128467419Y-142428800D01*
X128486485Y-142473063D01*
X128524347Y-142581267D01*
X128537036Y-142627754D01*
X128565698Y-142685196D01*
X128592736Y-142743416D01*
X128621168Y-142782320D01*
X128682158Y-142879386D01*
X128704879Y-142921893D01*
X128745607Y-142971519D01*
X128784919Y-143022259D01*
X128821300Y-143053865D01*
X128902361Y-143134926D01*
X128933967Y-143171307D01*
X128984716Y-143210626D01*
X129034333Y-143251346D01*
X129076830Y-143274061D01*
X129173900Y-143335054D01*
X129212810Y-143363491D01*
X129271042Y-143390535D01*
X129328472Y-143419190D01*
X129374957Y-143431879D01*
X129483164Y-143469742D01*
X129527422Y-143488806D01*
X129590195Y-143502210D01*
X129652582Y-143517373D01*
X129700734Y-143519400D01*
X129772091Y-143527441D01*
X129777241Y-143529003D01*
X129787364Y-143530000D01*
X129777241Y-143530997D01*
X129772096Y-143532558D01*
X129700731Y-143540599D01*
X129652582Y-143542626D01*
X129590196Y-143557788D01*
X129527426Y-143571192D01*
X129483169Y-143590255D01*
X129374957Y-143628120D01*
X129328472Y-143640809D01*
X129271042Y-143669464D01*
X129212810Y-143696508D01*
X129173900Y-143724945D01*
X129076830Y-143785938D01*
X129034333Y-143808653D01*
X128984716Y-143849373D01*
X128933967Y-143888692D01*
X128902361Y-143925073D01*
X128821300Y-144006134D01*
X128784919Y-144037740D01*
X128745607Y-144088480D01*
X128704879Y-144138106D01*
X128682158Y-144180613D01*
X128621168Y-144277679D01*
X128592736Y-144316583D01*
X128565698Y-144374803D01*
X128537036Y-144432245D01*
X128524347Y-144478732D01*
X128486485Y-144586936D01*
X128467419Y-144631199D01*
X128454012Y-144693987D01*
X128438853Y-144756356D01*
X128436826Y-144804504D01*
X128423990Y-144918426D01*
X128415253Y-144965813D01*
X128416153Y-145030000D01*
X128415253Y-145094187D01*
X128423990Y-145141574D01*
X128436826Y-145255496D01*
X128438853Y-145303643D01*
X128454011Y-145366008D01*
X128467419Y-145428800D01*
X128486485Y-145473063D01*
X128524347Y-145581267D01*
X128537036Y-145627754D01*
X128565698Y-145685196D01*
X128592736Y-145743416D01*
X128621168Y-145782320D01*
X128682158Y-145879386D01*
X128704879Y-145921893D01*
X128745607Y-145971519D01*
X128784919Y-146022259D01*
X128821300Y-146053865D01*
X128902361Y-146134926D01*
X128933967Y-146171307D01*
X128984716Y-146210626D01*
X129034333Y-146251346D01*
X129076830Y-146274061D01*
X129173900Y-146335054D01*
X129212810Y-146363491D01*
X129271042Y-146390535D01*
X129328472Y-146419190D01*
X129374957Y-146431879D01*
X129483164Y-146469742D01*
X129527422Y-146488806D01*
X129590195Y-146502210D01*
X129652582Y-146517373D01*
X129700734Y-146519400D01*
X129772091Y-146527441D01*
X129777241Y-146529003D01*
X129846466Y-146535821D01*
X129878228Y-146539400D01*
X129883562Y-146539475D01*
X129888894Y-146540000D01*
X129920991Y-146540000D01*
X129990410Y-146540974D01*
X129995693Y-146540000D01*
X130687322Y-146540000D01*
X130716691Y-146543309D01*
X130720000Y-146572675D01*
X130720001Y-180354199D01*
X127932567Y-183141634D01*
X127974502Y-183063180D01*
X128010812Y-182943482D01*
X128023072Y-182819000D01*
X128023072Y-182261000D01*
X128010812Y-182136518D01*
X127974502Y-182016820D01*
X127915537Y-181906506D01*
X127914301Y-181905000D01*
X127915537Y-181903494D01*
X127974502Y-181793180D01*
X128010812Y-181673482D01*
X128023072Y-181549000D01*
X128023072Y-180991000D01*
X128010812Y-180866518D01*
X127974502Y-180746820D01*
X127915537Y-180636506D01*
X127914301Y-180635000D01*
X127915537Y-180633494D01*
X127974502Y-180523180D01*
X128010812Y-180403482D01*
X128023072Y-180279000D01*
X128023072Y-179721000D01*
X128010812Y-179596518D01*
X127974502Y-179476820D01*
X127915537Y-179366506D01*
X127914301Y-179365000D01*
X127915537Y-179363494D01*
X127974502Y-179253180D01*
X128010812Y-179133482D01*
X128023072Y-179009000D01*
X128023072Y-178451000D01*
X128010812Y-178326518D01*
X127974502Y-178206820D01*
X127915537Y-178096506D01*
X127914390Y-178095108D01*
X127914745Y-178094677D01*
X127973955Y-177984494D01*
X128010532Y-177864878D01*
X128020000Y-177745750D01*
X127861250Y-177587000D01*
X126317000Y-177587000D01*
X126317000Y-177607000D01*
X126063000Y-177607000D01*
X126063000Y-177587000D01*
X124518750Y-177587000D01*
X124360000Y-177745750D01*
X124369468Y-177864878D01*
X124401613Y-177970000D01*
X121894802Y-177970000D01*
X116330000Y-172405199D01*
X116330000Y-170258729D01*
X116373937Y-170214792D01*
X116487205Y-170045274D01*
X116565226Y-169856916D01*
X116605000Y-169656957D01*
X116605000Y-169453079D01*
X116565226Y-169253120D01*
X116487205Y-169064762D01*
X116373937Y-168895244D01*
X116229774Y-168751081D01*
X116060256Y-168637813D01*
X115871898Y-168559792D01*
X115671939Y-168520018D01*
X115468061Y-168520018D01*
X115268102Y-168559792D01*
X115079744Y-168637813D01*
X114910226Y-168751081D01*
X114766063Y-168895244D01*
X114652795Y-169064762D01*
X114574774Y-169253120D01*
X114535000Y-169453079D01*
X114535000Y-169656957D01*
X114574774Y-169856916D01*
X114652795Y-170045274D01*
X114766063Y-170214792D01*
X114810001Y-170258730D01*
X114810000Y-172682677D01*
X114806324Y-172720000D01*
X114810000Y-172757322D01*
X114810000Y-172757332D01*
X114820997Y-172868985D01*
X114864454Y-173012246D01*
X114935026Y-173144276D01*
X114974871Y-173192826D01*
X115029999Y-173260001D01*
X115059003Y-173283804D01*
X121016201Y-179241003D01*
X121039999Y-179270001D01*
X121068997Y-179293799D01*
X121155724Y-179364974D01*
X121287753Y-179435546D01*
X121431014Y-179479003D01*
X121580000Y-179493677D01*
X121617333Y-179490000D01*
X124401500Y-179490000D01*
X124369188Y-179596518D01*
X124356928Y-179721000D01*
X124356928Y-180279000D01*
X124369188Y-180403482D01*
X124405498Y-180523180D01*
X124464463Y-180633494D01*
X124465699Y-180635000D01*
X124464463Y-180636506D01*
X124405498Y-180746820D01*
X124369188Y-180866518D01*
X124356928Y-180991000D01*
X124356928Y-181549000D01*
X124369188Y-181673482D01*
X124405498Y-181793180D01*
X124464463Y-181903494D01*
X124465699Y-181905000D01*
X124464463Y-181906506D01*
X124405498Y-182016820D01*
X124369188Y-182136518D01*
X124356928Y-182261000D01*
X124356928Y-182819000D01*
X124369188Y-182943482D01*
X124401500Y-183050000D01*
X119724802Y-183050000D01*
X107640000Y-170965199D01*
X107640000Y-131259466D01*
X107640974Y-131254183D01*
X107640000Y-131184764D01*
X107640000Y-131152667D01*
X107639475Y-131147335D01*
X107639400Y-131142001D01*
X107635821Y-131110239D01*
X107629003Y-131041014D01*
X107627441Y-131035864D01*
X107619400Y-130964507D01*
X107617373Y-130916355D01*
X107602210Y-130853968D01*
X107588806Y-130791195D01*
X107569742Y-130746937D01*
X107531879Y-130638730D01*
X107519190Y-130592245D01*
X107490535Y-130534815D01*
X107463491Y-130476583D01*
X107435054Y-130437673D01*
X107374061Y-130340603D01*
X107351346Y-130298106D01*
X107310626Y-130248489D01*
X107271307Y-130197740D01*
X107234926Y-130166134D01*
X107153865Y-130085073D01*
X107122259Y-130048692D01*
X107071519Y-130009380D01*
X107021893Y-129968652D01*
X106979386Y-129945931D01*
X106882320Y-129884941D01*
X106843416Y-129856509D01*
X106785196Y-129829471D01*
X106727754Y-129800809D01*
X106681267Y-129788120D01*
X106573063Y-129750258D01*
X106528800Y-129731192D01*
X106466008Y-129717784D01*
X106403643Y-129702626D01*
X106355496Y-129700599D01*
X106284131Y-129692558D01*
X106278986Y-129690997D01*
X106268863Y-129690000D01*
X106278986Y-129689003D01*
X106284136Y-129687441D01*
X106355493Y-129679400D01*
X106403643Y-129677373D01*
X106466024Y-129662211D01*
X106528805Y-129648805D01*
X106573063Y-129629741D01*
X106681267Y-129591879D01*
X106727754Y-129579190D01*
X106785196Y-129550528D01*
X106843416Y-129523490D01*
X106882320Y-129495058D01*
X106979386Y-129434068D01*
X107021893Y-129411347D01*
X107071519Y-129370619D01*
X107122259Y-129331307D01*
X107153865Y-129294926D01*
X107234926Y-129213865D01*
X107271307Y-129182259D01*
X107310626Y-129131510D01*
X107351346Y-129081893D01*
X107374061Y-129039396D01*
X107435054Y-128942326D01*
X107463491Y-128903416D01*
X107490535Y-128845184D01*
X107519190Y-128787754D01*
X107531879Y-128741269D01*
X107569744Y-128633057D01*
X107588805Y-128588805D01*
X107602208Y-128526042D01*
X107617373Y-128463644D01*
X107619400Y-128415493D01*
X107627441Y-128344136D01*
X107629003Y-128338986D01*
X107635823Y-128269744D01*
X107639400Y-128238000D01*
X107639475Y-128232665D01*
X107640000Y-128227333D01*
X107640000Y-128195237D01*
X107640974Y-128125818D01*
X107640000Y-128120535D01*
X107640000Y-100052702D01*
X109676903Y-100052702D01*
X109748486Y-100296671D01*
X110003996Y-100417571D01*
X110278184Y-100486300D01*
X110560512Y-100500217D01*
X110840130Y-100458787D01*
X111106292Y-100363603D01*
X111231514Y-100296671D01*
X111303097Y-100052702D01*
X110490000Y-99239605D01*
X109676903Y-100052702D01*
X107640000Y-100052702D01*
X107640000Y-99130512D01*
X109049783Y-99130512D01*
X109091213Y-99410130D01*
X109186397Y-99676292D01*
X109253329Y-99801514D01*
X109497298Y-99873097D01*
X110310395Y-99060000D01*
X110669605Y-99060000D01*
X111482702Y-99873097D01*
X111726671Y-99801514D01*
X111847571Y-99546004D01*
X111916300Y-99271816D01*
X111930217Y-98989488D01*
X111888787Y-98709870D01*
X111793603Y-98443708D01*
X111726671Y-98318486D01*
X111482702Y-98246903D01*
X110669605Y-99060000D01*
X110310395Y-99060000D01*
X109497298Y-98246903D01*
X109253329Y-98318486D01*
X109132429Y-98573996D01*
X109063700Y-98848184D01*
X109049783Y-99130512D01*
X107640000Y-99130512D01*
X107640000Y-98067298D01*
X109676903Y-98067298D01*
X110490000Y-98880395D01*
X111303097Y-98067298D01*
X111231514Y-97823329D01*
X110976004Y-97702429D01*
X110701816Y-97633700D01*
X110419488Y-97619783D01*
X110139870Y-97661213D01*
X109873708Y-97756397D01*
X109748486Y-97823329D01*
X109676903Y-98067298D01*
X107640000Y-98067298D01*
X107640000Y-90474801D01*
X111004802Y-87110000D01*
X118621957Y-87110000D01*
X118725363Y-87264759D01*
X118925241Y-87464637D01*
X119157759Y-87620000D01*
X118925241Y-87775363D01*
X118725363Y-87975241D01*
X118568320Y-88210273D01*
X118460147Y-88471426D01*
X118405000Y-88748665D01*
X118405000Y-89031335D01*
X118460147Y-89308574D01*
X118568320Y-89569727D01*
X118725363Y-89804759D01*
X118925241Y-90004637D01*
X119157759Y-90160000D01*
X118925241Y-90315363D01*
X118725363Y-90515241D01*
X118621957Y-90670000D01*
X111701362Y-90670000D01*
X111604637Y-90525241D01*
X111404759Y-90325363D01*
X111169727Y-90168320D01*
X110908574Y-90060147D01*
X110631335Y-90005000D01*
X110348665Y-90005000D01*
X110071426Y-90060147D01*
X109810273Y-90168320D01*
X109575241Y-90325363D01*
X109375363Y-90525241D01*
X109218320Y-90760273D01*
X109110147Y-91021426D01*
X109055000Y-91298665D01*
X109055000Y-91581335D01*
X109110147Y-91858574D01*
X109218320Y-92119727D01*
X109375363Y-92354759D01*
X109575241Y-92554637D01*
X109810273Y-92711680D01*
X110071426Y-92819853D01*
X110348665Y-92875000D01*
X110631335Y-92875000D01*
X110908574Y-92819853D01*
X111169727Y-92711680D01*
X111404759Y-92554637D01*
X111604637Y-92354759D01*
X111714725Y-92190000D01*
X118621957Y-92190000D01*
X118725363Y-92344759D01*
X118925241Y-92544637D01*
X119157759Y-92700000D01*
X118925241Y-92855363D01*
X118725363Y-93055241D01*
X118568320Y-93290273D01*
X118460147Y-93551426D01*
X118405000Y-93828665D01*
X118405000Y-94111335D01*
X118460147Y-94388574D01*
X118568320Y-94649727D01*
X118725363Y-94884759D01*
X118925241Y-95084637D01*
X119160273Y-95241680D01*
X119421426Y-95349853D01*
X119698665Y-95405000D01*
X119981335Y-95405000D01*
X120258574Y-95349853D01*
X120519727Y-95241680D01*
X120754759Y-95084637D01*
X120954637Y-94884759D01*
X121111680Y-94649727D01*
X121219853Y-94388574D01*
X121275000Y-94111335D01*
X121275000Y-93828665D01*
X121219853Y-93551426D01*
X121111680Y-93290273D01*
X120954637Y-93055241D01*
X120754759Y-92855363D01*
X120522241Y-92700000D01*
X120754759Y-92544637D01*
X120954637Y-92344759D01*
X121111680Y-92109727D01*
X121219853Y-91848574D01*
X121275000Y-91571335D01*
X121275000Y-91288665D01*
X121219853Y-91011426D01*
X121111680Y-90750273D01*
X120954637Y-90515241D01*
X120754759Y-90315363D01*
X120522241Y-90160000D01*
X120754759Y-90004637D01*
X120954637Y-89804759D01*
X121111680Y-89569727D01*
X121219853Y-89308574D01*
X121275000Y-89031335D01*
X121275000Y-88748665D01*
X121219853Y-88471426D01*
X121111680Y-88210273D01*
X120954637Y-87975241D01*
X120754759Y-87775363D01*
X120522241Y-87620000D01*
X120754759Y-87464637D01*
X120954637Y-87264759D01*
X121111680Y-87029727D01*
X121219853Y-86768574D01*
X121275000Y-86491335D01*
X121275000Y-86208665D01*
X121219853Y-85931426D01*
X121111680Y-85670273D01*
X120954637Y-85435241D01*
X120754759Y-85235363D01*
X120522241Y-85080000D01*
X120754759Y-84924637D01*
X120954637Y-84724759D01*
X121111680Y-84489727D01*
X121219853Y-84228574D01*
X121275000Y-83951335D01*
X121275000Y-83668665D01*
X121219853Y-83391426D01*
X121111680Y-83130273D01*
X120954637Y-82895241D01*
X120754759Y-82695363D01*
X120522241Y-82540000D01*
X120754759Y-82384637D01*
X120954637Y-82184759D01*
X121111680Y-81949727D01*
X121219853Y-81688574D01*
X121275000Y-81411335D01*
X121275000Y-81128665D01*
X121219853Y-80851426D01*
X121111680Y-80590273D01*
X120954637Y-80355241D01*
X120754759Y-80155363D01*
X120522241Y-80000000D01*
X120754759Y-79844637D01*
X120954637Y-79644759D01*
X121111680Y-79409727D01*
X121219853Y-79148574D01*
X121275000Y-78871335D01*
X121275000Y-78588665D01*
X121219853Y-78311426D01*
X121111680Y-78050273D01*
X120954637Y-77815241D01*
X120754759Y-77615363D01*
X120522241Y-77460000D01*
X120754759Y-77304637D01*
X120954637Y-77104759D01*
X121111680Y-76869727D01*
X121219853Y-76608574D01*
X121275000Y-76331335D01*
X121275000Y-76048665D01*
X121219853Y-75771426D01*
X121111680Y-75510273D01*
X120954637Y-75275241D01*
X120754759Y-75075363D01*
X120522241Y-74920000D01*
X120754759Y-74764637D01*
X120954637Y-74564759D01*
X121111680Y-74329727D01*
X121219853Y-74068574D01*
X121275000Y-73791335D01*
X121275000Y-73508665D01*
X121219853Y-73231426D01*
X121111680Y-72970273D01*
X120954637Y-72735241D01*
X120754759Y-72535363D01*
X120522241Y-72380000D01*
X120754759Y-72224637D01*
X120954637Y-72024759D01*
X121111680Y-71789727D01*
X121219853Y-71528574D01*
X121275000Y-71251335D01*
X121275000Y-70968665D01*
X121219853Y-70691426D01*
X121111680Y-70430273D01*
X120954637Y-70195241D01*
X120754759Y-69995363D01*
X120522241Y-69840000D01*
X120754759Y-69684637D01*
X120954637Y-69484759D01*
X121111680Y-69249727D01*
X121219853Y-68988574D01*
X121275000Y-68711335D01*
X121275000Y-68428665D01*
X121219853Y-68151426D01*
X121111680Y-67890273D01*
X120954637Y-67655241D01*
X120754759Y-67455363D01*
X120522241Y-67300000D01*
X120754759Y-67144637D01*
X120954637Y-66944759D01*
X121111680Y-66709727D01*
X121219853Y-66448574D01*
X121275000Y-66171335D01*
X121275000Y-66100512D01*
X138719783Y-66100512D01*
X138761213Y-66380130D01*
X138856397Y-66646292D01*
X138923329Y-66771514D01*
X139167298Y-66843097D01*
X139980395Y-66030000D01*
X140339605Y-66030000D01*
X141152702Y-66843097D01*
X141396671Y-66771514D01*
X141517571Y-66516004D01*
X141586300Y-66241816D01*
X141600217Y-65959488D01*
X141558787Y-65679870D01*
X141463603Y-65413708D01*
X141396671Y-65288486D01*
X141152702Y-65216903D01*
X140339605Y-66030000D01*
X139980395Y-66030000D01*
X139167298Y-65216903D01*
X138923329Y-65288486D01*
X138802429Y-65543996D01*
X138733700Y-65818184D01*
X138719783Y-66100512D01*
X121275000Y-66100512D01*
X121275000Y-65888665D01*
X121219853Y-65611426D01*
X121111680Y-65350273D01*
X120954637Y-65115241D01*
X120876694Y-65037298D01*
X139346903Y-65037298D01*
X140160000Y-65850395D01*
X140973097Y-65037298D01*
X140901514Y-64793329D01*
X140646004Y-64672429D01*
X140371816Y-64603700D01*
X140089488Y-64589783D01*
X139809870Y-64631213D01*
X139543708Y-64726397D01*
X139418486Y-64793329D01*
X139346903Y-65037298D01*
X120876694Y-65037298D01*
X120754759Y-64915363D01*
X120519727Y-64758320D01*
X120258574Y-64650147D01*
X119981335Y-64595000D01*
X119698665Y-64595000D01*
X119421426Y-64650147D01*
X119160273Y-64758320D01*
X118925241Y-64915363D01*
X118725363Y-65115241D01*
X118568320Y-65350273D01*
X118460147Y-65611426D01*
X118405000Y-65888665D01*
X118405000Y-66171335D01*
X118460147Y-66448574D01*
X118568320Y-66709727D01*
X118725363Y-66944759D01*
X118925241Y-67144637D01*
X119157759Y-67300000D01*
X118925241Y-67455363D01*
X118725363Y-67655241D01*
X118568320Y-67890273D01*
X118460147Y-68151426D01*
X118405000Y-68428665D01*
X118405000Y-68711335D01*
X118460147Y-68988574D01*
X118568320Y-69249727D01*
X118725363Y-69484759D01*
X118925241Y-69684637D01*
X119157759Y-69840000D01*
X118925241Y-69995363D01*
X118725363Y-70195241D01*
X118568320Y-70430273D01*
X118460147Y-70691426D01*
X118405000Y-70968665D01*
X118405000Y-71251335D01*
X118460147Y-71528574D01*
X118568320Y-71789727D01*
X118725363Y-72024759D01*
X118925241Y-72224637D01*
X119157759Y-72380000D01*
X118925241Y-72535363D01*
X118725363Y-72735241D01*
X118621957Y-72890000D01*
X116283717Y-72890000D01*
X116239780Y-72846063D01*
X116070262Y-72732795D01*
X115881904Y-72654774D01*
X115681945Y-72615000D01*
X115478067Y-72615000D01*
X115278108Y-72654774D01*
X115089750Y-72732795D01*
X114920232Y-72846063D01*
X114776069Y-72990226D01*
X114662801Y-73159744D01*
X114584780Y-73348102D01*
X114545006Y-73548061D01*
X114545006Y-73751939D01*
X114584780Y-73951898D01*
X114662801Y-74140256D01*
X114776069Y-74309774D01*
X114920232Y-74453937D01*
X115089750Y-74567205D01*
X115278108Y-74645226D01*
X115478067Y-74685000D01*
X115681945Y-74685000D01*
X115881904Y-74645226D01*
X116070262Y-74567205D01*
X116239780Y-74453937D01*
X116283717Y-74410000D01*
X118621957Y-74410000D01*
X118725363Y-74564759D01*
X118925241Y-74764637D01*
X119157759Y-74920000D01*
X118925241Y-75075363D01*
X118725363Y-75275241D01*
X118568320Y-75510273D01*
X118460147Y-75771426D01*
X118405000Y-76048665D01*
X118405000Y-76331335D01*
X118460147Y-76608574D01*
X118568320Y-76869727D01*
X118725363Y-77104759D01*
X118925241Y-77304637D01*
X119157759Y-77460000D01*
X118925241Y-77615363D01*
X118725363Y-77815241D01*
X118568320Y-78050273D01*
X118460147Y-78311426D01*
X118405000Y-78588665D01*
X118405000Y-78871335D01*
X118460147Y-79148574D01*
X118568320Y-79409727D01*
X118725363Y-79644759D01*
X118925241Y-79844637D01*
X119157759Y-80000000D01*
X118925241Y-80155363D01*
X118725363Y-80355241D01*
X118568320Y-80590273D01*
X118460147Y-80851426D01*
X118405000Y-81128665D01*
X118405000Y-81411335D01*
X118460147Y-81688574D01*
X118568320Y-81949727D01*
X118725363Y-82184759D01*
X118925241Y-82384637D01*
X119157759Y-82540000D01*
X118925241Y-82695363D01*
X118725363Y-82895241D01*
X118568320Y-83130273D01*
X118460147Y-83391426D01*
X118405000Y-83668665D01*
X118405000Y-83951335D01*
X118460147Y-84228574D01*
X118568320Y-84489727D01*
X118725363Y-84724759D01*
X118925241Y-84924637D01*
X119157759Y-85080000D01*
X118925241Y-85235363D01*
X118725363Y-85435241D01*
X118621957Y-85590000D01*
X110727325Y-85590000D01*
X110690000Y-85586324D01*
X110652675Y-85590000D01*
X110652667Y-85590000D01*
X110541014Y-85600997D01*
X110397753Y-85644454D01*
X110265724Y-85715026D01*
X110149999Y-85809999D01*
X110126201Y-85838997D01*
X106369003Y-89596196D01*
X106339999Y-89619999D01*
X106287103Y-89684454D01*
X106245026Y-89735724D01*
X106183944Y-89849999D01*
X106174454Y-89867754D01*
X106130997Y-90011015D01*
X106120000Y-90122668D01*
X106120000Y-90122678D01*
X106116324Y-90160000D01*
X106120000Y-90197322D01*
X106120001Y-128147315D01*
X106116691Y-128176691D01*
X106087324Y-128180000D01*
X104629844Y-128180000D01*
X104624561Y-128179026D01*
X104555098Y-128180000D01*
X104523041Y-128180000D01*
X104517720Y-128180524D01*
X104512379Y-128180599D01*
X104480566Y-128184183D01*
X104411388Y-128190997D01*
X104406243Y-128192558D01*
X104334878Y-128200599D01*
X104286729Y-128202626D01*
X104224343Y-128217788D01*
X104161573Y-128231192D01*
X104117316Y-128250255D01*
X104009104Y-128288120D01*
X103962619Y-128300809D01*
X103905189Y-128329464D01*
X103846957Y-128356508D01*
X103808047Y-128384945D01*
X103710977Y-128445938D01*
X103668480Y-128468653D01*
X103618863Y-128509373D01*
X103568114Y-128548692D01*
X103536508Y-128585073D01*
X103455447Y-128666134D01*
X103419066Y-128697740D01*
X103379754Y-128748480D01*
X103339026Y-128798106D01*
X103316305Y-128840613D01*
X103255315Y-128937679D01*
X103226883Y-128976583D01*
X103199845Y-129034803D01*
X103171183Y-129092245D01*
X103158494Y-129138732D01*
X103120632Y-129246936D01*
X103101566Y-129291199D01*
X103088159Y-129353987D01*
X103073000Y-129416356D01*
X103070973Y-129464504D01*
X103058137Y-129578426D01*
X103049400Y-129625813D01*
X95910000Y-129625813D01*
X95910000Y-78622285D01*
X99665000Y-78622285D01*
X99665000Y-79377715D01*
X99812377Y-80118628D01*
X100101467Y-80816554D01*
X100521161Y-81444670D01*
X101055330Y-81978839D01*
X101683446Y-82398533D01*
X102381372Y-82687623D01*
X103122285Y-82835000D01*
X103877715Y-82835000D01*
X104618628Y-82687623D01*
X105316554Y-82398533D01*
X105944670Y-81978839D01*
X106478839Y-81444670D01*
X106898533Y-80816554D01*
X107187623Y-80118628D01*
X107335000Y-79377715D01*
X107335000Y-78622285D01*
X107187623Y-77881372D01*
X106898533Y-77183446D01*
X106478839Y-76555330D01*
X105944670Y-76021161D01*
X105316554Y-75601467D01*
X104618628Y-75312377D01*
X103877715Y-75165000D01*
X103122285Y-75165000D01*
X102381372Y-75312377D01*
X101683446Y-75601467D01*
X101055330Y-76021161D01*
X100521161Y-76555330D01*
X100101467Y-77183446D01*
X99812377Y-77881372D01*
X99665000Y-78622285D01*
X95910000Y-78622285D01*
X95910000Y-48457285D01*
X99665000Y-48457285D01*
X99665000Y-49212715D01*
X99812377Y-49953628D01*
X100101467Y-50651554D01*
X100521161Y-51279670D01*
X101055330Y-51813839D01*
X101683446Y-52233533D01*
X102381372Y-52522623D01*
X103122285Y-52670000D01*
X103877715Y-52670000D01*
X104618628Y-52522623D01*
X105316554Y-52233533D01*
X105944670Y-51813839D01*
X106478839Y-51279670D01*
X106898533Y-50651554D01*
X107187623Y-49953628D01*
X107335000Y-49212715D01*
X107335000Y-48622285D01*
X149665000Y-48622285D01*
X149665000Y-49377715D01*
X149812377Y-50118628D01*
X150101467Y-50816554D01*
X150521161Y-51444670D01*
X151055330Y-51978839D01*
X151683446Y-52398533D01*
X152381372Y-52687623D01*
X153122285Y-52835000D01*
X153877715Y-52835000D01*
X154618628Y-52687623D01*
X155316554Y-52398533D01*
X155944670Y-51978839D01*
X156478839Y-51444670D01*
X156898533Y-50816554D01*
X157187623Y-50118628D01*
X157335000Y-49377715D01*
X157335000Y-48622285D01*
X157187623Y-47881372D01*
X156898533Y-47183446D01*
X156478839Y-46555330D01*
X155944670Y-46021161D01*
X155316554Y-45601467D01*
X154618628Y-45312377D01*
X153877715Y-45165000D01*
X153122285Y-45165000D01*
X152381372Y-45312377D01*
X151683446Y-45601467D01*
X151055330Y-46021161D01*
X150521161Y-46555330D01*
X150101467Y-47183446D01*
X149812377Y-47881372D01*
X149665000Y-48622285D01*
X107335000Y-48622285D01*
X107335000Y-48457285D01*
X107187623Y-47716372D01*
X106898533Y-47018446D01*
X106478839Y-46390330D01*
X105944670Y-45856161D01*
X105316554Y-45436467D01*
X104618628Y-45147377D01*
X103877715Y-45000000D01*
X103122285Y-45000000D01*
X102381372Y-45147377D01*
X101683446Y-45436467D01*
X101055330Y-45856161D01*
X100521161Y-46390330D01*
X100101467Y-47018446D01*
X99812377Y-47716372D01*
X99665000Y-48457285D01*
X95910000Y-48457285D01*
X95910000Y-31378665D01*
X111405000Y-31378665D01*
X111405000Y-31661335D01*
X111460147Y-31938574D01*
X111568320Y-32199727D01*
X111725363Y-32434759D01*
X111925241Y-32634637D01*
X112160273Y-32791680D01*
X112421426Y-32899853D01*
X112698665Y-32955000D01*
X112981335Y-32955000D01*
X113258574Y-32899853D01*
X113519727Y-32791680D01*
X113754759Y-32634637D01*
X113921339Y-32468057D01*
X113950498Y-32564180D01*
X114009463Y-32674494D01*
X114088815Y-32771185D01*
X114185506Y-32850537D01*
X114295820Y-32909502D01*
X114415518Y-32945812D01*
X114540000Y-32958072D01*
X115054250Y-32955000D01*
X115213000Y-32796250D01*
X115213000Y-31647000D01*
X115467000Y-31647000D01*
X115467000Y-32796250D01*
X115625750Y-32955000D01*
X116140000Y-32958072D01*
X116264482Y-32945812D01*
X116384180Y-32909502D01*
X116494494Y-32850537D01*
X116591185Y-32771185D01*
X116670537Y-32674494D01*
X116729502Y-32564180D01*
X116765812Y-32444482D01*
X116778072Y-32320000D01*
X116775000Y-31805750D01*
X116616250Y-31647000D01*
X115467000Y-31647000D01*
X115213000Y-31647000D01*
X115193000Y-31647000D01*
X115193000Y-31393000D01*
X115213000Y-31393000D01*
X115213000Y-30243750D01*
X115467000Y-30243750D01*
X115467000Y-31393000D01*
X116616250Y-31393000D01*
X116775000Y-31234250D01*
X116778072Y-30720000D01*
X116765812Y-30595518D01*
X116729502Y-30475820D01*
X116683319Y-30389419D01*
X136985000Y-30389419D01*
X136985000Y-30770581D01*
X137059361Y-31144419D01*
X137205225Y-31496566D01*
X137416987Y-31813491D01*
X137686509Y-32083013D01*
X138003434Y-32294775D01*
X138355581Y-32440639D01*
X138729419Y-32515000D01*
X139110581Y-32515000D01*
X139484419Y-32440639D01*
X139836566Y-32294775D01*
X140153491Y-32083013D01*
X140423013Y-31813491D01*
X140634775Y-31496566D01*
X140780639Y-31144419D01*
X140855000Y-30770581D01*
X140855000Y-30389419D01*
X141185000Y-30389419D01*
X141185000Y-30770581D01*
X141259361Y-31144419D01*
X141405225Y-31496566D01*
X141616987Y-31813491D01*
X141886509Y-32083013D01*
X142203434Y-32294775D01*
X142555581Y-32440639D01*
X142929419Y-32515000D01*
X143310581Y-32515000D01*
X143684419Y-32440639D01*
X144036566Y-32294775D01*
X144353491Y-32083013D01*
X144623013Y-31813491D01*
X144834775Y-31496566D01*
X144980639Y-31144419D01*
X145055000Y-30770581D01*
X145055000Y-30389419D01*
X145385000Y-30389419D01*
X145385000Y-30770581D01*
X145459361Y-31144419D01*
X145605225Y-31496566D01*
X145816987Y-31813491D01*
X146086509Y-32083013D01*
X146403434Y-32294775D01*
X146560000Y-32359627D01*
X146560001Y-34856288D01*
X146516063Y-34900226D01*
X146402795Y-35069744D01*
X146324774Y-35258102D01*
X146285000Y-35458061D01*
X146285000Y-35661939D01*
X146324774Y-35861898D01*
X146402795Y-36050256D01*
X146516063Y-36219774D01*
X146660226Y-36363937D01*
X146829744Y-36477205D01*
X147018102Y-36555226D01*
X147218061Y-36595000D01*
X147421939Y-36595000D01*
X147621898Y-36555226D01*
X147810256Y-36477205D01*
X147979774Y-36363937D01*
X148123937Y-36219774D01*
X148237205Y-36050256D01*
X148315226Y-35861898D01*
X148355000Y-35661939D01*
X148355000Y-35458061D01*
X148315226Y-35258102D01*
X148237205Y-35069744D01*
X148123937Y-34900226D01*
X148080000Y-34856289D01*
X148080000Y-32359627D01*
X148236566Y-32294775D01*
X148553491Y-32083013D01*
X148823013Y-31813491D01*
X149034775Y-31496566D01*
X149180639Y-31144419D01*
X149255000Y-30770581D01*
X149255000Y-30389419D01*
X149225817Y-30242702D01*
X149796903Y-30242702D01*
X149868486Y-30486671D01*
X150123996Y-30607571D01*
X150398184Y-30676300D01*
X150680512Y-30690217D01*
X150960130Y-30648787D01*
X151226292Y-30553603D01*
X151351514Y-30486671D01*
X151423097Y-30242702D01*
X150610000Y-29429605D01*
X149796903Y-30242702D01*
X149225817Y-30242702D01*
X149180639Y-30015581D01*
X149034775Y-29663434D01*
X148823013Y-29346509D01*
X148797016Y-29320512D01*
X149169783Y-29320512D01*
X149211213Y-29600130D01*
X149306397Y-29866292D01*
X149373329Y-29991514D01*
X149617298Y-30063097D01*
X150430395Y-29250000D01*
X149617298Y-28436903D01*
X149373329Y-28508486D01*
X149252429Y-28763996D01*
X149183700Y-29038184D01*
X149169783Y-29320512D01*
X148797016Y-29320512D01*
X148553491Y-29076987D01*
X148236566Y-28865225D01*
X147884419Y-28719361D01*
X147510581Y-28645000D01*
X147129419Y-28645000D01*
X146755581Y-28719361D01*
X146403434Y-28865225D01*
X146086509Y-29076987D01*
X145816987Y-29346509D01*
X145605225Y-29663434D01*
X145459361Y-30015581D01*
X145385000Y-30389419D01*
X145055000Y-30389419D01*
X144980639Y-30015581D01*
X144834775Y-29663434D01*
X144623013Y-29346509D01*
X144353491Y-29076987D01*
X144036566Y-28865225D01*
X143684419Y-28719361D01*
X143310581Y-28645000D01*
X142929419Y-28645000D01*
X142555581Y-28719361D01*
X142203434Y-28865225D01*
X141886509Y-29076987D01*
X141616987Y-29346509D01*
X141405225Y-29663434D01*
X141259361Y-30015581D01*
X141185000Y-30389419D01*
X140855000Y-30389419D01*
X140780639Y-30015581D01*
X140634775Y-29663434D01*
X140423013Y-29346509D01*
X140153491Y-29076987D01*
X139836566Y-28865225D01*
X139484419Y-28719361D01*
X139110581Y-28645000D01*
X138729419Y-28645000D01*
X138355581Y-28719361D01*
X138003434Y-28865225D01*
X137686509Y-29076987D01*
X137416987Y-29346509D01*
X137205225Y-29663434D01*
X137059361Y-30015581D01*
X136985000Y-30389419D01*
X116683319Y-30389419D01*
X116670537Y-30365506D01*
X116591185Y-30268815D01*
X116494494Y-30189463D01*
X116384180Y-30130498D01*
X116264482Y-30094188D01*
X116140000Y-30081928D01*
X115625750Y-30085000D01*
X115467000Y-30243750D01*
X115213000Y-30243750D01*
X115054250Y-30085000D01*
X114540000Y-30081928D01*
X114415518Y-30094188D01*
X114295820Y-30130498D01*
X114185506Y-30189463D01*
X114088815Y-30268815D01*
X114009463Y-30365506D01*
X113950498Y-30475820D01*
X113921339Y-30571943D01*
X113754759Y-30405363D01*
X113519727Y-30248320D01*
X113258574Y-30140147D01*
X112981335Y-30085000D01*
X112698665Y-30085000D01*
X112421426Y-30140147D01*
X112160273Y-30248320D01*
X111925241Y-30405363D01*
X111725363Y-30605241D01*
X111568320Y-30840273D01*
X111460147Y-31101426D01*
X111405000Y-31378665D01*
X95910000Y-31378665D01*
X95910000Y-30242702D01*
X104736903Y-30242702D01*
X104808486Y-30486671D01*
X105063996Y-30607571D01*
X105338184Y-30676300D01*
X105620512Y-30690217D01*
X105900130Y-30648787D01*
X106166292Y-30553603D01*
X106291514Y-30486671D01*
X106363097Y-30242702D01*
X105550000Y-29429605D01*
X104736903Y-30242702D01*
X95910000Y-30242702D01*
X95910000Y-29320512D01*
X104109783Y-29320512D01*
X104151213Y-29600130D01*
X104246397Y-29866292D01*
X104313329Y-29991514D01*
X104557298Y-30063097D01*
X105370395Y-29250000D01*
X104557298Y-28436903D01*
X104313329Y-28508486D01*
X104192429Y-28763996D01*
X104123700Y-29038184D01*
X104109783Y-29320512D01*
X95910000Y-29320512D01*
X95910000Y-27702702D01*
X104736903Y-27702702D01*
X104808486Y-27946671D01*
X104874636Y-27977971D01*
X104808486Y-28013329D01*
X104736903Y-28257298D01*
X105550000Y-29070395D01*
X106363097Y-28257298D01*
X106291514Y-28013329D01*
X106225364Y-27982029D01*
X106291514Y-27946671D01*
X106363097Y-27702702D01*
X105550000Y-26889605D01*
X104736903Y-27702702D01*
X95910000Y-27702702D01*
X95910000Y-26780512D01*
X104109783Y-26780512D01*
X104151213Y-27060130D01*
X104246397Y-27326292D01*
X104313329Y-27451514D01*
X104557298Y-27523097D01*
X105370395Y-26710000D01*
X105729605Y-26710000D01*
X106542702Y-27523097D01*
X106786671Y-27451514D01*
X106817194Y-27387008D01*
X106818320Y-27389727D01*
X106975363Y-27624759D01*
X107175241Y-27824637D01*
X107407759Y-27980000D01*
X107175241Y-28135363D01*
X106975363Y-28335241D01*
X106819085Y-28569128D01*
X106786671Y-28508486D01*
X106542702Y-28436903D01*
X105729605Y-29250000D01*
X106542702Y-30063097D01*
X106786671Y-29991514D01*
X106817194Y-29927008D01*
X106818320Y-29929727D01*
X106975363Y-30164759D01*
X107175241Y-30364637D01*
X107410273Y-30521680D01*
X107671426Y-30629853D01*
X107948665Y-30685000D01*
X108231335Y-30685000D01*
X108508574Y-30629853D01*
X108769727Y-30521680D01*
X109004759Y-30364637D01*
X109204637Y-30164759D01*
X109361680Y-29929727D01*
X109469853Y-29668574D01*
X109525000Y-29391335D01*
X109525000Y-29108665D01*
X109469853Y-28831426D01*
X109361680Y-28570273D01*
X109204637Y-28335241D01*
X109004759Y-28135363D01*
X108772241Y-27980000D01*
X109004759Y-27824637D01*
X109204637Y-27624759D01*
X109361680Y-27389727D01*
X109469853Y-27128574D01*
X109525000Y-26851335D01*
X109525000Y-26568665D01*
X109469853Y-26291426D01*
X109361680Y-26030273D01*
X109204637Y-25795241D01*
X109004759Y-25595363D01*
X108769727Y-25438320D01*
X108508574Y-25330147D01*
X108231335Y-25275000D01*
X107948665Y-25275000D01*
X107671426Y-25330147D01*
X107410273Y-25438320D01*
X107175241Y-25595363D01*
X106975363Y-25795241D01*
X106819085Y-26029128D01*
X106786671Y-25968486D01*
X106542702Y-25896903D01*
X105729605Y-26710000D01*
X105370395Y-26710000D01*
X104557298Y-25896903D01*
X104313329Y-25968486D01*
X104192429Y-26223996D01*
X104123700Y-26498184D01*
X104109783Y-26780512D01*
X95910000Y-26780512D01*
X95910000Y-25717298D01*
X104736903Y-25717298D01*
X105550000Y-26530395D01*
X106363097Y-25717298D01*
X106291514Y-25473329D01*
X106036004Y-25352429D01*
X105761816Y-25283700D01*
X105479488Y-25269783D01*
X105199870Y-25311213D01*
X104933708Y-25406397D01*
X104808486Y-25473329D01*
X104736903Y-25717298D01*
X95910000Y-25717298D01*
X95910000Y-24090000D01*
X111209428Y-24090000D01*
X111209428Y-26090000D01*
X111221688Y-26214482D01*
X111257998Y-26334180D01*
X111316963Y-26444494D01*
X111396315Y-26541185D01*
X111493006Y-26620537D01*
X111603320Y-26679502D01*
X111723018Y-26715812D01*
X111847500Y-26728072D01*
X113752500Y-26728072D01*
X113876982Y-26715812D01*
X113996680Y-26679502D01*
X114106994Y-26620537D01*
X114203685Y-26541185D01*
X114283037Y-26444494D01*
X114332059Y-26352781D01*
X114473077Y-26465969D01*
X114748906Y-26609571D01*
X114967020Y-26680563D01*
X115213000Y-26560594D01*
X115213000Y-25217000D01*
X115193000Y-25217000D01*
X115193000Y-24963000D01*
X115213000Y-24963000D01*
X115213000Y-23619406D01*
X115467000Y-23619406D01*
X115467000Y-24963000D01*
X115487000Y-24963000D01*
X115487000Y-25217000D01*
X115467000Y-25217000D01*
X115467000Y-26560594D01*
X115712980Y-26680563D01*
X115931094Y-26609571D01*
X116206923Y-26465969D01*
X116449437Y-26271315D01*
X116604837Y-26086101D01*
X116752037Y-26265463D01*
X116993766Y-26463845D01*
X117269552Y-26611255D01*
X117568797Y-26702030D01*
X117880000Y-26732681D01*
X118191204Y-26702030D01*
X118490449Y-26611255D01*
X118766235Y-26463845D01*
X119007963Y-26265463D01*
X119206345Y-26023734D01*
X119237739Y-25965000D01*
X123380299Y-25965000D01*
X123384188Y-26004482D01*
X123420498Y-26124180D01*
X123479463Y-26234494D01*
X123558815Y-26331185D01*
X123655506Y-26410537D01*
X123765820Y-26469502D01*
X123861943Y-26498661D01*
X123695363Y-26665241D01*
X123538320Y-26900273D01*
X123430147Y-27161426D01*
X123375000Y-27438665D01*
X123375000Y-27721335D01*
X123430147Y-27998574D01*
X123538320Y-28259727D01*
X123695363Y-28494759D01*
X123895241Y-28694637D01*
X124130273Y-28851680D01*
X124391426Y-28959853D01*
X124668665Y-29015000D01*
X124951335Y-29015000D01*
X125228574Y-28959853D01*
X125489727Y-28851680D01*
X125724759Y-28694637D01*
X125924637Y-28494759D01*
X126081680Y-28259727D01*
X126189853Y-27998574D01*
X126245000Y-27721335D01*
X126245000Y-27702702D01*
X149796903Y-27702702D01*
X149868486Y-27946671D01*
X149934636Y-27977971D01*
X149868486Y-28013329D01*
X149796903Y-28257298D01*
X150610000Y-29070395D01*
X151423097Y-28257298D01*
X151351514Y-28013329D01*
X151285364Y-27982029D01*
X151351514Y-27946671D01*
X151423097Y-27702702D01*
X150610000Y-26889605D01*
X149796903Y-27702702D01*
X126245000Y-27702702D01*
X126245000Y-27438665D01*
X126189853Y-27161426D01*
X126081680Y-26900273D01*
X125924637Y-26665241D01*
X125758057Y-26498661D01*
X125854180Y-26469502D01*
X125964494Y-26410537D01*
X126061185Y-26331185D01*
X126140537Y-26234494D01*
X126199502Y-26124180D01*
X126235812Y-26004482D01*
X126239701Y-25965000D01*
X137192150Y-25965000D01*
X137205225Y-25996566D01*
X137416987Y-26313491D01*
X137686509Y-26583013D01*
X138003434Y-26794775D01*
X138355581Y-26940639D01*
X138729419Y-27015000D01*
X139110581Y-27015000D01*
X139484419Y-26940639D01*
X139836566Y-26794775D01*
X140153491Y-26583013D01*
X140423013Y-26313491D01*
X140634775Y-25996566D01*
X140780639Y-25644419D01*
X140855000Y-25270581D01*
X140855000Y-24889419D01*
X141185000Y-24889419D01*
X141185000Y-25270581D01*
X141259361Y-25644419D01*
X141405225Y-25996566D01*
X141616987Y-26313491D01*
X141886509Y-26583013D01*
X142203434Y-26794775D01*
X142555581Y-26940639D01*
X142929419Y-27015000D01*
X143310581Y-27015000D01*
X143684419Y-26940639D01*
X144036566Y-26794775D01*
X144353491Y-26583013D01*
X144623013Y-26313491D01*
X144834775Y-25996566D01*
X144980639Y-25644419D01*
X145055000Y-25270581D01*
X145055000Y-24889419D01*
X145385000Y-24889419D01*
X145385000Y-25270581D01*
X145459361Y-25644419D01*
X145605225Y-25996566D01*
X145816987Y-26313491D01*
X146086509Y-26583013D01*
X146403434Y-26794775D01*
X146755581Y-26940639D01*
X147129419Y-27015000D01*
X147510581Y-27015000D01*
X147884419Y-26940639D01*
X148236566Y-26794775D01*
X148257912Y-26780512D01*
X149169783Y-26780512D01*
X149211213Y-27060130D01*
X149306397Y-27326292D01*
X149373329Y-27451514D01*
X149617298Y-27523097D01*
X150430395Y-26710000D01*
X150789605Y-26710000D01*
X151602702Y-27523097D01*
X151846671Y-27451514D01*
X151877194Y-27387008D01*
X151878320Y-27389727D01*
X152035363Y-27624759D01*
X152235241Y-27824637D01*
X152467759Y-27980000D01*
X152235241Y-28135363D01*
X152035363Y-28335241D01*
X151879085Y-28569128D01*
X151846671Y-28508486D01*
X151602702Y-28436903D01*
X150789605Y-29250000D01*
X151602702Y-30063097D01*
X151846671Y-29991514D01*
X151877194Y-29927008D01*
X151878320Y-29929727D01*
X152035363Y-30164759D01*
X152235241Y-30364637D01*
X152470273Y-30521680D01*
X152731426Y-30629853D01*
X153008665Y-30685000D01*
X153291335Y-30685000D01*
X153568574Y-30629853D01*
X153829727Y-30521680D01*
X154064759Y-30364637D01*
X154264637Y-30164759D01*
X154421680Y-29929727D01*
X154529853Y-29668574D01*
X154585000Y-29391335D01*
X154585000Y-29108665D01*
X154529853Y-28831426D01*
X154421680Y-28570273D01*
X154264637Y-28335241D01*
X154064759Y-28135363D01*
X153832241Y-27980000D01*
X154064759Y-27824637D01*
X154264637Y-27624759D01*
X154421680Y-27389727D01*
X154529853Y-27128574D01*
X154585000Y-26851335D01*
X154585000Y-26568665D01*
X154529853Y-26291426D01*
X154421680Y-26030273D01*
X154264637Y-25795241D01*
X154064759Y-25595363D01*
X153829727Y-25438320D01*
X153568574Y-25330147D01*
X153291335Y-25275000D01*
X153008665Y-25275000D01*
X152731426Y-25330147D01*
X152470273Y-25438320D01*
X152235241Y-25595363D01*
X152035363Y-25795241D01*
X151879085Y-26029128D01*
X151846671Y-25968486D01*
X151602702Y-25896903D01*
X150789605Y-26710000D01*
X150430395Y-26710000D01*
X149617298Y-25896903D01*
X149373329Y-25968486D01*
X149252429Y-26223996D01*
X149183700Y-26498184D01*
X149169783Y-26780512D01*
X148257912Y-26780512D01*
X148553491Y-26583013D01*
X148823013Y-26313491D01*
X149034775Y-25996566D01*
X149150451Y-25717298D01*
X149796903Y-25717298D01*
X150610000Y-26530395D01*
X151423097Y-25717298D01*
X151351514Y-25473329D01*
X151096004Y-25352429D01*
X150821816Y-25283700D01*
X150539488Y-25269783D01*
X150259870Y-25311213D01*
X149993708Y-25406397D01*
X149868486Y-25473329D01*
X149796903Y-25717298D01*
X149150451Y-25717298D01*
X149180639Y-25644419D01*
X149255000Y-25270581D01*
X149255000Y-24889419D01*
X149180639Y-24515581D01*
X149034775Y-24163434D01*
X148823013Y-23846509D01*
X148553491Y-23576987D01*
X148236566Y-23365225D01*
X147884419Y-23219361D01*
X147510581Y-23145000D01*
X147129419Y-23145000D01*
X146755581Y-23219361D01*
X146403434Y-23365225D01*
X146086509Y-23576987D01*
X145816987Y-23846509D01*
X145605225Y-24163434D01*
X145459361Y-24515581D01*
X145385000Y-24889419D01*
X145055000Y-24889419D01*
X144980639Y-24515581D01*
X144834775Y-24163434D01*
X144623013Y-23846509D01*
X144353491Y-23576987D01*
X144036566Y-23365225D01*
X143684419Y-23219361D01*
X143310581Y-23145000D01*
X142929419Y-23145000D01*
X142555581Y-23219361D01*
X142203434Y-23365225D01*
X141886509Y-23576987D01*
X141616987Y-23846509D01*
X141405225Y-24163434D01*
X141259361Y-24515581D01*
X141185000Y-24889419D01*
X140855000Y-24889419D01*
X140780639Y-24515581D01*
X140634775Y-24163434D01*
X140423013Y-23846509D01*
X140153491Y-23576987D01*
X139836566Y-23365225D01*
X139484419Y-23219361D01*
X139110581Y-23145000D01*
X138729419Y-23145000D01*
X138355581Y-23219361D01*
X138003434Y-23365225D01*
X137686509Y-23576987D01*
X137416987Y-23846509D01*
X137205225Y-24163434D01*
X137192150Y-24195000D01*
X126239701Y-24195000D01*
X126235812Y-24155518D01*
X126199502Y-24035820D01*
X126140537Y-23925506D01*
X126061185Y-23828815D01*
X125964494Y-23749463D01*
X125854180Y-23690498D01*
X125734482Y-23654188D01*
X125610000Y-23641928D01*
X124010000Y-23641928D01*
X123885518Y-23654188D01*
X123765820Y-23690498D01*
X123655506Y-23749463D01*
X123558815Y-23828815D01*
X123479463Y-23925506D01*
X123420498Y-24035820D01*
X123384188Y-24155518D01*
X123380299Y-24195000D01*
X119227049Y-24195000D01*
X119206345Y-24156265D01*
X119007963Y-23914537D01*
X118766234Y-23716155D01*
X118490448Y-23568745D01*
X118191203Y-23477970D01*
X117880000Y-23447319D01*
X117568796Y-23477970D01*
X117269551Y-23568745D01*
X116993765Y-23716155D01*
X116752037Y-23914537D01*
X116604838Y-24093900D01*
X116449437Y-23908685D01*
X116206923Y-23714031D01*
X115931094Y-23570429D01*
X115712980Y-23499437D01*
X115467000Y-23619406D01*
X115213000Y-23619406D01*
X114967020Y-23499437D01*
X114748906Y-23570429D01*
X114473077Y-23714031D01*
X114332059Y-23827219D01*
X114283037Y-23735506D01*
X114203685Y-23638815D01*
X114106994Y-23559463D01*
X113996680Y-23500498D01*
X113876982Y-23464188D01*
X113752500Y-23451928D01*
X111847500Y-23451928D01*
X111723018Y-23464188D01*
X111603320Y-23500498D01*
X111493006Y-23559463D01*
X111396315Y-23638815D01*
X111316963Y-23735506D01*
X111257998Y-23845820D01*
X111221688Y-23965518D01*
X111209428Y-24090000D01*
X95910000Y-24090000D01*
X95910000Y-17569721D01*
X136785000Y-17569721D01*
X136785000Y-17990279D01*
X136867047Y-18402756D01*
X137027988Y-18791302D01*
X137261637Y-19140983D01*
X137559017Y-19438363D01*
X137908698Y-19672012D01*
X138297244Y-19832953D01*
X138709721Y-19915000D01*
X139130279Y-19915000D01*
X139542756Y-19832953D01*
X139931302Y-19672012D01*
X140280983Y-19438363D01*
X140578363Y-19140983D01*
X140812012Y-18791302D01*
X140972953Y-18402756D01*
X141055000Y-17990279D01*
X141055000Y-17569721D01*
X145185000Y-17569721D01*
X145185000Y-17990279D01*
X145267047Y-18402756D01*
X145427988Y-18791302D01*
X145661637Y-19140983D01*
X145959017Y-19438363D01*
X146308698Y-19672012D01*
X146697244Y-19832953D01*
X147109721Y-19915000D01*
X147530279Y-19915000D01*
X147942756Y-19832953D01*
X148331302Y-19672012D01*
X148680983Y-19438363D01*
X148978363Y-19140983D01*
X149212012Y-18791302D01*
X149372953Y-18402756D01*
X149455000Y-17990279D01*
X149455000Y-17569721D01*
X149372953Y-17157244D01*
X149212012Y-16768698D01*
X148978363Y-16419017D01*
X148680983Y-16121637D01*
X148331302Y-15887988D01*
X147942756Y-15727047D01*
X147530279Y-15645000D01*
X147109721Y-15645000D01*
X146697244Y-15727047D01*
X146308698Y-15887988D01*
X145959017Y-16121637D01*
X145661637Y-16419017D01*
X145427988Y-16768698D01*
X145267047Y-17157244D01*
X145185000Y-17569721D01*
X141055000Y-17569721D01*
X140972953Y-17157244D01*
X140812012Y-16768698D01*
X140578363Y-16419017D01*
X140280983Y-16121637D01*
X139931302Y-15887988D01*
X139542756Y-15727047D01*
X139130279Y-15645000D01*
X138709721Y-15645000D01*
X138297244Y-15727047D01*
X137908698Y-15887988D01*
X137559017Y-16121637D01*
X137261637Y-16419017D01*
X137027988Y-16768698D01*
X136867047Y-17157244D01*
X136785000Y-17569721D01*
X95910000Y-17569721D01*
X95910000Y-14630000D01*
X160630001Y-14630000D01*
X160630000Y-188570000D01*
G37*
X160630000Y-188570000D02*
X95910000Y-188570000D01*
X95910000Y-129625813D01*
X103049400Y-129625813D01*
X103050300Y-129690000D01*
X103049400Y-129754187D01*
X103058137Y-129801574D01*
X103070973Y-129915496D01*
X103073000Y-129963643D01*
X103088158Y-130026008D01*
X103101566Y-130088800D01*
X103120632Y-130133063D01*
X103158494Y-130241267D01*
X103171183Y-130287754D01*
X103199845Y-130345196D01*
X103226883Y-130403416D01*
X103255315Y-130442320D01*
X103316305Y-130539386D01*
X103339026Y-130581893D01*
X103379754Y-130631519D01*
X103419066Y-130682259D01*
X103455447Y-130713865D01*
X103536508Y-130794926D01*
X103568114Y-130831307D01*
X103618863Y-130870626D01*
X103668480Y-130911346D01*
X103710977Y-130934061D01*
X103808047Y-130995054D01*
X103846957Y-131023491D01*
X103905189Y-131050535D01*
X103962619Y-131079190D01*
X104009104Y-131091879D01*
X104117311Y-131129742D01*
X104161569Y-131148806D01*
X104224342Y-131162210D01*
X104286729Y-131177373D01*
X104334881Y-131179400D01*
X104406238Y-131187441D01*
X104411388Y-131189003D01*
X104480613Y-131195821D01*
X104512375Y-131199400D01*
X104517709Y-131199475D01*
X104523041Y-131200000D01*
X104555138Y-131200000D01*
X104624557Y-131200974D01*
X104629840Y-131200000D01*
X106087322Y-131200000D01*
X106116691Y-131203309D01*
X106120000Y-131232675D01*
X106120001Y-171242667D01*
X106116324Y-171280000D01*
X106130998Y-171428985D01*
X106174454Y-171572246D01*
X106245026Y-171704276D01*
X106316201Y-171791002D01*
X106340000Y-171820001D01*
X106368998Y-171843799D01*
X118846200Y-184321002D01*
X118869999Y-184350001D01*
X118898997Y-184373799D01*
X118985723Y-184444974D01*
X119004432Y-184454974D01*
X119117753Y-184515546D01*
X119261014Y-184559003D01*
X119372667Y-184570000D01*
X119372677Y-184570000D01*
X119410000Y-184573676D01*
X119447323Y-184570000D01*
X124401500Y-184570000D01*
X124369188Y-184676518D01*
X124356928Y-184801000D01*
X124356928Y-185359000D01*
X124369188Y-185483482D01*
X124405498Y-185603180D01*
X124464463Y-185713494D01*
X124543815Y-185810185D01*
X124640506Y-185889537D01*
X124750820Y-185948502D01*
X124870518Y-185984812D01*
X124995000Y-185997072D01*
X127385000Y-185997072D01*
X127509482Y-185984812D01*
X127629180Y-185948502D01*
X127739494Y-185889537D01*
X127836185Y-185810185D01*
X127915537Y-185713494D01*
X127974502Y-185603180D01*
X128010812Y-185483482D01*
X128023072Y-185359000D01*
X128023072Y-185200731D01*
X131991003Y-181232801D01*
X132020001Y-181209003D01*
X132114974Y-181093278D01*
X132185546Y-180961249D01*
X132229003Y-180817988D01*
X132240000Y-180706335D01*
X132240000Y-180706326D01*
X132243676Y-180669003D01*
X132240000Y-180631680D01*
X132240000Y-146599466D01*
X132240974Y-146594183D01*
X132240000Y-146524764D01*
X132240000Y-146492667D01*
X132239475Y-146487335D01*
X132239400Y-146482001D01*
X132235821Y-146450239D01*
X132229003Y-146381014D01*
X132227441Y-146375864D01*
X132219400Y-146304507D01*
X132217373Y-146256355D01*
X132202210Y-146193968D01*
X132188806Y-146131195D01*
X132169742Y-146086937D01*
X132131879Y-145978730D01*
X132119190Y-145932245D01*
X132090535Y-145874815D01*
X132063491Y-145816583D01*
X132035054Y-145777673D01*
X131974061Y-145680603D01*
X131951346Y-145638106D01*
X131910626Y-145588489D01*
X131871307Y-145537740D01*
X131834926Y-145506134D01*
X131753865Y-145425073D01*
X131722259Y-145388692D01*
X131671519Y-145349380D01*
X131621893Y-145308652D01*
X131579386Y-145285931D01*
X131482320Y-145224941D01*
X131443416Y-145196509D01*
X131385196Y-145169471D01*
X131327754Y-145140809D01*
X131281267Y-145128120D01*
X131173063Y-145090258D01*
X131128800Y-145071192D01*
X131066008Y-145057784D01*
X131003643Y-145042626D01*
X130955496Y-145040599D01*
X130950183Y-145040000D01*
X134764307Y-145040000D01*
X134769590Y-145040974D01*
X134839008Y-145040000D01*
X134871106Y-145040000D01*
X134876438Y-145039475D01*
X134881771Y-145039400D01*
X134913527Y-145035822D01*
X134982759Y-145029003D01*
X134987909Y-145027441D01*
X135059266Y-145019400D01*
X135107417Y-145017373D01*
X135169787Y-145002214D01*
X135232578Y-144988806D01*
X135276840Y-144969740D01*
X135385041Y-144931879D01*
X135431528Y-144919190D01*
X135488970Y-144890528D01*
X135547190Y-144863490D01*
X135586094Y-144835058D01*
X135683160Y-144774068D01*
X135725667Y-144751347D01*
X135775293Y-144710619D01*
X135826033Y-144671307D01*
X135857639Y-144634926D01*
X135938700Y-144553865D01*
X135975081Y-144522259D01*
X136014400Y-144471510D01*
X136055120Y-144421893D01*
X136077835Y-144379396D01*
X136138828Y-144282326D01*
X136167265Y-144243416D01*
X136194309Y-144185184D01*
X136222964Y-144127754D01*
X136235653Y-144081269D01*
X136273518Y-143973057D01*
X136292581Y-143928800D01*
X136305986Y-143866026D01*
X136321147Y-143803644D01*
X136323174Y-143755496D01*
X136336010Y-143641573D01*
X136344747Y-143594187D01*
X136343847Y-143530000D01*
X136344747Y-143465813D01*
X136336010Y-143418427D01*
X136323174Y-143304504D01*
X136321147Y-143256355D01*
X136305985Y-143193969D01*
X136292581Y-143131199D01*
X136273518Y-143086942D01*
X136235653Y-142978730D01*
X136222964Y-142932245D01*
X136194309Y-142874815D01*
X136167265Y-142816583D01*
X136138828Y-142777673D01*
X136077835Y-142680603D01*
X136055120Y-142638106D01*
X136014400Y-142588489D01*
X135975081Y-142537740D01*
X135938700Y-142506134D01*
X135857639Y-142425073D01*
X135826033Y-142388692D01*
X135775293Y-142349380D01*
X135725667Y-142308652D01*
X135683160Y-142285931D01*
X135586094Y-142224941D01*
X135547190Y-142196509D01*
X135488970Y-142169471D01*
X135431528Y-142140809D01*
X135385041Y-142128120D01*
X135276837Y-142090258D01*
X135232574Y-142071192D01*
X135169786Y-142057785D01*
X135107417Y-142042626D01*
X135059269Y-142040599D01*
X134987904Y-142032558D01*
X134982759Y-142030997D01*
X134913574Y-142024183D01*
X134881767Y-142020599D01*
X134876428Y-142020524D01*
X134871106Y-142020000D01*
X134839048Y-142020000D01*
X134769586Y-142019026D01*
X134764303Y-142020000D01*
X130950172Y-142020000D01*
X130955493Y-142019400D01*
X131003643Y-142017373D01*
X131066024Y-142002211D01*
X131128805Y-141988805D01*
X131173063Y-141969741D01*
X131281267Y-141931879D01*
X131327754Y-141919190D01*
X131385196Y-141890528D01*
X131443416Y-141863490D01*
X131482320Y-141835058D01*
X131579386Y-141774068D01*
X131621893Y-141751347D01*
X131671519Y-141710619D01*
X131722259Y-141671307D01*
X131753865Y-141634926D01*
X131834926Y-141553865D01*
X131871307Y-141522259D01*
X131910626Y-141471510D01*
X131951346Y-141421893D01*
X131974061Y-141379396D01*
X132035054Y-141282326D01*
X132063491Y-141243416D01*
X132090535Y-141185184D01*
X132119190Y-141127754D01*
X132131879Y-141081269D01*
X132169744Y-140973057D01*
X132188805Y-140928805D01*
X132202208Y-140866042D01*
X132217373Y-140803644D01*
X132219400Y-140755493D01*
X132227441Y-140684136D01*
X132229003Y-140678986D01*
X132235823Y-140609744D01*
X132239400Y-140578000D01*
X132239475Y-140572665D01*
X132240000Y-140567333D01*
X132240000Y-140535237D01*
X132240974Y-140465818D01*
X132240000Y-140460535D01*
X132240000Y-88364801D01*
X136034802Y-84570000D01*
X138941957Y-84570000D01*
X139045363Y-84724759D01*
X139245241Y-84924637D01*
X139477759Y-85080000D01*
X139245241Y-85235363D01*
X139045363Y-85435241D01*
X138888320Y-85670273D01*
X138780147Y-85931426D01*
X138725000Y-86208665D01*
X138725000Y-86491335D01*
X138780147Y-86768574D01*
X138888320Y-87029727D01*
X139045363Y-87264759D01*
X139245241Y-87464637D01*
X139477759Y-87620000D01*
X139245241Y-87775363D01*
X139045363Y-87975241D01*
X138888320Y-88210273D01*
X138780147Y-88471426D01*
X138725000Y-88748665D01*
X138725000Y-89031335D01*
X138780147Y-89308574D01*
X138888320Y-89569727D01*
X139045363Y-89804759D01*
X139245241Y-90004637D01*
X139477759Y-90160000D01*
X139245241Y-90315363D01*
X139045363Y-90515241D01*
X138935275Y-90680000D01*
X135323711Y-90680000D01*
X135279774Y-90636063D01*
X135110256Y-90522795D01*
X134921898Y-90444774D01*
X134721939Y-90405000D01*
X134518061Y-90405000D01*
X134318102Y-90444774D01*
X134129744Y-90522795D01*
X133960226Y-90636063D01*
X133816063Y-90780226D01*
X133702795Y-90949744D01*
X133624774Y-91138102D01*
X133585000Y-91338061D01*
X133585000Y-91541939D01*
X133624774Y-91741898D01*
X133702795Y-91930256D01*
X133816063Y-92099774D01*
X133960226Y-92243937D01*
X134129744Y-92357205D01*
X134318102Y-92435226D01*
X134518061Y-92475000D01*
X134721939Y-92475000D01*
X134921898Y-92435226D01*
X135110256Y-92357205D01*
X135279774Y-92243937D01*
X135323711Y-92200000D01*
X138948638Y-92200000D01*
X139045363Y-92344759D01*
X139245241Y-92544637D01*
X139477759Y-92700000D01*
X139245241Y-92855363D01*
X139045363Y-93055241D01*
X138888320Y-93290273D01*
X138780147Y-93551426D01*
X138725000Y-93828665D01*
X138725000Y-94111335D01*
X138780147Y-94388574D01*
X138888320Y-94649727D01*
X139045363Y-94884759D01*
X139245241Y-95084637D01*
X139480273Y-95241680D01*
X139741426Y-95349853D01*
X140018665Y-95405000D01*
X140301335Y-95405000D01*
X140578574Y-95349853D01*
X140839727Y-95241680D01*
X141074759Y-95084637D01*
X141274637Y-94884759D01*
X141431680Y-94649727D01*
X141539853Y-94388574D01*
X141595000Y-94111335D01*
X141595000Y-93828665D01*
X141539853Y-93551426D01*
X141431680Y-93290273D01*
X141274637Y-93055241D01*
X141074759Y-92855363D01*
X140842241Y-92700000D01*
X141074759Y-92544637D01*
X141274637Y-92344759D01*
X141431680Y-92109727D01*
X141539853Y-91848574D01*
X141595000Y-91571335D01*
X141595000Y-91288665D01*
X141539853Y-91011426D01*
X141431680Y-90750273D01*
X141274637Y-90515241D01*
X141074759Y-90315363D01*
X140842241Y-90160000D01*
X141074759Y-90004637D01*
X141274637Y-89804759D01*
X141431680Y-89569727D01*
X141539853Y-89308574D01*
X141595000Y-89031335D01*
X141595000Y-88859802D01*
X141850000Y-89114802D01*
X141850001Y-127457315D01*
X141846691Y-127486691D01*
X141817324Y-127490000D01*
X139126575Y-127490000D01*
X139121292Y-127489026D01*
X139051829Y-127490000D01*
X139019772Y-127490000D01*
X139014451Y-127490524D01*
X139009110Y-127490599D01*
X138977297Y-127494183D01*
X138908119Y-127500997D01*
X138902974Y-127502558D01*
X138831609Y-127510599D01*
X138783460Y-127512626D01*
X138721074Y-127527788D01*
X138658304Y-127541192D01*
X138614047Y-127560255D01*
X138505835Y-127598120D01*
X138459350Y-127610809D01*
X138401920Y-127639464D01*
X138343688Y-127666508D01*
X138304778Y-127694945D01*
X138207708Y-127755938D01*
X138165211Y-127778653D01*
X138115594Y-127819373D01*
X138064845Y-127858692D01*
X138033239Y-127895073D01*
X137952178Y-127976134D01*
X137915797Y-128007740D01*
X137876485Y-128058480D01*
X137835757Y-128108106D01*
X137813036Y-128150613D01*
X137752046Y-128247679D01*
X137723614Y-128286583D01*
X137696576Y-128344803D01*
X137667914Y-128402245D01*
X137655225Y-128448732D01*
X137617363Y-128556936D01*
X137598297Y-128601199D01*
X137584890Y-128663987D01*
X137569731Y-128726356D01*
X137567704Y-128774504D01*
X137554868Y-128888426D01*
X137546131Y-128935813D01*
X137547031Y-129000000D01*
X137546131Y-129064187D01*
X137554868Y-129111574D01*
X137567704Y-129225496D01*
X137569731Y-129273643D01*
X137584889Y-129336008D01*
X137598297Y-129398800D01*
X137617363Y-129443063D01*
X137655225Y-129551267D01*
X137667914Y-129597754D01*
X137696576Y-129655196D01*
X137723614Y-129713416D01*
X137752046Y-129752320D01*
X137813036Y-129849386D01*
X137835757Y-129891893D01*
X137876485Y-129941519D01*
X137915797Y-129992259D01*
X137952178Y-130023865D01*
X138033239Y-130104926D01*
X138064845Y-130141307D01*
X138115594Y-130180626D01*
X138165211Y-130221346D01*
X138207708Y-130244061D01*
X138304778Y-130305054D01*
X138343688Y-130333491D01*
X138401920Y-130360535D01*
X138459350Y-130389190D01*
X138505835Y-130401879D01*
X138614042Y-130439742D01*
X138658300Y-130458806D01*
X138721073Y-130472210D01*
X138783460Y-130487373D01*
X138831612Y-130489400D01*
X138902969Y-130497441D01*
X138908119Y-130499003D01*
X138918242Y-130500000D01*
X138908119Y-130500997D01*
X138902974Y-130502558D01*
X138831609Y-130510599D01*
X138783460Y-130512626D01*
X138721074Y-130527788D01*
X138658304Y-130541192D01*
X138614047Y-130560255D01*
X138505835Y-130598120D01*
X138459350Y-130610809D01*
X138401920Y-130639464D01*
X138343688Y-130666508D01*
X138304778Y-130694945D01*
X138207708Y-130755938D01*
X138165211Y-130778653D01*
X138115594Y-130819373D01*
X138064845Y-130858692D01*
X138033239Y-130895073D01*
X137952178Y-130976134D01*
X137915797Y-131007740D01*
X137876485Y-131058480D01*
X137835757Y-131108106D01*
X137813036Y-131150613D01*
X137752046Y-131247679D01*
X137723614Y-131286583D01*
X137696576Y-131344803D01*
X137667914Y-131402245D01*
X137655225Y-131448732D01*
X137617363Y-131556936D01*
X137598297Y-131601199D01*
X137584890Y-131663987D01*
X137569731Y-131726356D01*
X137567704Y-131774504D01*
X137554868Y-131888426D01*
X137546131Y-131935813D01*
X137547031Y-132000000D01*
X137546131Y-132064187D01*
X137554868Y-132111574D01*
X137567704Y-132225496D01*
X137569731Y-132273643D01*
X137584889Y-132336008D01*
X137598297Y-132398800D01*
X137617363Y-132443063D01*
X137655225Y-132551267D01*
X137667914Y-132597754D01*
X137696576Y-132655196D01*
X137723614Y-132713416D01*
X137752046Y-132752320D01*
X137813036Y-132849386D01*
X137835757Y-132891893D01*
X137876485Y-132941519D01*
X137915797Y-132992259D01*
X137952178Y-133023865D01*
X138033239Y-133104926D01*
X138064845Y-133141307D01*
X138115594Y-133180626D01*
X138165211Y-133221346D01*
X138207708Y-133244061D01*
X138304778Y-133305054D01*
X138343688Y-133333491D01*
X138401920Y-133360535D01*
X138459350Y-133389190D01*
X138505835Y-133401879D01*
X138614042Y-133439742D01*
X138658300Y-133458806D01*
X138721073Y-133472210D01*
X138783460Y-133487373D01*
X138831612Y-133489400D01*
X138902969Y-133497441D01*
X138908119Y-133499003D01*
X138977344Y-133505821D01*
X139009106Y-133509400D01*
X139014440Y-133509475D01*
X139019772Y-133510000D01*
X139051869Y-133510000D01*
X139121288Y-133510974D01*
X139126571Y-133510000D01*
X143139817Y-133510000D01*
X143134504Y-133510599D01*
X143086356Y-133512626D01*
X143023974Y-133527787D01*
X142961200Y-133541192D01*
X142916943Y-133560255D01*
X142808731Y-133598120D01*
X142762246Y-133610809D01*
X142704816Y-133639464D01*
X142646584Y-133666508D01*
X142607674Y-133694945D01*
X142510604Y-133755938D01*
X142468107Y-133778653D01*
X142418490Y-133819373D01*
X142367741Y-133858692D01*
X142336135Y-133895073D01*
X142255074Y-133976134D01*
X142218693Y-134007740D01*
X142179381Y-134058480D01*
X142138653Y-134108106D01*
X142115932Y-134150613D01*
X142054942Y-134247679D01*
X142026510Y-134286583D01*
X141999472Y-134344803D01*
X141970810Y-134402245D01*
X141958121Y-134448732D01*
X141920260Y-134556933D01*
X141901194Y-134601195D01*
X141887786Y-134663986D01*
X141872627Y-134726356D01*
X141870600Y-134774507D01*
X141862559Y-134845865D01*
X141860997Y-134851015D01*
X141854179Y-134920239D01*
X141850600Y-134952002D01*
X141850525Y-134957336D01*
X141850000Y-134962668D01*
X141850000Y-134994765D01*
X141849026Y-135064183D01*
X141850000Y-135069466D01*
X141850001Y-168715197D01*
X135292271Y-175272928D01*
X134255000Y-175272928D01*
X134130518Y-175285188D01*
X134010820Y-175321498D01*
X133900506Y-175380463D01*
X133803815Y-175459815D01*
X133724463Y-175556506D01*
X133665498Y-175666820D01*
X133629188Y-175786518D01*
X133616928Y-175911000D01*
X133616928Y-176469000D01*
X133629188Y-176593482D01*
X133665498Y-176713180D01*
X133724463Y-176823494D01*
X133725699Y-176825000D01*
X133724463Y-176826506D01*
X133665498Y-176936820D01*
X133629188Y-177056518D01*
X133616928Y-177181000D01*
X133616928Y-177739000D01*
X133629188Y-177863482D01*
X133665498Y-177983180D01*
X133724463Y-178093494D01*
X133725699Y-178095000D01*
X133724463Y-178096506D01*
X133665498Y-178206820D01*
X133629188Y-178326518D01*
X133616928Y-178451000D01*
X133616928Y-179009000D01*
X133629188Y-179133482D01*
X133665498Y-179253180D01*
X133724463Y-179363494D01*
X133725699Y-179365000D01*
X133724463Y-179366506D01*
X133665498Y-179476820D01*
X133629188Y-179596518D01*
X133616928Y-179721000D01*
X133616928Y-180279000D01*
X133629188Y-180403482D01*
X133665498Y-180523180D01*
X133724463Y-180633494D01*
X133725699Y-180635000D01*
X133724463Y-180636506D01*
X133665498Y-180746820D01*
X133629188Y-180866518D01*
X133616928Y-180991000D01*
X133616928Y-181549000D01*
X133629188Y-181673482D01*
X133665498Y-181793180D01*
X133724463Y-181903494D01*
X133725699Y-181905000D01*
X133724463Y-181906506D01*
X133665498Y-182016820D01*
X133629188Y-182136518D01*
X133616928Y-182261000D01*
X133616928Y-182819000D01*
X133629188Y-182943482D01*
X133661500Y-183050000D01*
X132403711Y-183050000D01*
X132369774Y-183016063D01*
X132200256Y-182902795D01*
X132011898Y-182824774D01*
X131811939Y-182785000D01*
X131608061Y-182785000D01*
X131408102Y-182824774D01*
X131219744Y-182902795D01*
X131050226Y-183016063D01*
X130906063Y-183160226D01*
X130792795Y-183329744D01*
X130714774Y-183518102D01*
X130675000Y-183718061D01*
X130675000Y-183921939D01*
X130714774Y-184121898D01*
X130792795Y-184310256D01*
X130906063Y-184479774D01*
X131050226Y-184623937D01*
X131219744Y-184737205D01*
X131408102Y-184815226D01*
X131608061Y-184855000D01*
X131811939Y-184855000D01*
X132011898Y-184815226D01*
X132200256Y-184737205D01*
X132369774Y-184623937D01*
X132423711Y-184570000D01*
X133661500Y-184570000D01*
X133629188Y-184676518D01*
X133616928Y-184801000D01*
X133616928Y-185359000D01*
X133629188Y-185483482D01*
X133665498Y-185603180D01*
X133724463Y-185713494D01*
X133803815Y-185810185D01*
X133900506Y-185889537D01*
X134010820Y-185948502D01*
X134130518Y-185984812D01*
X134255000Y-185997072D01*
X136645000Y-185997072D01*
X136769482Y-185984812D01*
X136889180Y-185948502D01*
X136999494Y-185889537D01*
X137096185Y-185810185D01*
X137175537Y-185713494D01*
X137234502Y-185603180D01*
X137270812Y-185483482D01*
X137283072Y-185359000D01*
X137283072Y-185200731D01*
X154871004Y-167612800D01*
X154900001Y-167589003D01*
X154926332Y-167556919D01*
X154994974Y-167473279D01*
X155065546Y-167341249D01*
X155065546Y-167341248D01*
X155109003Y-167197988D01*
X155120000Y-167086335D01*
X155120000Y-167086325D01*
X155123676Y-167049002D01*
X155120000Y-167011679D01*
X155120000Y-113602677D01*
X155123309Y-113573309D01*
X155145344Y-113570826D01*
X155204228Y-113570000D01*
X155236325Y-113570000D01*
X155241657Y-113569475D01*
X155246991Y-113569400D01*
X155278752Y-113565821D01*
X155347978Y-113559003D01*
X155353128Y-113557441D01*
X155424485Y-113549400D01*
X155472635Y-113547373D01*
X155535016Y-113532211D01*
X155597797Y-113518805D01*
X155642055Y-113499741D01*
X155750259Y-113461879D01*
X155796746Y-113449190D01*
X155854188Y-113420528D01*
X155912408Y-113393490D01*
X155951312Y-113365058D01*
X156048378Y-113304068D01*
X156090885Y-113281347D01*
X156140511Y-113240619D01*
X156191251Y-113201307D01*
X156222857Y-113164926D01*
X156303918Y-113083865D01*
X156340299Y-113052259D01*
X156379618Y-113001510D01*
X156420338Y-112951893D01*
X156443053Y-112909396D01*
X156504046Y-112812326D01*
X156532483Y-112773416D01*
X156559527Y-112715184D01*
X156588182Y-112657754D01*
X156600871Y-112611269D01*
X156638736Y-112503057D01*
X156657797Y-112458805D01*
X156671200Y-112396042D01*
X156686365Y-112333644D01*
X156688392Y-112285493D01*
X156701228Y-112171582D01*
X156709966Y-112124183D01*
X156709065Y-112060001D01*
X156709966Y-111995818D01*
X156701228Y-111948420D01*
X156688392Y-111834507D01*
X156686365Y-111786355D01*
X156671202Y-111723968D01*
X156657798Y-111661195D01*
X156638734Y-111616937D01*
X156600871Y-111508730D01*
X156588182Y-111462245D01*
X156559527Y-111404815D01*
X156532483Y-111346583D01*
X156504046Y-111307673D01*
X156443053Y-111210603D01*
X156420338Y-111168106D01*
X156379618Y-111118489D01*
X156340299Y-111067740D01*
X156303918Y-111036134D01*
X156222857Y-110955073D01*
X156191251Y-110918692D01*
X156140511Y-110879380D01*
X156090885Y-110838652D01*
X156048378Y-110815931D01*
X155951312Y-110754941D01*
X155912408Y-110726509D01*
X155854188Y-110699471D01*
X155796746Y-110670809D01*
X155750259Y-110658120D01*
X155642055Y-110620258D01*
X155597792Y-110601192D01*
X155535000Y-110587784D01*
X155472635Y-110572626D01*
X155424488Y-110570599D01*
X155353123Y-110562558D01*
X155347978Y-110560997D01*
X155278793Y-110554183D01*
X155246986Y-110550599D01*
X155241647Y-110550524D01*
X155236325Y-110550000D01*
X155204267Y-110550000D01*
X155145343Y-110549174D01*
X155123309Y-110546691D01*
X155120000Y-110517322D01*
X155120000Y-90427333D01*
X155123677Y-90390000D01*
X155109003Y-90241014D01*
X155065546Y-90097753D01*
X154994974Y-89965724D01*
X154923799Y-89878997D01*
X154900001Y-89849999D01*
X154871003Y-89826201D01*
X143667087Y-78622285D01*
X149665000Y-78622285D01*
X149665000Y-79377715D01*
X149812377Y-80118628D01*
X150101467Y-80816554D01*
X150521161Y-81444670D01*
X151055330Y-81978839D01*
X151683446Y-82398533D01*
X152381372Y-82687623D01*
X153122285Y-82835000D01*
X153877715Y-82835000D01*
X154618628Y-82687623D01*
X155316554Y-82398533D01*
X155944670Y-81978839D01*
X156478839Y-81444670D01*
X156898533Y-80816554D01*
X157187623Y-80118628D01*
X157335000Y-79377715D01*
X157335000Y-78622285D01*
X157187623Y-77881372D01*
X156898533Y-77183446D01*
X156478839Y-76555330D01*
X155944670Y-76021161D01*
X155316554Y-75601467D01*
X154618628Y-75312377D01*
X153877715Y-75165000D01*
X153122285Y-75165000D01*
X152381372Y-75312377D01*
X151683446Y-75601467D01*
X151055330Y-76021161D01*
X150521161Y-76555330D01*
X150101467Y-77183446D01*
X149812377Y-77881372D01*
X149665000Y-78622285D01*
X143667087Y-78622285D01*
X141558688Y-76513887D01*
X141595000Y-76331335D01*
X141595000Y-76048665D01*
X141539853Y-75771426D01*
X141431680Y-75510273D01*
X141274637Y-75275241D01*
X141074759Y-75075363D01*
X140842241Y-74920000D01*
X141074759Y-74764637D01*
X141274637Y-74564759D01*
X141431680Y-74329727D01*
X141539853Y-74068574D01*
X141595000Y-73791335D01*
X141595000Y-73508665D01*
X141539853Y-73231426D01*
X141431680Y-72970273D01*
X141274637Y-72735241D01*
X141074759Y-72535363D01*
X140842241Y-72380000D01*
X141074759Y-72224637D01*
X141274637Y-72024759D01*
X141431680Y-71789727D01*
X141539853Y-71528574D01*
X141595000Y-71251335D01*
X141595000Y-70968665D01*
X141539853Y-70691426D01*
X141431680Y-70430273D01*
X141274637Y-70195241D01*
X141074759Y-69995363D01*
X140842241Y-69840000D01*
X141074759Y-69684637D01*
X141274637Y-69484759D01*
X141431680Y-69249727D01*
X141539853Y-68988574D01*
X141595000Y-68711335D01*
X141595000Y-68428665D01*
X141539853Y-68151426D01*
X141431680Y-67890273D01*
X141274637Y-67655241D01*
X141074759Y-67455363D01*
X140840872Y-67299085D01*
X140901514Y-67266671D01*
X140973097Y-67022702D01*
X140160000Y-66209605D01*
X139346903Y-67022702D01*
X139418486Y-67266671D01*
X139482992Y-67297194D01*
X139480273Y-67298320D01*
X139245241Y-67455363D01*
X139045363Y-67655241D01*
X138888320Y-67890273D01*
X138780147Y-68151426D01*
X138725000Y-68428665D01*
X138725000Y-68711335D01*
X138780147Y-68988574D01*
X138888320Y-69249727D01*
X139045363Y-69484759D01*
X139245241Y-69684637D01*
X139477759Y-69840000D01*
X139245241Y-69995363D01*
X139045363Y-70195241D01*
X138888320Y-70430273D01*
X138780147Y-70691426D01*
X138725000Y-70968665D01*
X138725000Y-71251335D01*
X138780147Y-71528574D01*
X138888320Y-71789727D01*
X139045363Y-72024759D01*
X139245241Y-72224637D01*
X139477759Y-72380000D01*
X139245241Y-72535363D01*
X139045363Y-72735241D01*
X138888320Y-72970273D01*
X138780147Y-73231426D01*
X138725000Y-73508665D01*
X138725000Y-73791335D01*
X138761312Y-73973886D01*
X124109002Y-88626197D01*
X124079998Y-88650000D01*
X124051296Y-88684974D01*
X123985025Y-88765725D01*
X123942943Y-88844454D01*
X123914453Y-88897755D01*
X123870996Y-89041016D01*
X123859999Y-89152669D01*
X123859999Y-89152679D01*
X123856323Y-89190001D01*
X123859999Y-89227323D01*
X123860000Y-118407314D01*
X123856690Y-118436690D01*
X123827323Y-118439999D01*
X121109705Y-118439999D01*
X121104422Y-118439025D01*
X121034959Y-118439999D01*
X121002902Y-118439999D01*
X120997581Y-118440523D01*
X120992240Y-118440598D01*
X120960427Y-118444182D01*
X120891249Y-118450996D01*
X120886104Y-118452557D01*
X120814739Y-118460598D01*
X120766590Y-118462625D01*
X120704204Y-118477787D01*
X120641434Y-118491191D01*
X120597177Y-118510254D01*
X120488965Y-118548119D01*
X120442480Y-118560808D01*
X120385050Y-118589463D01*
X120326818Y-118616507D01*
X120287908Y-118644944D01*
X120190838Y-118705937D01*
X120148341Y-118728652D01*
X120098724Y-118769372D01*
X120047975Y-118808691D01*
X120016369Y-118845072D01*
X119935308Y-118926133D01*
X119898927Y-118957739D01*
X119859615Y-119008479D01*
X119818887Y-119058105D01*
X119796166Y-119100612D01*
X119735176Y-119197678D01*
X119706744Y-119236582D01*
X119679706Y-119294802D01*
X119651044Y-119352244D01*
X119638355Y-119398731D01*
X119600493Y-119506935D01*
X119581427Y-119551198D01*
X119568020Y-119613986D01*
X119552861Y-119676355D01*
X119550834Y-119724503D01*
X119537998Y-119838425D01*
X119529261Y-119885812D01*
X119530161Y-119949999D01*
X119529261Y-120014186D01*
X119537998Y-120061573D01*
X119550834Y-120175495D01*
X119552861Y-120223642D01*
X119568019Y-120286007D01*
X119581427Y-120348799D01*
X119600493Y-120393062D01*
X119638355Y-120501266D01*
X119651044Y-120547753D01*
X119679706Y-120605195D01*
X119706744Y-120663415D01*
X119735176Y-120702319D01*
X119796166Y-120799385D01*
X119818887Y-120841892D01*
X119859615Y-120891518D01*
X119898927Y-120942258D01*
X119935308Y-120973864D01*
X120016369Y-121054925D01*
X120047975Y-121091306D01*
X120098724Y-121130625D01*
X120148341Y-121171345D01*
X120190838Y-121194060D01*
X120287908Y-121255053D01*
X120326818Y-121283490D01*
X120385050Y-121310534D01*
X120442480Y-121339189D01*
X120488965Y-121351878D01*
X120597172Y-121389741D01*
X120641430Y-121408805D01*
X120704203Y-121422209D01*
X120766590Y-121437372D01*
X120814742Y-121439399D01*
X120886099Y-121447440D01*
X120891249Y-121449002D01*
X120960474Y-121455820D01*
X120992236Y-121459399D01*
X120997570Y-121459474D01*
X121002902Y-121459999D01*
X121034999Y-121459999D01*
X121104418Y-121460973D01*
X121109701Y-121459999D01*
X125149816Y-121459999D01*
X125144503Y-121460598D01*
X125096355Y-121462625D01*
X125033973Y-121477786D01*
X124971199Y-121491191D01*
X124926942Y-121510254D01*
X124818730Y-121548119D01*
X124772245Y-121560808D01*
X124714815Y-121589463D01*
X124656583Y-121616507D01*
X124617673Y-121644944D01*
X124520603Y-121705937D01*
X124478106Y-121728652D01*
X124428489Y-121769372D01*
X124377740Y-121808691D01*
X124346134Y-121845072D01*
X124265073Y-121926133D01*
X124228692Y-121957739D01*
X124189380Y-122008479D01*
X124148652Y-122058105D01*
X124125931Y-122100612D01*
X124064941Y-122197678D01*
X124036509Y-122236582D01*
X124009471Y-122294802D01*
X123980809Y-122352244D01*
X123968120Y-122398731D01*
X123930259Y-122506932D01*
X123911193Y-122551194D01*
X123897785Y-122613985D01*
X123882626Y-122676355D01*
X123880599Y-122724506D01*
X123872558Y-122795864D01*
X123870996Y-122801014D01*
X123864178Y-122870238D01*
X123860599Y-122902001D01*
X123860524Y-122907335D01*
X123859999Y-122912667D01*
X123859999Y-122944764D01*
X123859025Y-123014182D01*
X123859999Y-123019465D01*
X123860000Y-174582666D01*
X123856323Y-174619999D01*
X123870997Y-174768984D01*
X123914453Y-174912245D01*
X123985025Y-175044275D01*
X124056200Y-175131001D01*
X124079999Y-175160000D01*
X124108997Y-175183798D01*
X124472235Y-175547036D01*
X124464463Y-175556506D01*
X124405498Y-175666820D01*
X124369188Y-175786518D01*
X124356928Y-175911000D01*
X124356928Y-176469000D01*
X124369188Y-176593482D01*
X124405498Y-176713180D01*
X124464463Y-176823494D01*
X124465610Y-176824892D01*
X124465255Y-176825323D01*
X124406045Y-176935506D01*
X124369468Y-177055122D01*
X124360000Y-177174250D01*
X124518750Y-177333000D01*
X126063000Y-177333000D01*
X126063000Y-177313000D01*
X126317000Y-177313000D01*
X126317000Y-177333000D01*
X127861250Y-177333000D01*
X128020000Y-177174250D01*
X128010532Y-177055122D01*
X127973955Y-176935506D01*
X127914745Y-176825323D01*
X127914390Y-176824892D01*
X127915537Y-176823494D01*
X127974502Y-176713180D01*
X128010812Y-176593482D01*
X128023072Y-176469000D01*
X128023072Y-175911000D01*
X128010812Y-175786518D01*
X127974502Y-175666820D01*
X127915537Y-175556506D01*
X127836185Y-175459815D01*
X127739494Y-175380463D01*
X127629180Y-175321498D01*
X127509482Y-175285188D01*
X127385000Y-175272928D01*
X126347730Y-175272928D01*
X125379999Y-174305198D01*
X125379999Y-122992675D01*
X125383308Y-122963308D01*
X125412677Y-122959999D01*
X128130297Y-122959999D01*
X128135580Y-122960973D01*
X128204998Y-122959999D01*
X128237096Y-122959999D01*
X128242428Y-122959474D01*
X128247761Y-122959399D01*
X128279517Y-122955821D01*
X128348749Y-122949002D01*
X128353899Y-122947440D01*
X128425256Y-122939399D01*
X128473407Y-122937372D01*
X128535777Y-122922213D01*
X128598568Y-122908805D01*
X128642830Y-122889739D01*
X128751031Y-122851878D01*
X128797518Y-122839189D01*
X128854960Y-122810527D01*
X128913180Y-122783489D01*
X128952084Y-122755057D01*
X129049150Y-122694067D01*
X129091657Y-122671346D01*
X129141283Y-122630618D01*
X129192023Y-122591306D01*
X129223629Y-122554925D01*
X129304690Y-122473864D01*
X129341071Y-122442258D01*
X129380390Y-122391509D01*
X129421110Y-122341892D01*
X129443825Y-122299395D01*
X129504818Y-122202325D01*
X129533255Y-122163415D01*
X129560299Y-122105183D01*
X129588954Y-122047753D01*
X129601643Y-122001268D01*
X129639508Y-121893056D01*
X129658571Y-121848799D01*
X129671976Y-121786025D01*
X129687137Y-121723643D01*
X129689164Y-121675495D01*
X129702000Y-121561572D01*
X129710737Y-121514186D01*
X129709837Y-121449999D01*
X129710737Y-121385812D01*
X129702000Y-121338426D01*
X129689164Y-121224503D01*
X129687137Y-121176354D01*
X129671975Y-121113968D01*
X129658571Y-121051198D01*
X129639508Y-121006941D01*
X129601643Y-120898729D01*
X129588954Y-120852244D01*
X129560299Y-120794814D01*
X129533255Y-120736582D01*
X129504818Y-120697672D01*
X129443825Y-120600602D01*
X129421110Y-120558105D01*
X129380390Y-120508488D01*
X129341071Y-120457739D01*
X129304690Y-120426133D01*
X129223629Y-120345072D01*
X129192023Y-120308691D01*
X129141283Y-120269379D01*
X129091657Y-120228651D01*
X129049150Y-120205930D01*
X128952084Y-120144940D01*
X128913180Y-120116508D01*
X128854960Y-120089470D01*
X128797518Y-120060808D01*
X128751031Y-120048119D01*
X128642827Y-120010257D01*
X128598564Y-119991191D01*
X128535776Y-119977784D01*
X128473407Y-119962625D01*
X128425259Y-119960598D01*
X128353894Y-119952557D01*
X128348749Y-119950996D01*
X128279564Y-119944182D01*
X128247757Y-119940598D01*
X128242418Y-119940523D01*
X128237096Y-119939999D01*
X128205038Y-119939999D01*
X128135576Y-119939025D01*
X128130293Y-119939999D01*
X124090171Y-119939999D01*
X124095492Y-119939399D01*
X124143642Y-119937372D01*
X124206023Y-119922210D01*
X124268804Y-119908804D01*
X124313062Y-119889740D01*
X124421266Y-119851878D01*
X124467753Y-119839189D01*
X124525195Y-119810527D01*
X124583415Y-119783489D01*
X124622319Y-119755057D01*
X124719385Y-119694067D01*
X124761892Y-119671346D01*
X124811518Y-119630618D01*
X124862258Y-119591306D01*
X124893864Y-119554925D01*
X124974925Y-119473864D01*
X125011306Y-119442258D01*
X125050625Y-119391509D01*
X125091345Y-119341892D01*
X125114060Y-119299395D01*
X125175053Y-119202325D01*
X125203490Y-119163415D01*
X125230534Y-119105183D01*
X125259189Y-119047753D01*
X125271878Y-119001268D01*
X125309743Y-118893056D01*
X125328804Y-118848804D01*
X125342207Y-118786041D01*
X125357372Y-118723643D01*
X125359399Y-118675492D01*
X125367440Y-118604135D01*
X125369002Y-118598985D01*
X125375822Y-118529743D01*
X125379399Y-118497999D01*
X125379474Y-118492664D01*
X125379999Y-118487332D01*
X125379999Y-118455236D01*
X125380973Y-118385817D01*
X125379999Y-118380534D01*
X125379999Y-89504802D01*
X138725000Y-76159802D01*
X138725000Y-76331335D01*
X138780147Y-76608574D01*
X138888320Y-76869727D01*
X139045363Y-77104759D01*
X139245241Y-77304637D01*
X139477759Y-77460000D01*
X139245241Y-77615363D01*
X139045363Y-77815241D01*
X138888320Y-78050273D01*
X138780147Y-78311426D01*
X138725000Y-78588665D01*
X138725000Y-78871335D01*
X138780147Y-79148574D01*
X138888320Y-79409727D01*
X139045363Y-79644759D01*
X139245241Y-79844637D01*
X139477759Y-80000000D01*
X139245241Y-80155363D01*
X139045363Y-80355241D01*
X138888320Y-80590273D01*
X138780147Y-80851426D01*
X138725000Y-81128665D01*
X138725000Y-81411335D01*
X138780147Y-81688574D01*
X138888320Y-81949727D01*
X139045363Y-82184759D01*
X139245241Y-82384637D01*
X139477759Y-82540000D01*
X139245241Y-82695363D01*
X139045363Y-82895241D01*
X138941957Y-83050000D01*
X135757333Y-83050000D01*
X135720000Y-83046323D01*
X135682667Y-83050000D01*
X135571014Y-83060997D01*
X135427753Y-83104454D01*
X135295724Y-83175026D01*
X135179999Y-83269999D01*
X135156201Y-83298997D01*
X130969003Y-87486196D01*
X130939999Y-87509999D01*
X130884871Y-87577174D01*
X130845026Y-87625724D01*
X130774455Y-87757753D01*
X130774454Y-87757754D01*
X130730997Y-87901015D01*
X130720000Y-88012668D01*
X130720000Y-88012678D01*
X130716324Y-88050000D01*
X130720000Y-88087322D01*
X130720001Y-140487315D01*
X130716691Y-140516691D01*
X130687324Y-140520000D01*
X129995697Y-140520000D01*
X129990414Y-140519026D01*
X129920951Y-140520000D01*
X129888894Y-140520000D01*
X129883573Y-140520524D01*
X129878232Y-140520599D01*
X129846419Y-140524183D01*
X129777241Y-140530997D01*
X129772096Y-140532558D01*
X129700731Y-140540599D01*
X129652582Y-140542626D01*
X129590196Y-140557788D01*
X129527426Y-140571192D01*
X129483169Y-140590255D01*
X129374957Y-140628120D01*
X129328472Y-140640809D01*
X129271042Y-140669464D01*
X129212810Y-140696508D01*
X129173900Y-140724945D01*
X129076830Y-140785938D01*
X129034333Y-140808653D01*
X128984716Y-140849373D01*
X128933967Y-140888692D01*
X128902361Y-140925073D01*
X128821300Y-141006134D01*
X128784919Y-141037740D01*
X128745607Y-141088480D01*
X128704879Y-141138106D01*
X128682158Y-141180613D01*
X128621168Y-141277679D01*
X128592736Y-141316583D01*
X128565698Y-141374803D01*
X128537036Y-141432245D01*
X128524347Y-141478732D01*
X128486485Y-141586936D01*
X128467419Y-141631199D01*
X128454012Y-141693987D01*
X128438853Y-141756356D01*
X128436826Y-141804504D01*
X128423990Y-141918426D01*
X128415253Y-141965813D01*
X128416153Y-142030000D01*
X128415253Y-142094187D01*
X128423990Y-142141574D01*
X128436826Y-142255496D01*
X128438853Y-142303643D01*
X128454011Y-142366008D01*
X128467419Y-142428800D01*
X128486485Y-142473063D01*
X128524347Y-142581267D01*
X128537036Y-142627754D01*
X128565698Y-142685196D01*
X128592736Y-142743416D01*
X128621168Y-142782320D01*
X128682158Y-142879386D01*
X128704879Y-142921893D01*
X128745607Y-142971519D01*
X128784919Y-143022259D01*
X128821300Y-143053865D01*
X128902361Y-143134926D01*
X128933967Y-143171307D01*
X128984716Y-143210626D01*
X129034333Y-143251346D01*
X129076830Y-143274061D01*
X129173900Y-143335054D01*
X129212810Y-143363491D01*
X129271042Y-143390535D01*
X129328472Y-143419190D01*
X129374957Y-143431879D01*
X129483164Y-143469742D01*
X129527422Y-143488806D01*
X129590195Y-143502210D01*
X129652582Y-143517373D01*
X129700734Y-143519400D01*
X129772091Y-143527441D01*
X129777241Y-143529003D01*
X129787364Y-143530000D01*
X129777241Y-143530997D01*
X129772096Y-143532558D01*
X129700731Y-143540599D01*
X129652582Y-143542626D01*
X129590196Y-143557788D01*
X129527426Y-143571192D01*
X129483169Y-143590255D01*
X129374957Y-143628120D01*
X129328472Y-143640809D01*
X129271042Y-143669464D01*
X129212810Y-143696508D01*
X129173900Y-143724945D01*
X129076830Y-143785938D01*
X129034333Y-143808653D01*
X128984716Y-143849373D01*
X128933967Y-143888692D01*
X128902361Y-143925073D01*
X128821300Y-144006134D01*
X128784919Y-144037740D01*
X128745607Y-144088480D01*
X128704879Y-144138106D01*
X128682158Y-144180613D01*
X128621168Y-144277679D01*
X128592736Y-144316583D01*
X128565698Y-144374803D01*
X128537036Y-144432245D01*
X128524347Y-144478732D01*
X128486485Y-144586936D01*
X128467419Y-144631199D01*
X128454012Y-144693987D01*
X128438853Y-144756356D01*
X128436826Y-144804504D01*
X128423990Y-144918426D01*
X128415253Y-144965813D01*
X128416153Y-145030000D01*
X128415253Y-145094187D01*
X128423990Y-145141574D01*
X128436826Y-145255496D01*
X128438853Y-145303643D01*
X128454011Y-145366008D01*
X128467419Y-145428800D01*
X128486485Y-145473063D01*
X128524347Y-145581267D01*
X128537036Y-145627754D01*
X128565698Y-145685196D01*
X128592736Y-145743416D01*
X128621168Y-145782320D01*
X128682158Y-145879386D01*
X128704879Y-145921893D01*
X128745607Y-145971519D01*
X128784919Y-146022259D01*
X128821300Y-146053865D01*
X128902361Y-146134926D01*
X128933967Y-146171307D01*
X128984716Y-146210626D01*
X129034333Y-146251346D01*
X129076830Y-146274061D01*
X129173900Y-146335054D01*
X129212810Y-146363491D01*
X129271042Y-146390535D01*
X129328472Y-146419190D01*
X129374957Y-146431879D01*
X129483164Y-146469742D01*
X129527422Y-146488806D01*
X129590195Y-146502210D01*
X129652582Y-146517373D01*
X129700734Y-146519400D01*
X129772091Y-146527441D01*
X129777241Y-146529003D01*
X129846466Y-146535821D01*
X129878228Y-146539400D01*
X129883562Y-146539475D01*
X129888894Y-146540000D01*
X129920991Y-146540000D01*
X129990410Y-146540974D01*
X129995693Y-146540000D01*
X130687322Y-146540000D01*
X130716691Y-146543309D01*
X130720000Y-146572675D01*
X130720001Y-180354199D01*
X127932567Y-183141634D01*
X127974502Y-183063180D01*
X128010812Y-182943482D01*
X128023072Y-182819000D01*
X128023072Y-182261000D01*
X128010812Y-182136518D01*
X127974502Y-182016820D01*
X127915537Y-181906506D01*
X127914301Y-181905000D01*
X127915537Y-181903494D01*
X127974502Y-181793180D01*
X128010812Y-181673482D01*
X128023072Y-181549000D01*
X128023072Y-180991000D01*
X128010812Y-180866518D01*
X127974502Y-180746820D01*
X127915537Y-180636506D01*
X127914301Y-180635000D01*
X127915537Y-180633494D01*
X127974502Y-180523180D01*
X128010812Y-180403482D01*
X128023072Y-180279000D01*
X128023072Y-179721000D01*
X128010812Y-179596518D01*
X127974502Y-179476820D01*
X127915537Y-179366506D01*
X127914301Y-179365000D01*
X127915537Y-179363494D01*
X127974502Y-179253180D01*
X128010812Y-179133482D01*
X128023072Y-179009000D01*
X128023072Y-178451000D01*
X128010812Y-178326518D01*
X127974502Y-178206820D01*
X127915537Y-178096506D01*
X127914390Y-178095108D01*
X127914745Y-178094677D01*
X127973955Y-177984494D01*
X128010532Y-177864878D01*
X128020000Y-177745750D01*
X127861250Y-177587000D01*
X126317000Y-177587000D01*
X126317000Y-177607000D01*
X126063000Y-177607000D01*
X126063000Y-177587000D01*
X124518750Y-177587000D01*
X124360000Y-177745750D01*
X124369468Y-177864878D01*
X124401613Y-177970000D01*
X121894802Y-177970000D01*
X116330000Y-172405199D01*
X116330000Y-170258729D01*
X116373937Y-170214792D01*
X116487205Y-170045274D01*
X116565226Y-169856916D01*
X116605000Y-169656957D01*
X116605000Y-169453079D01*
X116565226Y-169253120D01*
X116487205Y-169064762D01*
X116373937Y-168895244D01*
X116229774Y-168751081D01*
X116060256Y-168637813D01*
X115871898Y-168559792D01*
X115671939Y-168520018D01*
X115468061Y-168520018D01*
X115268102Y-168559792D01*
X115079744Y-168637813D01*
X114910226Y-168751081D01*
X114766063Y-168895244D01*
X114652795Y-169064762D01*
X114574774Y-169253120D01*
X114535000Y-169453079D01*
X114535000Y-169656957D01*
X114574774Y-169856916D01*
X114652795Y-170045274D01*
X114766063Y-170214792D01*
X114810001Y-170258730D01*
X114810000Y-172682677D01*
X114806324Y-172720000D01*
X114810000Y-172757322D01*
X114810000Y-172757332D01*
X114820997Y-172868985D01*
X114864454Y-173012246D01*
X114935026Y-173144276D01*
X114974871Y-173192826D01*
X115029999Y-173260001D01*
X115059003Y-173283804D01*
X121016201Y-179241003D01*
X121039999Y-179270001D01*
X121068997Y-179293799D01*
X121155724Y-179364974D01*
X121287753Y-179435546D01*
X121431014Y-179479003D01*
X121580000Y-179493677D01*
X121617333Y-179490000D01*
X124401500Y-179490000D01*
X124369188Y-179596518D01*
X124356928Y-179721000D01*
X124356928Y-180279000D01*
X124369188Y-180403482D01*
X124405498Y-180523180D01*
X124464463Y-180633494D01*
X124465699Y-180635000D01*
X124464463Y-180636506D01*
X124405498Y-180746820D01*
X124369188Y-180866518D01*
X124356928Y-180991000D01*
X124356928Y-181549000D01*
X124369188Y-181673482D01*
X124405498Y-181793180D01*
X124464463Y-181903494D01*
X124465699Y-181905000D01*
X124464463Y-181906506D01*
X124405498Y-182016820D01*
X124369188Y-182136518D01*
X124356928Y-182261000D01*
X124356928Y-182819000D01*
X124369188Y-182943482D01*
X124401500Y-183050000D01*
X119724802Y-183050000D01*
X107640000Y-170965199D01*
X107640000Y-131259466D01*
X107640974Y-131254183D01*
X107640000Y-131184764D01*
X107640000Y-131152667D01*
X107639475Y-131147335D01*
X107639400Y-131142001D01*
X107635821Y-131110239D01*
X107629003Y-131041014D01*
X107627441Y-131035864D01*
X107619400Y-130964507D01*
X107617373Y-130916355D01*
X107602210Y-130853968D01*
X107588806Y-130791195D01*
X107569742Y-130746937D01*
X107531879Y-130638730D01*
X107519190Y-130592245D01*
X107490535Y-130534815D01*
X107463491Y-130476583D01*
X107435054Y-130437673D01*
X107374061Y-130340603D01*
X107351346Y-130298106D01*
X107310626Y-130248489D01*
X107271307Y-130197740D01*
X107234926Y-130166134D01*
X107153865Y-130085073D01*
X107122259Y-130048692D01*
X107071519Y-130009380D01*
X107021893Y-129968652D01*
X106979386Y-129945931D01*
X106882320Y-129884941D01*
X106843416Y-129856509D01*
X106785196Y-129829471D01*
X106727754Y-129800809D01*
X106681267Y-129788120D01*
X106573063Y-129750258D01*
X106528800Y-129731192D01*
X106466008Y-129717784D01*
X106403643Y-129702626D01*
X106355496Y-129700599D01*
X106284131Y-129692558D01*
X106278986Y-129690997D01*
X106268863Y-129690000D01*
X106278986Y-129689003D01*
X106284136Y-129687441D01*
X106355493Y-129679400D01*
X106403643Y-129677373D01*
X106466024Y-129662211D01*
X106528805Y-129648805D01*
X106573063Y-129629741D01*
X106681267Y-129591879D01*
X106727754Y-129579190D01*
X106785196Y-129550528D01*
X106843416Y-129523490D01*
X106882320Y-129495058D01*
X106979386Y-129434068D01*
X107021893Y-129411347D01*
X107071519Y-129370619D01*
X107122259Y-129331307D01*
X107153865Y-129294926D01*
X107234926Y-129213865D01*
X107271307Y-129182259D01*
X107310626Y-129131510D01*
X107351346Y-129081893D01*
X107374061Y-129039396D01*
X107435054Y-128942326D01*
X107463491Y-128903416D01*
X107490535Y-128845184D01*
X107519190Y-128787754D01*
X107531879Y-128741269D01*
X107569744Y-128633057D01*
X107588805Y-128588805D01*
X107602208Y-128526042D01*
X107617373Y-128463644D01*
X107619400Y-128415493D01*
X107627441Y-128344136D01*
X107629003Y-128338986D01*
X107635823Y-128269744D01*
X107639400Y-128238000D01*
X107639475Y-128232665D01*
X107640000Y-128227333D01*
X107640000Y-128195237D01*
X107640974Y-128125818D01*
X107640000Y-128120535D01*
X107640000Y-100052702D01*
X109676903Y-100052702D01*
X109748486Y-100296671D01*
X110003996Y-100417571D01*
X110278184Y-100486300D01*
X110560512Y-100500217D01*
X110840130Y-100458787D01*
X111106292Y-100363603D01*
X111231514Y-100296671D01*
X111303097Y-100052702D01*
X110490000Y-99239605D01*
X109676903Y-100052702D01*
X107640000Y-100052702D01*
X107640000Y-99130512D01*
X109049783Y-99130512D01*
X109091213Y-99410130D01*
X109186397Y-99676292D01*
X109253329Y-99801514D01*
X109497298Y-99873097D01*
X110310395Y-99060000D01*
X110669605Y-99060000D01*
X111482702Y-99873097D01*
X111726671Y-99801514D01*
X111847571Y-99546004D01*
X111916300Y-99271816D01*
X111930217Y-98989488D01*
X111888787Y-98709870D01*
X111793603Y-98443708D01*
X111726671Y-98318486D01*
X111482702Y-98246903D01*
X110669605Y-99060000D01*
X110310395Y-99060000D01*
X109497298Y-98246903D01*
X109253329Y-98318486D01*
X109132429Y-98573996D01*
X109063700Y-98848184D01*
X109049783Y-99130512D01*
X107640000Y-99130512D01*
X107640000Y-98067298D01*
X109676903Y-98067298D01*
X110490000Y-98880395D01*
X111303097Y-98067298D01*
X111231514Y-97823329D01*
X110976004Y-97702429D01*
X110701816Y-97633700D01*
X110419488Y-97619783D01*
X110139870Y-97661213D01*
X109873708Y-97756397D01*
X109748486Y-97823329D01*
X109676903Y-98067298D01*
X107640000Y-98067298D01*
X107640000Y-90474801D01*
X111004802Y-87110000D01*
X118621957Y-87110000D01*
X118725363Y-87264759D01*
X118925241Y-87464637D01*
X119157759Y-87620000D01*
X118925241Y-87775363D01*
X118725363Y-87975241D01*
X118568320Y-88210273D01*
X118460147Y-88471426D01*
X118405000Y-88748665D01*
X118405000Y-89031335D01*
X118460147Y-89308574D01*
X118568320Y-89569727D01*
X118725363Y-89804759D01*
X118925241Y-90004637D01*
X119157759Y-90160000D01*
X118925241Y-90315363D01*
X118725363Y-90515241D01*
X118621957Y-90670000D01*
X111701362Y-90670000D01*
X111604637Y-90525241D01*
X111404759Y-90325363D01*
X111169727Y-90168320D01*
X110908574Y-90060147D01*
X110631335Y-90005000D01*
X110348665Y-90005000D01*
X110071426Y-90060147D01*
X109810273Y-90168320D01*
X109575241Y-90325363D01*
X109375363Y-90525241D01*
X109218320Y-90760273D01*
X109110147Y-91021426D01*
X109055000Y-91298665D01*
X109055000Y-91581335D01*
X109110147Y-91858574D01*
X109218320Y-92119727D01*
X109375363Y-92354759D01*
X109575241Y-92554637D01*
X109810273Y-92711680D01*
X110071426Y-92819853D01*
X110348665Y-92875000D01*
X110631335Y-92875000D01*
X110908574Y-92819853D01*
X111169727Y-92711680D01*
X111404759Y-92554637D01*
X111604637Y-92354759D01*
X111714725Y-92190000D01*
X118621957Y-92190000D01*
X118725363Y-92344759D01*
X118925241Y-92544637D01*
X119157759Y-92700000D01*
X118925241Y-92855363D01*
X118725363Y-93055241D01*
X118568320Y-93290273D01*
X118460147Y-93551426D01*
X118405000Y-93828665D01*
X118405000Y-94111335D01*
X118460147Y-94388574D01*
X118568320Y-94649727D01*
X118725363Y-94884759D01*
X118925241Y-95084637D01*
X119160273Y-95241680D01*
X119421426Y-95349853D01*
X119698665Y-95405000D01*
X119981335Y-95405000D01*
X120258574Y-95349853D01*
X120519727Y-95241680D01*
X120754759Y-95084637D01*
X120954637Y-94884759D01*
X121111680Y-94649727D01*
X121219853Y-94388574D01*
X121275000Y-94111335D01*
X121275000Y-93828665D01*
X121219853Y-93551426D01*
X121111680Y-93290273D01*
X120954637Y-93055241D01*
X120754759Y-92855363D01*
X120522241Y-92700000D01*
X120754759Y-92544637D01*
X120954637Y-92344759D01*
X121111680Y-92109727D01*
X121219853Y-91848574D01*
X121275000Y-91571335D01*
X121275000Y-91288665D01*
X121219853Y-91011426D01*
X121111680Y-90750273D01*
X120954637Y-90515241D01*
X120754759Y-90315363D01*
X120522241Y-90160000D01*
X120754759Y-90004637D01*
X120954637Y-89804759D01*
X121111680Y-89569727D01*
X121219853Y-89308574D01*
X121275000Y-89031335D01*
X121275000Y-88748665D01*
X121219853Y-88471426D01*
X121111680Y-88210273D01*
X120954637Y-87975241D01*
X120754759Y-87775363D01*
X120522241Y-87620000D01*
X120754759Y-87464637D01*
X120954637Y-87264759D01*
X121111680Y-87029727D01*
X121219853Y-86768574D01*
X121275000Y-86491335D01*
X121275000Y-86208665D01*
X121219853Y-85931426D01*
X121111680Y-85670273D01*
X120954637Y-85435241D01*
X120754759Y-85235363D01*
X120522241Y-85080000D01*
X120754759Y-84924637D01*
X120954637Y-84724759D01*
X121111680Y-84489727D01*
X121219853Y-84228574D01*
X121275000Y-83951335D01*
X121275000Y-83668665D01*
X121219853Y-83391426D01*
X121111680Y-83130273D01*
X120954637Y-82895241D01*
X120754759Y-82695363D01*
X120522241Y-82540000D01*
X120754759Y-82384637D01*
X120954637Y-82184759D01*
X121111680Y-81949727D01*
X121219853Y-81688574D01*
X121275000Y-81411335D01*
X121275000Y-81128665D01*
X121219853Y-80851426D01*
X121111680Y-80590273D01*
X120954637Y-80355241D01*
X120754759Y-80155363D01*
X120522241Y-80000000D01*
X120754759Y-79844637D01*
X120954637Y-79644759D01*
X121111680Y-79409727D01*
X121219853Y-79148574D01*
X121275000Y-78871335D01*
X121275000Y-78588665D01*
X121219853Y-78311426D01*
X121111680Y-78050273D01*
X120954637Y-77815241D01*
X120754759Y-77615363D01*
X120522241Y-77460000D01*
X120754759Y-77304637D01*
X120954637Y-77104759D01*
X121111680Y-76869727D01*
X121219853Y-76608574D01*
X121275000Y-76331335D01*
X121275000Y-76048665D01*
X121219853Y-75771426D01*
X121111680Y-75510273D01*
X120954637Y-75275241D01*
X120754759Y-75075363D01*
X120522241Y-74920000D01*
X120754759Y-74764637D01*
X120954637Y-74564759D01*
X121111680Y-74329727D01*
X121219853Y-74068574D01*
X121275000Y-73791335D01*
X121275000Y-73508665D01*
X121219853Y-73231426D01*
X121111680Y-72970273D01*
X120954637Y-72735241D01*
X120754759Y-72535363D01*
X120522241Y-72380000D01*
X120754759Y-72224637D01*
X120954637Y-72024759D01*
X121111680Y-71789727D01*
X121219853Y-71528574D01*
X121275000Y-71251335D01*
X121275000Y-70968665D01*
X121219853Y-70691426D01*
X121111680Y-70430273D01*
X120954637Y-70195241D01*
X120754759Y-69995363D01*
X120522241Y-69840000D01*
X120754759Y-69684637D01*
X120954637Y-69484759D01*
X121111680Y-69249727D01*
X121219853Y-68988574D01*
X121275000Y-68711335D01*
X121275000Y-68428665D01*
X121219853Y-68151426D01*
X121111680Y-67890273D01*
X120954637Y-67655241D01*
X120754759Y-67455363D01*
X120522241Y-67300000D01*
X120754759Y-67144637D01*
X120954637Y-66944759D01*
X121111680Y-66709727D01*
X121219853Y-66448574D01*
X121275000Y-66171335D01*
X121275000Y-66100512D01*
X138719783Y-66100512D01*
X138761213Y-66380130D01*
X138856397Y-66646292D01*
X138923329Y-66771514D01*
X139167298Y-66843097D01*
X139980395Y-66030000D01*
X140339605Y-66030000D01*
X141152702Y-66843097D01*
X141396671Y-66771514D01*
X141517571Y-66516004D01*
X141586300Y-66241816D01*
X141600217Y-65959488D01*
X141558787Y-65679870D01*
X141463603Y-65413708D01*
X141396671Y-65288486D01*
X141152702Y-65216903D01*
X140339605Y-66030000D01*
X139980395Y-66030000D01*
X139167298Y-65216903D01*
X138923329Y-65288486D01*
X138802429Y-65543996D01*
X138733700Y-65818184D01*
X138719783Y-66100512D01*
X121275000Y-66100512D01*
X121275000Y-65888665D01*
X121219853Y-65611426D01*
X121111680Y-65350273D01*
X120954637Y-65115241D01*
X120876694Y-65037298D01*
X139346903Y-65037298D01*
X140160000Y-65850395D01*
X140973097Y-65037298D01*
X140901514Y-64793329D01*
X140646004Y-64672429D01*
X140371816Y-64603700D01*
X140089488Y-64589783D01*
X139809870Y-64631213D01*
X139543708Y-64726397D01*
X139418486Y-64793329D01*
X139346903Y-65037298D01*
X120876694Y-65037298D01*
X120754759Y-64915363D01*
X120519727Y-64758320D01*
X120258574Y-64650147D01*
X119981335Y-64595000D01*
X119698665Y-64595000D01*
X119421426Y-64650147D01*
X119160273Y-64758320D01*
X118925241Y-64915363D01*
X118725363Y-65115241D01*
X118568320Y-65350273D01*
X118460147Y-65611426D01*
X118405000Y-65888665D01*
X118405000Y-66171335D01*
X118460147Y-66448574D01*
X118568320Y-66709727D01*
X118725363Y-66944759D01*
X118925241Y-67144637D01*
X119157759Y-67300000D01*
X118925241Y-67455363D01*
X118725363Y-67655241D01*
X118568320Y-67890273D01*
X118460147Y-68151426D01*
X118405000Y-68428665D01*
X118405000Y-68711335D01*
X118460147Y-68988574D01*
X118568320Y-69249727D01*
X118725363Y-69484759D01*
X118925241Y-69684637D01*
X119157759Y-69840000D01*
X118925241Y-69995363D01*
X118725363Y-70195241D01*
X118568320Y-70430273D01*
X118460147Y-70691426D01*
X118405000Y-70968665D01*
X118405000Y-71251335D01*
X118460147Y-71528574D01*
X118568320Y-71789727D01*
X118725363Y-72024759D01*
X118925241Y-72224637D01*
X119157759Y-72380000D01*
X118925241Y-72535363D01*
X118725363Y-72735241D01*
X118621957Y-72890000D01*
X116283717Y-72890000D01*
X116239780Y-72846063D01*
X116070262Y-72732795D01*
X115881904Y-72654774D01*
X115681945Y-72615000D01*
X115478067Y-72615000D01*
X115278108Y-72654774D01*
X115089750Y-72732795D01*
X114920232Y-72846063D01*
X114776069Y-72990226D01*
X114662801Y-73159744D01*
X114584780Y-73348102D01*
X114545006Y-73548061D01*
X114545006Y-73751939D01*
X114584780Y-73951898D01*
X114662801Y-74140256D01*
X114776069Y-74309774D01*
X114920232Y-74453937D01*
X115089750Y-74567205D01*
X115278108Y-74645226D01*
X115478067Y-74685000D01*
X115681945Y-74685000D01*
X115881904Y-74645226D01*
X116070262Y-74567205D01*
X116239780Y-74453937D01*
X116283717Y-74410000D01*
X118621957Y-74410000D01*
X118725363Y-74564759D01*
X118925241Y-74764637D01*
X119157759Y-74920000D01*
X118925241Y-75075363D01*
X118725363Y-75275241D01*
X118568320Y-75510273D01*
X118460147Y-75771426D01*
X118405000Y-76048665D01*
X118405000Y-76331335D01*
X118460147Y-76608574D01*
X118568320Y-76869727D01*
X118725363Y-77104759D01*
X118925241Y-77304637D01*
X119157759Y-77460000D01*
X118925241Y-77615363D01*
X118725363Y-77815241D01*
X118568320Y-78050273D01*
X118460147Y-78311426D01*
X118405000Y-78588665D01*
X118405000Y-78871335D01*
X118460147Y-79148574D01*
X118568320Y-79409727D01*
X118725363Y-79644759D01*
X118925241Y-79844637D01*
X119157759Y-80000000D01*
X118925241Y-80155363D01*
X118725363Y-80355241D01*
X118568320Y-80590273D01*
X118460147Y-80851426D01*
X118405000Y-81128665D01*
X118405000Y-81411335D01*
X118460147Y-81688574D01*
X118568320Y-81949727D01*
X118725363Y-82184759D01*
X118925241Y-82384637D01*
X119157759Y-82540000D01*
X118925241Y-82695363D01*
X118725363Y-82895241D01*
X118568320Y-83130273D01*
X118460147Y-83391426D01*
X118405000Y-83668665D01*
X118405000Y-83951335D01*
X118460147Y-84228574D01*
X118568320Y-84489727D01*
X118725363Y-84724759D01*
X118925241Y-84924637D01*
X119157759Y-85080000D01*
X118925241Y-85235363D01*
X118725363Y-85435241D01*
X118621957Y-85590000D01*
X110727325Y-85590000D01*
X110690000Y-85586324D01*
X110652675Y-85590000D01*
X110652667Y-85590000D01*
X110541014Y-85600997D01*
X110397753Y-85644454D01*
X110265724Y-85715026D01*
X110149999Y-85809999D01*
X110126201Y-85838997D01*
X106369003Y-89596196D01*
X106339999Y-89619999D01*
X106287103Y-89684454D01*
X106245026Y-89735724D01*
X106183944Y-89849999D01*
X106174454Y-89867754D01*
X106130997Y-90011015D01*
X106120000Y-90122668D01*
X106120000Y-90122678D01*
X106116324Y-90160000D01*
X106120000Y-90197322D01*
X106120001Y-128147315D01*
X106116691Y-128176691D01*
X106087324Y-128180000D01*
X104629844Y-128180000D01*
X104624561Y-128179026D01*
X104555098Y-128180000D01*
X104523041Y-128180000D01*
X104517720Y-128180524D01*
X104512379Y-128180599D01*
X104480566Y-128184183D01*
X104411388Y-128190997D01*
X104406243Y-128192558D01*
X104334878Y-128200599D01*
X104286729Y-128202626D01*
X104224343Y-128217788D01*
X104161573Y-128231192D01*
X104117316Y-128250255D01*
X104009104Y-128288120D01*
X103962619Y-128300809D01*
X103905189Y-128329464D01*
X103846957Y-128356508D01*
X103808047Y-128384945D01*
X103710977Y-128445938D01*
X103668480Y-128468653D01*
X103618863Y-128509373D01*
X103568114Y-128548692D01*
X103536508Y-128585073D01*
X103455447Y-128666134D01*
X103419066Y-128697740D01*
X103379754Y-128748480D01*
X103339026Y-128798106D01*
X103316305Y-128840613D01*
X103255315Y-128937679D01*
X103226883Y-128976583D01*
X103199845Y-129034803D01*
X103171183Y-129092245D01*
X103158494Y-129138732D01*
X103120632Y-129246936D01*
X103101566Y-129291199D01*
X103088159Y-129353987D01*
X103073000Y-129416356D01*
X103070973Y-129464504D01*
X103058137Y-129578426D01*
X103049400Y-129625813D01*
X95910000Y-129625813D01*
X95910000Y-78622285D01*
X99665000Y-78622285D01*
X99665000Y-79377715D01*
X99812377Y-80118628D01*
X100101467Y-80816554D01*
X100521161Y-81444670D01*
X101055330Y-81978839D01*
X101683446Y-82398533D01*
X102381372Y-82687623D01*
X103122285Y-82835000D01*
X103877715Y-82835000D01*
X104618628Y-82687623D01*
X105316554Y-82398533D01*
X105944670Y-81978839D01*
X106478839Y-81444670D01*
X106898533Y-80816554D01*
X107187623Y-80118628D01*
X107335000Y-79377715D01*
X107335000Y-78622285D01*
X107187623Y-77881372D01*
X106898533Y-77183446D01*
X106478839Y-76555330D01*
X105944670Y-76021161D01*
X105316554Y-75601467D01*
X104618628Y-75312377D01*
X103877715Y-75165000D01*
X103122285Y-75165000D01*
X102381372Y-75312377D01*
X101683446Y-75601467D01*
X101055330Y-76021161D01*
X100521161Y-76555330D01*
X100101467Y-77183446D01*
X99812377Y-77881372D01*
X99665000Y-78622285D01*
X95910000Y-78622285D01*
X95910000Y-48457285D01*
X99665000Y-48457285D01*
X99665000Y-49212715D01*
X99812377Y-49953628D01*
X100101467Y-50651554D01*
X100521161Y-51279670D01*
X101055330Y-51813839D01*
X101683446Y-52233533D01*
X102381372Y-52522623D01*
X103122285Y-52670000D01*
X103877715Y-52670000D01*
X104618628Y-52522623D01*
X105316554Y-52233533D01*
X105944670Y-51813839D01*
X106478839Y-51279670D01*
X106898533Y-50651554D01*
X107187623Y-49953628D01*
X107335000Y-49212715D01*
X107335000Y-48622285D01*
X149665000Y-48622285D01*
X149665000Y-49377715D01*
X149812377Y-50118628D01*
X150101467Y-50816554D01*
X150521161Y-51444670D01*
X151055330Y-51978839D01*
X151683446Y-52398533D01*
X152381372Y-52687623D01*
X153122285Y-52835000D01*
X153877715Y-52835000D01*
X154618628Y-52687623D01*
X155316554Y-52398533D01*
X155944670Y-51978839D01*
X156478839Y-51444670D01*
X156898533Y-50816554D01*
X157187623Y-50118628D01*
X157335000Y-49377715D01*
X157335000Y-48622285D01*
X157187623Y-47881372D01*
X156898533Y-47183446D01*
X156478839Y-46555330D01*
X155944670Y-46021161D01*
X155316554Y-45601467D01*
X154618628Y-45312377D01*
X153877715Y-45165000D01*
X153122285Y-45165000D01*
X152381372Y-45312377D01*
X151683446Y-45601467D01*
X151055330Y-46021161D01*
X150521161Y-46555330D01*
X150101467Y-47183446D01*
X149812377Y-47881372D01*
X149665000Y-48622285D01*
X107335000Y-48622285D01*
X107335000Y-48457285D01*
X107187623Y-47716372D01*
X106898533Y-47018446D01*
X106478839Y-46390330D01*
X105944670Y-45856161D01*
X105316554Y-45436467D01*
X104618628Y-45147377D01*
X103877715Y-45000000D01*
X103122285Y-45000000D01*
X102381372Y-45147377D01*
X101683446Y-45436467D01*
X101055330Y-45856161D01*
X100521161Y-46390330D01*
X100101467Y-47018446D01*
X99812377Y-47716372D01*
X99665000Y-48457285D01*
X95910000Y-48457285D01*
X95910000Y-31378665D01*
X111405000Y-31378665D01*
X111405000Y-31661335D01*
X111460147Y-31938574D01*
X111568320Y-32199727D01*
X111725363Y-32434759D01*
X111925241Y-32634637D01*
X112160273Y-32791680D01*
X112421426Y-32899853D01*
X112698665Y-32955000D01*
X112981335Y-32955000D01*
X113258574Y-32899853D01*
X113519727Y-32791680D01*
X113754759Y-32634637D01*
X113921339Y-32468057D01*
X113950498Y-32564180D01*
X114009463Y-32674494D01*
X114088815Y-32771185D01*
X114185506Y-32850537D01*
X114295820Y-32909502D01*
X114415518Y-32945812D01*
X114540000Y-32958072D01*
X115054250Y-32955000D01*
X115213000Y-32796250D01*
X115213000Y-31647000D01*
X115467000Y-31647000D01*
X115467000Y-32796250D01*
X115625750Y-32955000D01*
X116140000Y-32958072D01*
X116264482Y-32945812D01*
X116384180Y-32909502D01*
X116494494Y-32850537D01*
X116591185Y-32771185D01*
X116670537Y-32674494D01*
X116729502Y-32564180D01*
X116765812Y-32444482D01*
X116778072Y-32320000D01*
X116775000Y-31805750D01*
X116616250Y-31647000D01*
X115467000Y-31647000D01*
X115213000Y-31647000D01*
X115193000Y-31647000D01*
X115193000Y-31393000D01*
X115213000Y-31393000D01*
X115213000Y-30243750D01*
X115467000Y-30243750D01*
X115467000Y-31393000D01*
X116616250Y-31393000D01*
X116775000Y-31234250D01*
X116778072Y-30720000D01*
X116765812Y-30595518D01*
X116729502Y-30475820D01*
X116683319Y-30389419D01*
X136985000Y-30389419D01*
X136985000Y-30770581D01*
X137059361Y-31144419D01*
X137205225Y-31496566D01*
X137416987Y-31813491D01*
X137686509Y-32083013D01*
X138003434Y-32294775D01*
X138355581Y-32440639D01*
X138729419Y-32515000D01*
X139110581Y-32515000D01*
X139484419Y-32440639D01*
X139836566Y-32294775D01*
X140153491Y-32083013D01*
X140423013Y-31813491D01*
X140634775Y-31496566D01*
X140780639Y-31144419D01*
X140855000Y-30770581D01*
X140855000Y-30389419D01*
X141185000Y-30389419D01*
X141185000Y-30770581D01*
X141259361Y-31144419D01*
X141405225Y-31496566D01*
X141616987Y-31813491D01*
X141886509Y-32083013D01*
X142203434Y-32294775D01*
X142555581Y-32440639D01*
X142929419Y-32515000D01*
X143310581Y-32515000D01*
X143684419Y-32440639D01*
X144036566Y-32294775D01*
X144353491Y-32083013D01*
X144623013Y-31813491D01*
X144834775Y-31496566D01*
X144980639Y-31144419D01*
X145055000Y-30770581D01*
X145055000Y-30389419D01*
X145385000Y-30389419D01*
X145385000Y-30770581D01*
X145459361Y-31144419D01*
X145605225Y-31496566D01*
X145816987Y-31813491D01*
X146086509Y-32083013D01*
X146403434Y-32294775D01*
X146560000Y-32359627D01*
X146560001Y-34856288D01*
X146516063Y-34900226D01*
X146402795Y-35069744D01*
X146324774Y-35258102D01*
X146285000Y-35458061D01*
X146285000Y-35661939D01*
X146324774Y-35861898D01*
X146402795Y-36050256D01*
X146516063Y-36219774D01*
X146660226Y-36363937D01*
X146829744Y-36477205D01*
X147018102Y-36555226D01*
X147218061Y-36595000D01*
X147421939Y-36595000D01*
X147621898Y-36555226D01*
X147810256Y-36477205D01*
X147979774Y-36363937D01*
X148123937Y-36219774D01*
X148237205Y-36050256D01*
X148315226Y-35861898D01*
X148355000Y-35661939D01*
X148355000Y-35458061D01*
X148315226Y-35258102D01*
X148237205Y-35069744D01*
X148123937Y-34900226D01*
X148080000Y-34856289D01*
X148080000Y-32359627D01*
X148236566Y-32294775D01*
X148553491Y-32083013D01*
X148823013Y-31813491D01*
X149034775Y-31496566D01*
X149180639Y-31144419D01*
X149255000Y-30770581D01*
X149255000Y-30389419D01*
X149225817Y-30242702D01*
X149796903Y-30242702D01*
X149868486Y-30486671D01*
X150123996Y-30607571D01*
X150398184Y-30676300D01*
X150680512Y-30690217D01*
X150960130Y-30648787D01*
X151226292Y-30553603D01*
X151351514Y-30486671D01*
X151423097Y-30242702D01*
X150610000Y-29429605D01*
X149796903Y-30242702D01*
X149225817Y-30242702D01*
X149180639Y-30015581D01*
X149034775Y-29663434D01*
X148823013Y-29346509D01*
X148797016Y-29320512D01*
X149169783Y-29320512D01*
X149211213Y-29600130D01*
X149306397Y-29866292D01*
X149373329Y-29991514D01*
X149617298Y-30063097D01*
X150430395Y-29250000D01*
X149617298Y-28436903D01*
X149373329Y-28508486D01*
X149252429Y-28763996D01*
X149183700Y-29038184D01*
X149169783Y-29320512D01*
X148797016Y-29320512D01*
X148553491Y-29076987D01*
X148236566Y-28865225D01*
X147884419Y-28719361D01*
X147510581Y-28645000D01*
X147129419Y-28645000D01*
X146755581Y-28719361D01*
X146403434Y-28865225D01*
X146086509Y-29076987D01*
X145816987Y-29346509D01*
X145605225Y-29663434D01*
X145459361Y-30015581D01*
X145385000Y-30389419D01*
X145055000Y-30389419D01*
X144980639Y-30015581D01*
X144834775Y-29663434D01*
X144623013Y-29346509D01*
X144353491Y-29076987D01*
X144036566Y-28865225D01*
X143684419Y-28719361D01*
X143310581Y-28645000D01*
X142929419Y-28645000D01*
X142555581Y-28719361D01*
X142203434Y-28865225D01*
X141886509Y-29076987D01*
X141616987Y-29346509D01*
X141405225Y-29663434D01*
X141259361Y-30015581D01*
X141185000Y-30389419D01*
X140855000Y-30389419D01*
X140780639Y-30015581D01*
X140634775Y-29663434D01*
X140423013Y-29346509D01*
X140153491Y-29076987D01*
X139836566Y-28865225D01*
X139484419Y-28719361D01*
X139110581Y-28645000D01*
X138729419Y-28645000D01*
X138355581Y-28719361D01*
X138003434Y-28865225D01*
X137686509Y-29076987D01*
X137416987Y-29346509D01*
X137205225Y-29663434D01*
X137059361Y-30015581D01*
X136985000Y-30389419D01*
X116683319Y-30389419D01*
X116670537Y-30365506D01*
X116591185Y-30268815D01*
X116494494Y-30189463D01*
X116384180Y-30130498D01*
X116264482Y-30094188D01*
X116140000Y-30081928D01*
X115625750Y-30085000D01*
X115467000Y-30243750D01*
X115213000Y-30243750D01*
X115054250Y-30085000D01*
X114540000Y-30081928D01*
X114415518Y-30094188D01*
X114295820Y-30130498D01*
X114185506Y-30189463D01*
X114088815Y-30268815D01*
X114009463Y-30365506D01*
X113950498Y-30475820D01*
X113921339Y-30571943D01*
X113754759Y-30405363D01*
X113519727Y-30248320D01*
X113258574Y-30140147D01*
X112981335Y-30085000D01*
X112698665Y-30085000D01*
X112421426Y-30140147D01*
X112160273Y-30248320D01*
X111925241Y-30405363D01*
X111725363Y-30605241D01*
X111568320Y-30840273D01*
X111460147Y-31101426D01*
X111405000Y-31378665D01*
X95910000Y-31378665D01*
X95910000Y-30242702D01*
X104736903Y-30242702D01*
X104808486Y-30486671D01*
X105063996Y-30607571D01*
X105338184Y-30676300D01*
X105620512Y-30690217D01*
X105900130Y-30648787D01*
X106166292Y-30553603D01*
X106291514Y-30486671D01*
X106363097Y-30242702D01*
X105550000Y-29429605D01*
X104736903Y-30242702D01*
X95910000Y-30242702D01*
X95910000Y-29320512D01*
X104109783Y-29320512D01*
X104151213Y-29600130D01*
X104246397Y-29866292D01*
X104313329Y-29991514D01*
X104557298Y-30063097D01*
X105370395Y-29250000D01*
X104557298Y-28436903D01*
X104313329Y-28508486D01*
X104192429Y-28763996D01*
X104123700Y-29038184D01*
X104109783Y-29320512D01*
X95910000Y-29320512D01*
X95910000Y-27702702D01*
X104736903Y-27702702D01*
X104808486Y-27946671D01*
X104874636Y-27977971D01*
X104808486Y-28013329D01*
X104736903Y-28257298D01*
X105550000Y-29070395D01*
X106363097Y-28257298D01*
X106291514Y-28013329D01*
X106225364Y-27982029D01*
X106291514Y-27946671D01*
X106363097Y-27702702D01*
X105550000Y-26889605D01*
X104736903Y-27702702D01*
X95910000Y-27702702D01*
X95910000Y-26780512D01*
X104109783Y-26780512D01*
X104151213Y-27060130D01*
X104246397Y-27326292D01*
X104313329Y-27451514D01*
X104557298Y-27523097D01*
X105370395Y-26710000D01*
X105729605Y-26710000D01*
X106542702Y-27523097D01*
X106786671Y-27451514D01*
X106817194Y-27387008D01*
X106818320Y-27389727D01*
X106975363Y-27624759D01*
X107175241Y-27824637D01*
X107407759Y-27980000D01*
X107175241Y-28135363D01*
X106975363Y-28335241D01*
X106819085Y-28569128D01*
X106786671Y-28508486D01*
X106542702Y-28436903D01*
X105729605Y-29250000D01*
X106542702Y-30063097D01*
X106786671Y-29991514D01*
X106817194Y-29927008D01*
X106818320Y-29929727D01*
X106975363Y-30164759D01*
X107175241Y-30364637D01*
X107410273Y-30521680D01*
X107671426Y-30629853D01*
X107948665Y-30685000D01*
X108231335Y-30685000D01*
X108508574Y-30629853D01*
X108769727Y-30521680D01*
X109004759Y-30364637D01*
X109204637Y-30164759D01*
X109361680Y-29929727D01*
X109469853Y-29668574D01*
X109525000Y-29391335D01*
X109525000Y-29108665D01*
X109469853Y-28831426D01*
X109361680Y-28570273D01*
X109204637Y-28335241D01*
X109004759Y-28135363D01*
X108772241Y-27980000D01*
X109004759Y-27824637D01*
X109204637Y-27624759D01*
X109361680Y-27389727D01*
X109469853Y-27128574D01*
X109525000Y-26851335D01*
X109525000Y-26568665D01*
X109469853Y-26291426D01*
X109361680Y-26030273D01*
X109204637Y-25795241D01*
X109004759Y-25595363D01*
X108769727Y-25438320D01*
X108508574Y-25330147D01*
X108231335Y-25275000D01*
X107948665Y-25275000D01*
X107671426Y-25330147D01*
X107410273Y-25438320D01*
X107175241Y-25595363D01*
X106975363Y-25795241D01*
X106819085Y-26029128D01*
X106786671Y-25968486D01*
X106542702Y-25896903D01*
X105729605Y-26710000D01*
X105370395Y-26710000D01*
X104557298Y-25896903D01*
X104313329Y-25968486D01*
X104192429Y-26223996D01*
X104123700Y-26498184D01*
X104109783Y-26780512D01*
X95910000Y-26780512D01*
X95910000Y-25717298D01*
X104736903Y-25717298D01*
X105550000Y-26530395D01*
X106363097Y-25717298D01*
X106291514Y-25473329D01*
X106036004Y-25352429D01*
X105761816Y-25283700D01*
X105479488Y-25269783D01*
X105199870Y-25311213D01*
X104933708Y-25406397D01*
X104808486Y-25473329D01*
X104736903Y-25717298D01*
X95910000Y-25717298D01*
X95910000Y-24090000D01*
X111209428Y-24090000D01*
X111209428Y-26090000D01*
X111221688Y-26214482D01*
X111257998Y-26334180D01*
X111316963Y-26444494D01*
X111396315Y-26541185D01*
X111493006Y-26620537D01*
X111603320Y-26679502D01*
X111723018Y-26715812D01*
X111847500Y-26728072D01*
X113752500Y-26728072D01*
X113876982Y-26715812D01*
X113996680Y-26679502D01*
X114106994Y-26620537D01*
X114203685Y-26541185D01*
X114283037Y-26444494D01*
X114332059Y-26352781D01*
X114473077Y-26465969D01*
X114748906Y-26609571D01*
X114967020Y-26680563D01*
X115213000Y-26560594D01*
X115213000Y-25217000D01*
X115193000Y-25217000D01*
X115193000Y-24963000D01*
X115213000Y-24963000D01*
X115213000Y-23619406D01*
X115467000Y-23619406D01*
X115467000Y-24963000D01*
X115487000Y-24963000D01*
X115487000Y-25217000D01*
X115467000Y-25217000D01*
X115467000Y-26560594D01*
X115712980Y-26680563D01*
X115931094Y-26609571D01*
X116206923Y-26465969D01*
X116449437Y-26271315D01*
X116604837Y-26086101D01*
X116752037Y-26265463D01*
X116993766Y-26463845D01*
X117269552Y-26611255D01*
X117568797Y-26702030D01*
X117880000Y-26732681D01*
X118191204Y-26702030D01*
X118490449Y-26611255D01*
X118766235Y-26463845D01*
X119007963Y-26265463D01*
X119206345Y-26023734D01*
X119237739Y-25965000D01*
X123380299Y-25965000D01*
X123384188Y-26004482D01*
X123420498Y-26124180D01*
X123479463Y-26234494D01*
X123558815Y-26331185D01*
X123655506Y-26410537D01*
X123765820Y-26469502D01*
X123861943Y-26498661D01*
X123695363Y-26665241D01*
X123538320Y-26900273D01*
X123430147Y-27161426D01*
X123375000Y-27438665D01*
X123375000Y-27721335D01*
X123430147Y-27998574D01*
X123538320Y-28259727D01*
X123695363Y-28494759D01*
X123895241Y-28694637D01*
X124130273Y-28851680D01*
X124391426Y-28959853D01*
X124668665Y-29015000D01*
X124951335Y-29015000D01*
X125228574Y-28959853D01*
X125489727Y-28851680D01*
X125724759Y-28694637D01*
X125924637Y-28494759D01*
X126081680Y-28259727D01*
X126189853Y-27998574D01*
X126245000Y-27721335D01*
X126245000Y-27702702D01*
X149796903Y-27702702D01*
X149868486Y-27946671D01*
X149934636Y-27977971D01*
X149868486Y-28013329D01*
X149796903Y-28257298D01*
X150610000Y-29070395D01*
X151423097Y-28257298D01*
X151351514Y-28013329D01*
X151285364Y-27982029D01*
X151351514Y-27946671D01*
X151423097Y-27702702D01*
X150610000Y-26889605D01*
X149796903Y-27702702D01*
X126245000Y-27702702D01*
X126245000Y-27438665D01*
X126189853Y-27161426D01*
X126081680Y-26900273D01*
X125924637Y-26665241D01*
X125758057Y-26498661D01*
X125854180Y-26469502D01*
X125964494Y-26410537D01*
X126061185Y-26331185D01*
X126140537Y-26234494D01*
X126199502Y-26124180D01*
X126235812Y-26004482D01*
X126239701Y-25965000D01*
X137192150Y-25965000D01*
X137205225Y-25996566D01*
X137416987Y-26313491D01*
X137686509Y-26583013D01*
X138003434Y-26794775D01*
X138355581Y-26940639D01*
X138729419Y-27015000D01*
X139110581Y-27015000D01*
X139484419Y-26940639D01*
X139836566Y-26794775D01*
X140153491Y-26583013D01*
X140423013Y-26313491D01*
X140634775Y-25996566D01*
X140780639Y-25644419D01*
X140855000Y-25270581D01*
X140855000Y-24889419D01*
X141185000Y-24889419D01*
X141185000Y-25270581D01*
X141259361Y-25644419D01*
X141405225Y-25996566D01*
X141616987Y-26313491D01*
X141886509Y-26583013D01*
X142203434Y-26794775D01*
X142555581Y-26940639D01*
X142929419Y-27015000D01*
X143310581Y-27015000D01*
X143684419Y-26940639D01*
X144036566Y-26794775D01*
X144353491Y-26583013D01*
X144623013Y-26313491D01*
X144834775Y-25996566D01*
X144980639Y-25644419D01*
X145055000Y-25270581D01*
X145055000Y-24889419D01*
X145385000Y-24889419D01*
X145385000Y-25270581D01*
X145459361Y-25644419D01*
X145605225Y-25996566D01*
X145816987Y-26313491D01*
X146086509Y-26583013D01*
X146403434Y-26794775D01*
X146755581Y-26940639D01*
X147129419Y-27015000D01*
X147510581Y-27015000D01*
X147884419Y-26940639D01*
X148236566Y-26794775D01*
X148257912Y-26780512D01*
X149169783Y-26780512D01*
X149211213Y-27060130D01*
X149306397Y-27326292D01*
X149373329Y-27451514D01*
X149617298Y-27523097D01*
X150430395Y-26710000D01*
X150789605Y-26710000D01*
X151602702Y-27523097D01*
X151846671Y-27451514D01*
X151877194Y-27387008D01*
X151878320Y-27389727D01*
X152035363Y-27624759D01*
X152235241Y-27824637D01*
X152467759Y-27980000D01*
X152235241Y-28135363D01*
X152035363Y-28335241D01*
X151879085Y-28569128D01*
X151846671Y-28508486D01*
X151602702Y-28436903D01*
X150789605Y-29250000D01*
X151602702Y-30063097D01*
X151846671Y-29991514D01*
X151877194Y-29927008D01*
X151878320Y-29929727D01*
X152035363Y-30164759D01*
X152235241Y-30364637D01*
X152470273Y-30521680D01*
X152731426Y-30629853D01*
X153008665Y-30685000D01*
X153291335Y-30685000D01*
X153568574Y-30629853D01*
X153829727Y-30521680D01*
X154064759Y-30364637D01*
X154264637Y-30164759D01*
X154421680Y-29929727D01*
X154529853Y-29668574D01*
X154585000Y-29391335D01*
X154585000Y-29108665D01*
X154529853Y-28831426D01*
X154421680Y-28570273D01*
X154264637Y-28335241D01*
X154064759Y-28135363D01*
X153832241Y-27980000D01*
X154064759Y-27824637D01*
X154264637Y-27624759D01*
X154421680Y-27389727D01*
X154529853Y-27128574D01*
X154585000Y-26851335D01*
X154585000Y-26568665D01*
X154529853Y-26291426D01*
X154421680Y-26030273D01*
X154264637Y-25795241D01*
X154064759Y-25595363D01*
X153829727Y-25438320D01*
X153568574Y-25330147D01*
X153291335Y-25275000D01*
X153008665Y-25275000D01*
X152731426Y-25330147D01*
X152470273Y-25438320D01*
X152235241Y-25595363D01*
X152035363Y-25795241D01*
X151879085Y-26029128D01*
X151846671Y-25968486D01*
X151602702Y-25896903D01*
X150789605Y-26710000D01*
X150430395Y-26710000D01*
X149617298Y-25896903D01*
X149373329Y-25968486D01*
X149252429Y-26223996D01*
X149183700Y-26498184D01*
X149169783Y-26780512D01*
X148257912Y-26780512D01*
X148553491Y-26583013D01*
X148823013Y-26313491D01*
X149034775Y-25996566D01*
X149150451Y-25717298D01*
X149796903Y-25717298D01*
X150610000Y-26530395D01*
X151423097Y-25717298D01*
X151351514Y-25473329D01*
X151096004Y-25352429D01*
X150821816Y-25283700D01*
X150539488Y-25269783D01*
X150259870Y-25311213D01*
X149993708Y-25406397D01*
X149868486Y-25473329D01*
X149796903Y-25717298D01*
X149150451Y-25717298D01*
X149180639Y-25644419D01*
X149255000Y-25270581D01*
X149255000Y-24889419D01*
X149180639Y-24515581D01*
X149034775Y-24163434D01*
X148823013Y-23846509D01*
X148553491Y-23576987D01*
X148236566Y-23365225D01*
X147884419Y-23219361D01*
X147510581Y-23145000D01*
X147129419Y-23145000D01*
X146755581Y-23219361D01*
X146403434Y-23365225D01*
X146086509Y-23576987D01*
X145816987Y-23846509D01*
X145605225Y-24163434D01*
X145459361Y-24515581D01*
X145385000Y-24889419D01*
X145055000Y-24889419D01*
X144980639Y-24515581D01*
X144834775Y-24163434D01*
X144623013Y-23846509D01*
X144353491Y-23576987D01*
X144036566Y-23365225D01*
X143684419Y-23219361D01*
X143310581Y-23145000D01*
X142929419Y-23145000D01*
X142555581Y-23219361D01*
X142203434Y-23365225D01*
X141886509Y-23576987D01*
X141616987Y-23846509D01*
X141405225Y-24163434D01*
X141259361Y-24515581D01*
X141185000Y-24889419D01*
X140855000Y-24889419D01*
X140780639Y-24515581D01*
X140634775Y-24163434D01*
X140423013Y-23846509D01*
X140153491Y-23576987D01*
X139836566Y-23365225D01*
X139484419Y-23219361D01*
X139110581Y-23145000D01*
X138729419Y-23145000D01*
X138355581Y-23219361D01*
X138003434Y-23365225D01*
X137686509Y-23576987D01*
X137416987Y-23846509D01*
X137205225Y-24163434D01*
X137192150Y-24195000D01*
X126239701Y-24195000D01*
X126235812Y-24155518D01*
X126199502Y-24035820D01*
X126140537Y-23925506D01*
X126061185Y-23828815D01*
X125964494Y-23749463D01*
X125854180Y-23690498D01*
X125734482Y-23654188D01*
X125610000Y-23641928D01*
X124010000Y-23641928D01*
X123885518Y-23654188D01*
X123765820Y-23690498D01*
X123655506Y-23749463D01*
X123558815Y-23828815D01*
X123479463Y-23925506D01*
X123420498Y-24035820D01*
X123384188Y-24155518D01*
X123380299Y-24195000D01*
X119227049Y-24195000D01*
X119206345Y-24156265D01*
X119007963Y-23914537D01*
X118766234Y-23716155D01*
X118490448Y-23568745D01*
X118191203Y-23477970D01*
X117880000Y-23447319D01*
X117568796Y-23477970D01*
X117269551Y-23568745D01*
X116993765Y-23716155D01*
X116752037Y-23914537D01*
X116604838Y-24093900D01*
X116449437Y-23908685D01*
X116206923Y-23714031D01*
X115931094Y-23570429D01*
X115712980Y-23499437D01*
X115467000Y-23619406D01*
X115213000Y-23619406D01*
X114967020Y-23499437D01*
X114748906Y-23570429D01*
X114473077Y-23714031D01*
X114332059Y-23827219D01*
X114283037Y-23735506D01*
X114203685Y-23638815D01*
X114106994Y-23559463D01*
X113996680Y-23500498D01*
X113876982Y-23464188D01*
X113752500Y-23451928D01*
X111847500Y-23451928D01*
X111723018Y-23464188D01*
X111603320Y-23500498D01*
X111493006Y-23559463D01*
X111396315Y-23638815D01*
X111316963Y-23735506D01*
X111257998Y-23845820D01*
X111221688Y-23965518D01*
X111209428Y-24090000D01*
X95910000Y-24090000D01*
X95910000Y-17569721D01*
X136785000Y-17569721D01*
X136785000Y-17990279D01*
X136867047Y-18402756D01*
X137027988Y-18791302D01*
X137261637Y-19140983D01*
X137559017Y-19438363D01*
X137908698Y-19672012D01*
X138297244Y-19832953D01*
X138709721Y-19915000D01*
X139130279Y-19915000D01*
X139542756Y-19832953D01*
X139931302Y-19672012D01*
X140280983Y-19438363D01*
X140578363Y-19140983D01*
X140812012Y-18791302D01*
X140972953Y-18402756D01*
X141055000Y-17990279D01*
X141055000Y-17569721D01*
X145185000Y-17569721D01*
X145185000Y-17990279D01*
X145267047Y-18402756D01*
X145427988Y-18791302D01*
X145661637Y-19140983D01*
X145959017Y-19438363D01*
X146308698Y-19672012D01*
X146697244Y-19832953D01*
X147109721Y-19915000D01*
X147530279Y-19915000D01*
X147942756Y-19832953D01*
X148331302Y-19672012D01*
X148680983Y-19438363D01*
X148978363Y-19140983D01*
X149212012Y-18791302D01*
X149372953Y-18402756D01*
X149455000Y-17990279D01*
X149455000Y-17569721D01*
X149372953Y-17157244D01*
X149212012Y-16768698D01*
X148978363Y-16419017D01*
X148680983Y-16121637D01*
X148331302Y-15887988D01*
X147942756Y-15727047D01*
X147530279Y-15645000D01*
X147109721Y-15645000D01*
X146697244Y-15727047D01*
X146308698Y-15887988D01*
X145959017Y-16121637D01*
X145661637Y-16419017D01*
X145427988Y-16768698D01*
X145267047Y-17157244D01*
X145185000Y-17569721D01*
X141055000Y-17569721D01*
X140972953Y-17157244D01*
X140812012Y-16768698D01*
X140578363Y-16419017D01*
X140280983Y-16121637D01*
X139931302Y-15887988D01*
X139542756Y-15727047D01*
X139130279Y-15645000D01*
X138709721Y-15645000D01*
X138297244Y-15727047D01*
X137908698Y-15887988D01*
X137559017Y-16121637D01*
X137261637Y-16419017D01*
X137027988Y-16768698D01*
X136867047Y-17157244D01*
X136785000Y-17569721D01*
X95910000Y-17569721D01*
X95910000Y-14630000D01*
X160630001Y-14630000D01*
X160630000Y-188570000D01*
%TD*%
M02*
