M48
; DRILL file {KiCad (5.1.6-0-10_14)} date Thursday, June 11, 2020 at 07:37:53 AM
; FORMAT={-:-/ absolute / inch / decimal}
; #@! TF.CreationDate,2020-06-11T07:37:53+09:00
; #@! TF.GenerationSoftware,Kicad,Pcbnew,(5.1.6-0-10_14)
; #@! TF.FileFunction,Plated,1,2,PTH
FMAT,2
INCH
T1C0.0157
T2C0.0315
T3C0.0394
T4C0.0433
T5C0.0709
%
G90
G05
T1
X4.55Y-6.6754
X4.5504Y-2.8996
X5.1854Y-7.237
X5.3Y-3.6
X5.8Y-1.4
T2
X4.4425Y-1.2409
X4.5409Y-1.2409
X4.9138Y-0.9874
X4.9138Y-1.0858
X4.35Y-3.6
X4.35Y-3.9
T3
X4.1555Y-1.0516
X4.1555Y-1.1516
X4.2555Y-1.0516
X4.2555Y-1.1516
X5.9295Y-1.0516
X5.9295Y-1.1516
X6.0295Y-1.0516
X6.0295Y-1.1516
X4.7181Y-2.5996
X4.7181Y-2.6996
X4.7181Y-2.7996
X4.7181Y-2.8996
X4.7181Y-2.9996
X4.7181Y-3.0996
X4.7181Y-3.1996
X4.7181Y-3.2996
X4.7181Y-3.3996
X4.7181Y-3.4996
X4.7181Y-3.5996
X4.7181Y-3.6996
X5.5181Y-2.5996
X5.5181Y-2.6996
X5.5181Y-2.7996
X5.5181Y-2.8996
X5.5181Y-2.9996
X5.5181Y-3.0996
X5.5181Y-3.1996
X5.5181Y-3.2996
X5.5181Y-3.3996
X5.5181Y-3.4996
X5.5181Y-3.5996
X5.5181Y-3.6996
T4
X4.4409Y-0.9878
X4.5409Y-0.9878
X4.6409Y-0.9878
T5
X5.4693Y-0.9874
X5.4693Y-1.2039
X5.6346Y-0.9874
X5.6346Y-1.2039
X5.8Y-0.9874
X5.8Y-1.2039
T0
M30
