%TF.GenerationSoftware,KiCad,Pcbnew,(5.1.6-0-10_14)*%
%TF.CreationDate,2020-06-11T07:37:50+09:00*%
%TF.ProjectId,QSPIRadiationBoard,51535049-5261-4646-9961-74696f6e426f,rev?*%
%TF.SameCoordinates,Original*%
%TF.FileFunction,Soldermask,Top*%
%TF.FilePolarity,Negative*%
%FSLAX46Y46*%
G04 Gerber Fmt 4.6, Leading zero omitted, Abs format (unit mm)*
G04 Created by KiCad (PCBNEW (5.1.6-0-10_14)) date 2020-06-11 07:37:50*
%MOMM*%
%LPD*%
G01*
G04 APERTURE LIST*
%ADD10R,2.490000X0.658000*%
%ADD11C,1.700000*%
%ADD12O,2.005000X2.100000*%
%ADD13R,2.005000X2.100000*%
%ADD14R,1.700000X1.700000*%
%ADD15C,3.100000*%
%ADD16C,2.700000*%
%ADD17C,6.500000*%
%ADD18O,1.700000X1.700000*%
G04 APERTURE END LIST*
D10*
%TO.C,U3*%
X135450000Y-176190000D03*
X135450000Y-177460000D03*
X135450000Y-178730000D03*
X135450000Y-180000000D03*
X135450000Y-181270000D03*
X135450000Y-182540000D03*
X135450000Y-183810000D03*
X126190000Y-176190000D03*
X126190000Y-177460000D03*
X126190000Y-178730000D03*
X126190000Y-180000000D03*
X126190000Y-181270000D03*
X126190000Y-182540000D03*
X126190000Y-183810000D03*
X135450000Y-185080000D03*
X126190000Y-185080000D03*
%TD*%
D11*
%TO.C,U1*%
X150610000Y-26710000D03*
X153150000Y-29250000D03*
X150610000Y-29250000D03*
X153150000Y-26710000D03*
X108090000Y-29250000D03*
X105550000Y-29250000D03*
X108090000Y-26710000D03*
X105550000Y-26710000D03*
%TD*%
D12*
%TO.C,U4*%
X117880000Y-25090000D03*
X115340000Y-25090000D03*
D13*
X112800000Y-25090000D03*
%TD*%
D11*
%TO.C,C2*%
X124810000Y-27580000D03*
D14*
X124810000Y-25080000D03*
%TD*%
D11*
%TO.C,C1*%
X112840000Y-31520000D03*
D14*
X115340000Y-31520000D03*
%TD*%
D15*
%TO.C,J1*%
X147320000Y-17780000D03*
X138920000Y-17780000D03*
D16*
X147320000Y-30580000D03*
X143120000Y-30580000D03*
X138920000Y-30580000D03*
X147320000Y-25080000D03*
X143120000Y-25080000D03*
X138920000Y-25080000D03*
%TD*%
D17*
%TO.C,REF\u002A\u002A*%
X153500000Y-79000000D03*
%TD*%
%TO.C,REF\u002A\u002A*%
X103500000Y-79000000D03*
%TD*%
%TO.C,REF\u002A\u002A*%
X153500000Y-49000000D03*
%TD*%
%TO.C,REF\u002A\u002A*%
X103500000Y-48835000D03*
%TD*%
D11*
%TO.C,U2*%
X140160000Y-93970000D03*
X140160000Y-91430000D03*
X140160000Y-88890000D03*
X140160000Y-86350000D03*
X140160000Y-83810000D03*
X140160000Y-81270000D03*
X140160000Y-78730000D03*
X140160000Y-76190000D03*
X140160000Y-73650000D03*
X140160000Y-71110000D03*
X140160000Y-68570000D03*
X140160000Y-66030000D03*
X119840000Y-93970000D03*
X119840000Y-91430000D03*
X119840000Y-88890000D03*
X119840000Y-86350000D03*
X119840000Y-83810000D03*
X119840000Y-81270000D03*
X119840000Y-78730000D03*
X119840000Y-76190000D03*
X119840000Y-73650000D03*
X119840000Y-71110000D03*
X119840000Y-68570000D03*
X119840000Y-66030000D03*
%TD*%
D18*
%TO.C,R1*%
X110490000Y-91440000D03*
D11*
X110490000Y-99060000D03*
%TD*%
M02*
